<svg viewBox="0 0 860 480" xmlns="http://www.w3.org/2000/svg" role="img" font-family="sans-serif">
  <title>aF4 feed trigger wiring with AQY212GH PhotoMOS</title>
  <desc>PoE switch powers an Olimex ESP32-POE-ISO. GPIO13 drives the AQY212GH LED through a 220 ohm resistor. The PhotoMOS output switches 12V tapped from the feeder's power splitter onto the 3.5mm tip of the aF4's 0-10V trigger port.</desc>
  <rect x="0" y="0" width="860" height="480" fill="#ffffff"/>

  <!-- isolation boundary -->
  <line x1="430" y1="30" x2="430" y2="410" stroke="#999" stroke-width="1.5" stroke-dasharray="6 5"/>
  <text x="430" y="20" text-anchor="middle" font-size="11" fill="#888">galvanic isolation boundary</text>
  <text x="220" y="44" text-anchor="middle" font-size="11" fill="#888">PoE / logic side</text>
  <text x="650" y="44" text-anchor="middle" font-size="11" fill="#888">feeder 12V side</text>

  <!-- PoE switch -->
  <rect x="30" y="70" width="130" height="56" rx="8" fill="#f5f5f5" stroke="#ccc"/>
  <text x="95" y="94" text-anchor="middle" font-size="13" font-weight="600" fill="#222">PoE switch</text>
  <text x="95" y="112" text-anchor="middle" font-size="11" fill="#666">802.3af</text>

  <!-- cat5 -->
  <line x1="95" y1="126" x2="95" y2="180" stroke="#999" stroke-width="2"/>
  <text x="103" y="158" font-size="10" fill="#888">Cat5e</text>

  <!-- ESP32 -->
  <rect x="30" y="180" width="190" height="120" rx="8" fill="#f5f5f5" stroke="#999" stroke-width="1.5"/>
  <text x="125" y="205" text-anchor="middle" font-size="13" font-weight="600" fill="#222">Olimex ESP32-POE-ISO</text>
  <text x="125" y="222" text-anchor="middle" font-size="11" fill="#666">ESPHome</text>
  <circle cx="220" cy="248" r="4" fill="#222"/>
  <text x="212" y="242" text-anchor="end" font-size="11" font-family="monospace" fill="#222">GPIO13</text>
  <circle cx="220" cy="282" r="4" fill="#222"/>
  <text x="212" y="286" text-anchor="end" font-size="11" font-family="monospace" fill="#222">GND</text>

  <!-- resistor -->
  <line x1="220" y1="248" x2="268" y2="248" stroke="#222" stroke-width="1.5"/>
  <rect x="268" y="240" width="44" height="16" rx="3" fill="none" stroke="#222" stroke-width="1.5"/>
  <text x="290" y="234" text-anchor="middle" font-size="10" font-family="monospace" fill="#666">220Ω</text>
  <line x1="312" y1="248" x2="360" y2="248" stroke="#222" stroke-width="1.5"/>
  <!-- GND wire -->
  <line x1="220" y1="282" x2="360" y2="282" stroke="#222" stroke-width="1.5"/>

  <!-- AQY212GH -->
  <rect x="360" y="220" width="140" height="90" rx="8" fill="#f5f5f5" stroke="#999" stroke-width="1.5"/>
  <text x="430" y="208" text-anchor="middle" font-size="13" font-weight="600" fill="#222">AQY212GH</text>
  <!-- pins -->
  <circle cx="360" cy="248" r="4" fill="#222"/>
  <text x="370" y="252" font-size="10" font-family="monospace" fill="#666">1 LED+</text>
  <circle cx="360" cy="282" r="4" fill="#222"/>
  <text x="370" y="286" font-size="10" font-family="monospace" fill="#666">2 LED−</text>
  <circle cx="500" cy="248" r="4" fill="#222"/>
  <text x="490" y="252" text-anchor="end" font-size="10" font-family="monospace" fill="#666">OUT 4</text>
  <circle cx="500" cy="282" r="4" fill="#222"/>
  <text x="490" y="286" text-anchor="end" font-size="10" font-family="monospace" fill="#666">OUT 3</text>
  <!-- LED symbol -->
  <path d="M 398 260 l 12 8 l -12 8 z" fill="none" stroke="#666" stroke-width="1.2"/>
  <line x1="410" y1="260" x2="410" y2="276" stroke="#666" stroke-width="1.2"/>
  <path d="M 440 262 l 7 -7 M 444 266 l 7 -7" stroke="#666" stroke-width="1.2" fill="none"/>

  <!-- 12V supply -->
  <rect x="620" y="70" width="200" height="56" rx="8" fill="#f5f5f5" stroke="#ccc"/>
  <text x="720" y="94" text-anchor="middle" font-size="13" font-weight="600" fill="#222">aF4 power supply</text>
  <text x="720" y="112" text-anchor="middle" font-size="11" fill="#666">12V 12.5A</text>

  <!-- splitter -->
  <line x1="720" y1="126" x2="720" y2="160" stroke="#222" stroke-width="2"/>
  <circle cx="720" cy="164" r="5" fill="none" stroke="#222" stroke-width="1.5"/>
  <text x="732" y="168" font-size="11" fill="#666">barrel Y-splitter</text>

  <!-- splitter leg to feeder -->
  <path d="M 720 169 L 720 200 L 790 200 L 790 340" fill="none" stroke="#222" stroke-width="2"/>
  <text x="798" y="270" font-size="10" fill="#888">12V to</text>
  <text x="798" y="283" font-size="10" fill="#888">feeder</text>

  <!-- splitter leg to fuse to buck to photomos -->
  <path d="M 715 168 L 668 168" fill="none" stroke="#222" stroke-width="1.5"/>
  <rect x="624" y="160" width="44" height="16" rx="3" fill="none" stroke="#222" stroke-width="1.5"/>
  <text x="646" y="154" text-anchor="middle" font-size="9" font-family="monospace" fill="#666">500mA PTC</text>
  <path d="M 624 168 L 560 168 L 560 192" fill="none" stroke="#222" stroke-width="1.5"/>
  <text x="572" y="186" font-size="10" font-family="monospace" fill="#666">+12V tap</text>
  <rect x="528" y="192" width="64" height="34" rx="5" fill="#f5f5f5" stroke="#999" stroke-width="1.2"/>
  <text x="560" y="206" text-anchor="middle" font-size="9" font-weight="600" fill="#222">buck reg</text>
  <text x="560" y="219" text-anchor="middle" font-size="9" font-family="monospace" fill="#666">→10.4V</text>
  <path d="M 560 226 L 560 248 L 500 248" fill="none" stroke="#222" stroke-width="1.5"/>

  <!-- OUT4 to tip -->
  <line x1="500" y1="282" x2="620" y2="282" stroke="#222" stroke-width="1.5"/>
  <text x="522" y="300" font-size="10" font-family="monospace" fill="#666">switched 10.4V</text>

  <!-- 3.5mm plug -->
  <rect x="620" y="258" width="110" height="78" rx="8" fill="#f5f5f5" stroke="#ccc"/>
  <text x="675" y="280" text-anchor="middle" font-size="12" font-weight="600" fill="#222">3.5mm plug</text>
  <text x="675" y="296" text-anchor="middle" font-size="10" font-family="monospace" fill="#666">tip = signal</text>
  <text x="675" y="310" text-anchor="middle" font-size="10" font-family="monospace" fill="#666">sleeve = GND</text>
  <text x="675" y="326" text-anchor="middle" font-size="10" font-family="monospace" fill="#666">TVS 1" behind plug</text>

  <!-- sleeve to supply ground -->
  <path d="M 675 336 L 675 360 L 610 360" fill="none" stroke="#222" stroke-width="1.5"/>
  <text x="605" y="376" font-size="10" font-family="monospace" fill="#666" text-anchor="end">to supply GND (splitter −)</text>

  <!-- plug into feeder -->
  <line x1="730" y1="290" x2="740" y2="290" stroke="#222" stroke-width="2"/>

  <!-- aF4 -->
  <rect x="740" y="258" width="90" height="120" rx="8" fill="#f5f5f5" stroke="#999" stroke-width="1.5"/>
  <text x="785" y="300" text-anchor="middle" font-size="13" font-weight="600" fill="#222">aF4</text>
  <text x="785" y="318" text-anchor="middle" font-size="10" fill="#666">0–10V port</text>
  <text x="785" y="332" text-anchor="middle" font-size="10" fill="#666">12V in</text>

  <!-- timing note -->
  <rect x="30" y="410" width="800" height="46" rx="8" fill="none" stroke="#ccc"/>
  <text x="50" y="430" font-size="11" font-family="monospace" fill="#222">feed = GPIO13 high 10s (spec: ≥9V for &gt;6s) → low ≥60s to re-arm → next feed ≥5 min later</text>
  <text x="50" y="446" font-size="10" fill="#888">Fully isolated LED/output sides. Rev B: 500mA polyfuse before buck · P6KE12CA TVS behind plug (bidirectional, no polarity) · 10kΩ GPIO13 pulldown on protoboard.</text>
</svg>
