%TF.GenerationSoftware,KiCad,Pcbnew,7.0.11+dfsg-1build4*%
%TF.CreationDate,2026-08-27T20:18:35+00:00*%
%TF.ProjectId,af4-trigger-hat,6166342d-7472-4696-9767-65722d686174,D*%
%TF.SameCoordinates,Original*%
%TF.FileFunction,Paste,Top*%
%TF.FilePolarity,Positive*%
%FSLAX46Y46*%
G04 Gerber Fmt 4.6, Leading zero omitted, Abs format (unit mm)*
G04 Created by KiCad (PCBNEW 7.0.11+dfsg-1build4) date 2026-08-27 20:18:35*
%MOMM*%
%LPD*%
G01*
G04 APERTURE LIST*
G04 Aperture macros list*
%AMRoundRect*
0 Rectangle with rounded corners*
0 $1 Rounding radius*
0 $2 $3 $4 $5 $6 $7 $8 $9 X,Y pos of 4 corners*
0 Add a 4 corners polygon primitive as box body*
4,1,4,$2,$3,$4,$5,$6,$7,$8,$9,$2,$3,0*
0 Add four circle primitives for the rounded corners*
1,1,$1+$1,$2,$3*
1,1,$1+$1,$4,$5*
1,1,$1+$1,$6,$7*
1,1,$1+$1,$8,$9*
0 Add four rect primitives between the rounded corners*
20,1,$1+$1,$2,$3,$4,$5,0*
20,1,$1+$1,$4,$5,$6,$7,0*
20,1,$1+$1,$6,$7,$8,$9,0*
20,1,$1+$1,$8,$9,$2,$3,0*%
G04 Aperture macros list end*
%ADD10RoundRect,0.375000X0.625000X0.375000X-0.625000X0.375000X-0.625000X-0.375000X0.625000X-0.375000X0*%
%ADD11RoundRect,0.500000X0.500000X1.400000X-0.500000X1.400000X-0.500000X-1.400000X0.500000X-1.400000X0*%
%ADD12RoundRect,0.250000X0.312500X0.625000X-0.312500X0.625000X-0.312500X-0.625000X0.312500X-0.625000X0*%
%ADD13RoundRect,0.250000X0.325000X0.650000X-0.325000X0.650000X-0.325000X-0.650000X0.325000X-0.650000X0*%
%ADD14RoundRect,0.250000X0.412500X0.925000X-0.412500X0.925000X-0.412500X-0.925000X0.412500X-0.925000X0*%
%ADD15R,2.000000X0.640000*%
%ADD16RoundRect,0.250000X-0.262500X-0.450000X0.262500X-0.450000X0.262500X0.450000X-0.262500X0.450000X0*%
%ADD17RoundRect,0.243750X0.456250X-0.243750X0.456250X0.243750X-0.456250X0.243750X-0.456250X-0.243750X0*%
%ADD18RoundRect,0.250000X-0.450000X0.262500X-0.450000X-0.262500X0.450000X-0.262500X0.450000X0.262500X0*%
%ADD19RoundRect,0.243750X0.243750X0.456250X-0.243750X0.456250X-0.243750X-0.456250X0.243750X-0.456250X0*%
%ADD20RoundRect,0.250000X-1.000000X-0.900000X1.000000X-0.900000X1.000000X0.900000X-1.000000X0.900000X0*%
%ADD21RoundRect,0.250000X0.450000X-0.262500X0.450000X0.262500X-0.450000X0.262500X-0.450000X-0.262500X0*%
%ADD22RoundRect,0.250000X-0.650000X1.000000X-0.650000X-1.000000X0.650000X-1.000000X0.650000X1.000000X0*%
%ADD23RoundRect,0.250000X0.262500X0.450000X-0.262500X0.450000X-0.262500X-0.450000X0.262500X-0.450000X0*%
%ADD24RoundRect,0.250000X0.650000X-1.000000X0.650000X1.000000X-0.650000X1.000000X-0.650000X-1.000000X0*%
G04 APERTURE END LIST*
D10*
%TO.C,U2*%
X144150000Y-129800000D03*
X144150000Y-127500000D03*
D11*
X137850000Y-127500000D03*
D10*
X144150000Y-125200000D03*
%TD*%
D12*
%TO.C,F1*%
X130962500Y-112000000D03*
X128037500Y-112000000D03*
%TD*%
D13*
%TO.C,C1*%
X134075000Y-124500000D03*
X131125000Y-124500000D03*
%TD*%
D14*
%TO.C,C2*%
X140037500Y-134000000D03*
X136962500Y-134000000D03*
%TD*%
D15*
%TO.C,U1*%
X120850000Y-136365000D03*
X120850000Y-137635000D03*
X127150000Y-137635000D03*
X127150000Y-136365000D03*
%TD*%
D16*
%TO.C,R1*%
X119587500Y-132000000D03*
X121412500Y-132000000D03*
%TD*%
D17*
%TO.C,D5*%
X128200000Y-151737500D03*
X128200000Y-149862500D03*
%TD*%
D16*
%TO.C,R5*%
X142087500Y-136000000D03*
X143912500Y-136000000D03*
%TD*%
D18*
%TO.C,R7*%
X128200000Y-146287500D03*
X128200000Y-148112500D03*
%TD*%
D19*
%TO.C,D3*%
X140437500Y-139000000D03*
X138562500Y-139000000D03*
%TD*%
D16*
%TO.C,R2*%
X111087500Y-132110000D03*
X112912500Y-132110000D03*
%TD*%
D20*
%TO.C,D4*%
X127750000Y-156000000D03*
X132050000Y-156000000D03*
%TD*%
D21*
%TO.C,R3*%
X128200000Y-144212500D03*
X128200000Y-142387500D03*
%TD*%
D22*
%TO.C,D2*%
X128200000Y-124500000D03*
X128200000Y-128500000D03*
%TD*%
D23*
%TO.C,R4*%
X143912500Y-133000000D03*
X142087500Y-133000000D03*
%TD*%
D16*
%TO.C,R6*%
X135087500Y-139000000D03*
X136912500Y-139000000D03*
%TD*%
D24*
%TO.C,D1*%
X128200000Y-119500000D03*
X128200000Y-115500000D03*
%TD*%
M02*
