%TF.GenerationSoftware,KiCad,Pcbnew,7.0.11+dfsg-1build4*%
%TF.CreationDate,2026-08-28T19:35:06+00:00*%
%TF.ProjectId,af4-trigger-hat,6166342d-7472-4696-9767-65722d686174,D*%
%TF.SameCoordinates,Original*%
%TF.FileFunction,Copper,L2,Bot*%
%TF.FilePolarity,Positive*%
%FSLAX46Y46*%
G04 Gerber Fmt 4.6, Leading zero omitted, Abs format (unit mm)*
G04 Created by KiCad (PCBNEW 7.0.11+dfsg-1build4) date 2026-08-28 19:35:06*
%MOMM*%
%LPD*%
G01*
G04 APERTURE LIST*
%TA.AperFunction,ComponentPad*%
%ADD10R,1.700000X1.700000*%
%TD*%
%TA.AperFunction,ComponentPad*%
%ADD11O,1.700000X1.700000*%
%TD*%
%TA.AperFunction,ComponentPad*%
%ADD12O,2.200000X1.200000*%
%TD*%
%TA.AperFunction,ComponentPad*%
%ADD13O,1.200000X2.200000*%
%TD*%
%TA.AperFunction,ComponentPad*%
%ADD14R,3.000000X1.800000*%
%TD*%
%TA.AperFunction,ComponentPad*%
%ADD15O,3.000000X1.800000*%
%TD*%
%TA.AperFunction,ComponentPad*%
%ADD16O,3.000000X1.600000*%
%TD*%
%TA.AperFunction,ViaPad*%
%ADD17C,0.900000*%
%TD*%
G04 APERTURE END LIST*
D10*
%TO.P,J3,1*%
%TO.N,N/C*%
X91440000Y-123220000D03*
D11*
%TO.P,J3,2*%
X91440000Y-125760000D03*
%TO.P,J3,3*%
%TO.N,GNDL*%
X91440000Y-128300000D03*
%TO.P,J3,4*%
%TO.N,N/C*%
X91440000Y-130840000D03*
%TO.P,J3,5*%
X91440000Y-133380000D03*
%TO.P,J3,6*%
X91440000Y-135920000D03*
%TO.P,J3,7*%
X91440000Y-138460000D03*
%TO.P,J3,8*%
X91440000Y-141000000D03*
%TO.P,J3,9*%
X91440000Y-143540000D03*
%TO.P,J3,10*%
X91440000Y-146080000D03*
%TD*%
D10*
%TO.P,J4,1*%
%TO.N,N/C*%
X116840000Y-123220000D03*
D11*
%TO.P,J4,2*%
X116840000Y-125760000D03*
%TO.P,J4,3*%
X116840000Y-128300000D03*
%TO.P,J4,4*%
X116840000Y-130840000D03*
%TO.P,J4,5*%
X116840000Y-133380000D03*
%TO.P,J4,6*%
%TO.N,GPIO32*%
X116840000Y-135920000D03*
%TO.P,J4,7*%
%TO.N,N/C*%
X116840000Y-138460000D03*
%TO.P,J4,8*%
X116840000Y-141000000D03*
%TO.P,J4,9*%
X116840000Y-143540000D03*
%TO.P,J4,10*%
X116840000Y-146080000D03*
%TD*%
D12*
%TO.P,J2,R*%
%TO.N,GNDP*%
X136650000Y-153500000D03*
D13*
%TO.P,J2,S*%
X141650000Y-148500000D03*
D12*
%TO.P,J2,T*%
%TO.N,TIP*%
X136650000Y-143500000D03*
%TD*%
D14*
%TO.P,J1,1*%
%TO.N,+12V_RAW*%
X144000000Y-121000000D03*
D15*
%TO.P,J1,2*%
%TO.N,GNDP*%
X144000000Y-112500000D03*
%TO.P,J1,3*%
%TO.N,N/C*%
X144000000Y-117800000D03*
D16*
%TO.P,J1,SH*%
X136700000Y-111600000D03*
X136700000Y-121400000D03*
%TD*%
D17*
%TO.N,GNDL*%
X108000000Y-145000000D03*
X96000000Y-150000000D03*
X96000000Y-120000000D03*
X112000000Y-120000000D03*
%TO.N,GNDP*%
X145000000Y-140000000D03*
X134000000Y-118000000D03*
X127000000Y-158000000D03*
X126900000Y-152800000D03*
X126900000Y-141000000D03*
X127500000Y-132000000D03*
X133000000Y-158000000D03*
%TD*%
%TA.AperFunction,Conductor*%
%TO.N,GNDL*%
G36*
X121609191Y-110519407D02*
G01*
X121645155Y-110568907D01*
X121650000Y-110599500D01*
X121650000Y-116694145D01*
X121631093Y-116752336D01*
X121622271Y-116762857D01*
X121573817Y-116813115D01*
X121416199Y-117033422D01*
X121292342Y-117274328D01*
X121204884Y-117530687D01*
X121204881Y-117530698D01*
X121155680Y-117797069D01*
X121145788Y-118067765D01*
X121175414Y-118337020D01*
X121209998Y-118469305D01*
X121243928Y-118599088D01*
X121349870Y-118848390D01*
X121490982Y-119079610D01*
X121627097Y-119243170D01*
X121649786Y-119299990D01*
X121650000Y-119306495D01*
X121650000Y-146950703D01*
X121649934Y-146954319D01*
X121645788Y-147067765D01*
X121645787Y-147067765D01*
X121649406Y-147100646D01*
X121650000Y-147111474D01*
X121650000Y-159400500D01*
X121631093Y-159458691D01*
X121581593Y-159494655D01*
X121551000Y-159499500D01*
X89749500Y-159499500D01*
X89691309Y-159480593D01*
X89655345Y-159431093D01*
X89650500Y-159400500D01*
X89650500Y-146080000D01*
X90334785Y-146080000D01*
X90353603Y-146283083D01*
X90409418Y-146479250D01*
X90500327Y-146661821D01*
X90623236Y-146824579D01*
X90773959Y-146961981D01*
X90947363Y-147069348D01*
X91137544Y-147143024D01*
X91338024Y-147180500D01*
X91541976Y-147180500D01*
X91742456Y-147143024D01*
X91932637Y-147069348D01*
X92106041Y-146961981D01*
X92256764Y-146824579D01*
X92379673Y-146661821D01*
X92470582Y-146479250D01*
X92526397Y-146283083D01*
X92545215Y-146080000D01*
X115734785Y-146080000D01*
X115753603Y-146283083D01*
X115809418Y-146479250D01*
X115900327Y-146661821D01*
X116023236Y-146824579D01*
X116173959Y-146961981D01*
X116347363Y-147069348D01*
X116537544Y-147143024D01*
X116738024Y-147180500D01*
X116941976Y-147180500D01*
X117142456Y-147143024D01*
X117332637Y-147069348D01*
X117506041Y-146961981D01*
X117656764Y-146824579D01*
X117779673Y-146661821D01*
X117870582Y-146479250D01*
X117926397Y-146283083D01*
X117945215Y-146080000D01*
X117926397Y-145876917D01*
X117870582Y-145680750D01*
X117779673Y-145498179D01*
X117656764Y-145335421D01*
X117506041Y-145198019D01*
X117332637Y-145090652D01*
X117142456Y-145016976D01*
X117142455Y-145016975D01*
X117142453Y-145016975D01*
X116941976Y-144979500D01*
X116738024Y-144979500D01*
X116537546Y-145016975D01*
X116467632Y-145044059D01*
X116347363Y-145090652D01*
X116252320Y-145149500D01*
X116173959Y-145198019D01*
X116023237Y-145335420D01*
X115900328Y-145498177D01*
X115900323Y-145498186D01*
X115809419Y-145680747D01*
X115809418Y-145680750D01*
X115753603Y-145876917D01*
X115734785Y-146080000D01*
X92545215Y-146080000D01*
X92526397Y-145876917D01*
X92470582Y-145680750D01*
X92379673Y-145498179D01*
X92256764Y-145335421D01*
X92106041Y-145198019D01*
X91932637Y-145090652D01*
X91742456Y-145016976D01*
X91742455Y-145016975D01*
X91742453Y-145016975D01*
X91541976Y-144979500D01*
X91338024Y-144979500D01*
X91137546Y-145016975D01*
X91067632Y-145044059D01*
X90947363Y-145090652D01*
X90852320Y-145149500D01*
X90773959Y-145198019D01*
X90623237Y-145335420D01*
X90500328Y-145498177D01*
X90500323Y-145498186D01*
X90409419Y-145680747D01*
X90409418Y-145680750D01*
X90353603Y-145876917D01*
X90334785Y-146080000D01*
X89650500Y-146080000D01*
X89650500Y-143540000D01*
X90334785Y-143540000D01*
X90353603Y-143743083D01*
X90409418Y-143939250D01*
X90500327Y-144121821D01*
X90623236Y-144284579D01*
X90773959Y-144421981D01*
X90947363Y-144529348D01*
X91137544Y-144603024D01*
X91338024Y-144640500D01*
X91541976Y-144640500D01*
X91742456Y-144603024D01*
X91932637Y-144529348D01*
X92106041Y-144421981D01*
X92256764Y-144284579D01*
X92379673Y-144121821D01*
X92470582Y-143939250D01*
X92526397Y-143743083D01*
X92545215Y-143540000D01*
X115734785Y-143540000D01*
X115753603Y-143743083D01*
X115809418Y-143939250D01*
X115900327Y-144121821D01*
X116023236Y-144284579D01*
X116173959Y-144421981D01*
X116347363Y-144529348D01*
X116537544Y-144603024D01*
X116738024Y-144640500D01*
X116941976Y-144640500D01*
X117142456Y-144603024D01*
X117332637Y-144529348D01*
X117506041Y-144421981D01*
X117656764Y-144284579D01*
X117779673Y-144121821D01*
X117870582Y-143939250D01*
X117926397Y-143743083D01*
X117945215Y-143540000D01*
X117926397Y-143336917D01*
X117870582Y-143140750D01*
X117779673Y-142958179D01*
X117656764Y-142795421D01*
X117506041Y-142658019D01*
X117332637Y-142550652D01*
X117142456Y-142476976D01*
X117142455Y-142476975D01*
X117142453Y-142476975D01*
X116941976Y-142439500D01*
X116738024Y-142439500D01*
X116537546Y-142476975D01*
X116467632Y-142504059D01*
X116347363Y-142550652D01*
X116173959Y-142658019D01*
X116023237Y-142795420D01*
X115900328Y-142958177D01*
X115900323Y-142958186D01*
X115809419Y-143140747D01*
X115809418Y-143140750D01*
X115753603Y-143336917D01*
X115734785Y-143540000D01*
X92545215Y-143540000D01*
X92526397Y-143336917D01*
X92470582Y-143140750D01*
X92379673Y-142958179D01*
X92256764Y-142795421D01*
X92106041Y-142658019D01*
X91932637Y-142550652D01*
X91742456Y-142476976D01*
X91742455Y-142476975D01*
X91742453Y-142476975D01*
X91541976Y-142439500D01*
X91338024Y-142439500D01*
X91137546Y-142476975D01*
X91067632Y-142504059D01*
X90947363Y-142550652D01*
X90773959Y-142658019D01*
X90623237Y-142795420D01*
X90500328Y-142958177D01*
X90500323Y-142958186D01*
X90409419Y-143140747D01*
X90409418Y-143140750D01*
X90353603Y-143336917D01*
X90334785Y-143540000D01*
X89650500Y-143540000D01*
X89650500Y-141000000D01*
X90334785Y-141000000D01*
X90353603Y-141203083D01*
X90409418Y-141399250D01*
X90500327Y-141581821D01*
X90623236Y-141744579D01*
X90773959Y-141881981D01*
X90947363Y-141989348D01*
X91137544Y-142063024D01*
X91338024Y-142100500D01*
X91541976Y-142100500D01*
X91742456Y-142063024D01*
X91932637Y-141989348D01*
X92106041Y-141881981D01*
X92256764Y-141744579D01*
X92379673Y-141581821D01*
X92470582Y-141399250D01*
X92526397Y-141203083D01*
X92545215Y-141000000D01*
X115734785Y-141000000D01*
X115753603Y-141203083D01*
X115809418Y-141399250D01*
X115900327Y-141581821D01*
X116023236Y-141744579D01*
X116173959Y-141881981D01*
X116347363Y-141989348D01*
X116537544Y-142063024D01*
X116738024Y-142100500D01*
X116941976Y-142100500D01*
X117142456Y-142063024D01*
X117332637Y-141989348D01*
X117506041Y-141881981D01*
X117656764Y-141744579D01*
X117779673Y-141581821D01*
X117870582Y-141399250D01*
X117926397Y-141203083D01*
X117945215Y-141000000D01*
X117926397Y-140796917D01*
X117870582Y-140600750D01*
X117779673Y-140418179D01*
X117656764Y-140255421D01*
X117506041Y-140118019D01*
X117332637Y-140010652D01*
X117142456Y-139936976D01*
X117142455Y-139936975D01*
X117142453Y-139936975D01*
X116941976Y-139899500D01*
X116738024Y-139899500D01*
X116537546Y-139936975D01*
X116467632Y-139964059D01*
X116347363Y-140010652D01*
X116173959Y-140118019D01*
X116023237Y-140255420D01*
X115900328Y-140418177D01*
X115900323Y-140418186D01*
X115809419Y-140600747D01*
X115809418Y-140600750D01*
X115753603Y-140796917D01*
X115734785Y-141000000D01*
X92545215Y-141000000D01*
X92526397Y-140796917D01*
X92470582Y-140600750D01*
X92379673Y-140418179D01*
X92256764Y-140255421D01*
X92106041Y-140118019D01*
X91932637Y-140010652D01*
X91742456Y-139936976D01*
X91742455Y-139936975D01*
X91742453Y-139936975D01*
X91541976Y-139899500D01*
X91338024Y-139899500D01*
X91137546Y-139936975D01*
X91067632Y-139964059D01*
X90947363Y-140010652D01*
X90773959Y-140118019D01*
X90623237Y-140255420D01*
X90500328Y-140418177D01*
X90500323Y-140418186D01*
X90409419Y-140600747D01*
X90409418Y-140600750D01*
X90353603Y-140796917D01*
X90334785Y-141000000D01*
X89650500Y-141000000D01*
X89650500Y-138460000D01*
X90334785Y-138460000D01*
X90353603Y-138663083D01*
X90409418Y-138859250D01*
X90500327Y-139041821D01*
X90623236Y-139204579D01*
X90773959Y-139341981D01*
X90947363Y-139449348D01*
X91137544Y-139523024D01*
X91338024Y-139560500D01*
X91541976Y-139560500D01*
X91742456Y-139523024D01*
X91932637Y-139449348D01*
X92106041Y-139341981D01*
X92256764Y-139204579D01*
X92379673Y-139041821D01*
X92470582Y-138859250D01*
X92526397Y-138663083D01*
X92545215Y-138460000D01*
X115734785Y-138460000D01*
X115753603Y-138663083D01*
X115809418Y-138859250D01*
X115900327Y-139041821D01*
X116023236Y-139204579D01*
X116173959Y-139341981D01*
X116347363Y-139449348D01*
X116537544Y-139523024D01*
X116738024Y-139560500D01*
X116941976Y-139560500D01*
X117142456Y-139523024D01*
X117332637Y-139449348D01*
X117506041Y-139341981D01*
X117656764Y-139204579D01*
X117779673Y-139041821D01*
X117870582Y-138859250D01*
X117926397Y-138663083D01*
X117945215Y-138460000D01*
X117926397Y-138256917D01*
X117870582Y-138060750D01*
X117779673Y-137878179D01*
X117656764Y-137715421D01*
X117506041Y-137578019D01*
X117332637Y-137470652D01*
X117142456Y-137396976D01*
X117142455Y-137396975D01*
X117142453Y-137396975D01*
X116941976Y-137359500D01*
X116738024Y-137359500D01*
X116537546Y-137396975D01*
X116467632Y-137424059D01*
X116347363Y-137470652D01*
X116173959Y-137578019D01*
X116023237Y-137715420D01*
X115900328Y-137878177D01*
X115900323Y-137878186D01*
X115809419Y-138060747D01*
X115809418Y-138060750D01*
X115753603Y-138256917D01*
X115734785Y-138460000D01*
X92545215Y-138460000D01*
X92526397Y-138256917D01*
X92470582Y-138060750D01*
X92379673Y-137878179D01*
X92256764Y-137715421D01*
X92106041Y-137578019D01*
X91932637Y-137470652D01*
X91742456Y-137396976D01*
X91742455Y-137396975D01*
X91742453Y-137396975D01*
X91541976Y-137359500D01*
X91338024Y-137359500D01*
X91137546Y-137396975D01*
X91067632Y-137424059D01*
X90947363Y-137470652D01*
X90773959Y-137578019D01*
X90623237Y-137715420D01*
X90500328Y-137878177D01*
X90500323Y-137878186D01*
X90409419Y-138060747D01*
X90409418Y-138060750D01*
X90353603Y-138256917D01*
X90334785Y-138460000D01*
X89650500Y-138460000D01*
X89650500Y-135920000D01*
X90334785Y-135920000D01*
X90353603Y-136123083D01*
X90409418Y-136319250D01*
X90500327Y-136501821D01*
X90623236Y-136664579D01*
X90773959Y-136801981D01*
X90947363Y-136909348D01*
X91137544Y-136983024D01*
X91338024Y-137020500D01*
X91541976Y-137020500D01*
X91742456Y-136983024D01*
X91932637Y-136909348D01*
X92106041Y-136801981D01*
X92256764Y-136664579D01*
X92379673Y-136501821D01*
X92470582Y-136319250D01*
X92526397Y-136123083D01*
X92545215Y-135920000D01*
X115734785Y-135920000D01*
X115753603Y-136123083D01*
X115809418Y-136319250D01*
X115900327Y-136501821D01*
X116023236Y-136664579D01*
X116173959Y-136801981D01*
X116347363Y-136909348D01*
X116537544Y-136983024D01*
X116738024Y-137020500D01*
X116941976Y-137020500D01*
X117142456Y-136983024D01*
X117332637Y-136909348D01*
X117506041Y-136801981D01*
X117656764Y-136664579D01*
X117779673Y-136501821D01*
X117870582Y-136319250D01*
X117926397Y-136123083D01*
X117945215Y-135920000D01*
X117926397Y-135716917D01*
X117870582Y-135520750D01*
X117779673Y-135338179D01*
X117656764Y-135175421D01*
X117506041Y-135038019D01*
X117332637Y-134930652D01*
X117142456Y-134856976D01*
X117142455Y-134856975D01*
X117142453Y-134856975D01*
X116941976Y-134819500D01*
X116738024Y-134819500D01*
X116537546Y-134856975D01*
X116467632Y-134884059D01*
X116347363Y-134930652D01*
X116173959Y-135038019D01*
X116023237Y-135175420D01*
X115900328Y-135338177D01*
X115900323Y-135338186D01*
X115809419Y-135520747D01*
X115809418Y-135520750D01*
X115753603Y-135716917D01*
X115734785Y-135920000D01*
X92545215Y-135920000D01*
X92526397Y-135716917D01*
X92470582Y-135520750D01*
X92379673Y-135338179D01*
X92256764Y-135175421D01*
X92106041Y-135038019D01*
X91932637Y-134930652D01*
X91742456Y-134856976D01*
X91742455Y-134856975D01*
X91742453Y-134856975D01*
X91541976Y-134819500D01*
X91338024Y-134819500D01*
X91137546Y-134856975D01*
X91067632Y-134884059D01*
X90947363Y-134930652D01*
X90773959Y-135038019D01*
X90623237Y-135175420D01*
X90500328Y-135338177D01*
X90500323Y-135338186D01*
X90409419Y-135520747D01*
X90409418Y-135520750D01*
X90353603Y-135716917D01*
X90334785Y-135920000D01*
X89650500Y-135920000D01*
X89650500Y-133380000D01*
X90334785Y-133380000D01*
X90353603Y-133583083D01*
X90409418Y-133779250D01*
X90500327Y-133961821D01*
X90623236Y-134124579D01*
X90773959Y-134261981D01*
X90947363Y-134369348D01*
X91137544Y-134443024D01*
X91338024Y-134480500D01*
X91541976Y-134480500D01*
X91742456Y-134443024D01*
X91932637Y-134369348D01*
X92106041Y-134261981D01*
X92256764Y-134124579D01*
X92379673Y-133961821D01*
X92470582Y-133779250D01*
X92526397Y-133583083D01*
X92545215Y-133380000D01*
X115734785Y-133380000D01*
X115753603Y-133583083D01*
X115809418Y-133779250D01*
X115900327Y-133961821D01*
X116023236Y-134124579D01*
X116173959Y-134261981D01*
X116347363Y-134369348D01*
X116537544Y-134443024D01*
X116738024Y-134480500D01*
X116941976Y-134480500D01*
X117142456Y-134443024D01*
X117332637Y-134369348D01*
X117506041Y-134261981D01*
X117656764Y-134124579D01*
X117779673Y-133961821D01*
X117870582Y-133779250D01*
X117926397Y-133583083D01*
X117945215Y-133380000D01*
X117926397Y-133176917D01*
X117870582Y-132980750D01*
X117779673Y-132798179D01*
X117656764Y-132635421D01*
X117506041Y-132498019D01*
X117332637Y-132390652D01*
X117142456Y-132316976D01*
X117142455Y-132316975D01*
X117142453Y-132316975D01*
X116941976Y-132279500D01*
X116738024Y-132279500D01*
X116537546Y-132316975D01*
X116467632Y-132344059D01*
X116347363Y-132390652D01*
X116173959Y-132498019D01*
X116023237Y-132635420D01*
X115900328Y-132798177D01*
X115900323Y-132798186D01*
X115809419Y-132980747D01*
X115809418Y-132980750D01*
X115753603Y-133176917D01*
X115734785Y-133380000D01*
X92545215Y-133380000D01*
X92526397Y-133176917D01*
X92470582Y-132980750D01*
X92379673Y-132798179D01*
X92256764Y-132635421D01*
X92106041Y-132498019D01*
X91932637Y-132390652D01*
X91742456Y-132316976D01*
X91742455Y-132316975D01*
X91742453Y-132316975D01*
X91541976Y-132279500D01*
X91338024Y-132279500D01*
X91137546Y-132316975D01*
X91067632Y-132344059D01*
X90947363Y-132390652D01*
X90773959Y-132498019D01*
X90623237Y-132635420D01*
X90500328Y-132798177D01*
X90500323Y-132798186D01*
X90409419Y-132980747D01*
X90409418Y-132980750D01*
X90353603Y-133176917D01*
X90334785Y-133380000D01*
X89650500Y-133380000D01*
X89650500Y-130840000D01*
X90334785Y-130840000D01*
X90353603Y-131043083D01*
X90409418Y-131239250D01*
X90500327Y-131421821D01*
X90623236Y-131584579D01*
X90773959Y-131721981D01*
X90947363Y-131829348D01*
X91137544Y-131903024D01*
X91338024Y-131940500D01*
X91541976Y-131940500D01*
X91742456Y-131903024D01*
X91932637Y-131829348D01*
X92106041Y-131721981D01*
X92256764Y-131584579D01*
X92379673Y-131421821D01*
X92470582Y-131239250D01*
X92526397Y-131043083D01*
X92545215Y-130840000D01*
X115734785Y-130840000D01*
X115753603Y-131043083D01*
X115809418Y-131239250D01*
X115900327Y-131421821D01*
X116023236Y-131584579D01*
X116173959Y-131721981D01*
X116347363Y-131829348D01*
X116537544Y-131903024D01*
X116738024Y-131940500D01*
X116941976Y-131940500D01*
X117142456Y-131903024D01*
X117332637Y-131829348D01*
X117506041Y-131721981D01*
X117656764Y-131584579D01*
X117779673Y-131421821D01*
X117870582Y-131239250D01*
X117926397Y-131043083D01*
X117945215Y-130840000D01*
X117926397Y-130636917D01*
X117870582Y-130440750D01*
X117779673Y-130258179D01*
X117656764Y-130095421D01*
X117506041Y-129958019D01*
X117332637Y-129850652D01*
X117142456Y-129776976D01*
X117142455Y-129776975D01*
X117142453Y-129776975D01*
X116941976Y-129739500D01*
X116738024Y-129739500D01*
X116537546Y-129776975D01*
X116467632Y-129804059D01*
X116347363Y-129850652D01*
X116173959Y-129958019D01*
X116023237Y-130095420D01*
X115900328Y-130258177D01*
X115900323Y-130258186D01*
X115809419Y-130440747D01*
X115809418Y-130440750D01*
X115753603Y-130636917D01*
X115734785Y-130840000D01*
X92545215Y-130840000D01*
X92526397Y-130636917D01*
X92470582Y-130440750D01*
X92379673Y-130258179D01*
X92256764Y-130095421D01*
X92106041Y-129958019D01*
X91932637Y-129850652D01*
X91742456Y-129776976D01*
X91742455Y-129776975D01*
X91742453Y-129776975D01*
X91541976Y-129739500D01*
X91338024Y-129739500D01*
X91137546Y-129776975D01*
X91067632Y-129804059D01*
X90947363Y-129850652D01*
X90773959Y-129958019D01*
X90623237Y-130095420D01*
X90500328Y-130258177D01*
X90500323Y-130258186D01*
X90409419Y-130440747D01*
X90409418Y-130440750D01*
X90353603Y-130636917D01*
X90334785Y-130840000D01*
X89650500Y-130840000D01*
X89650500Y-128550000D01*
X90263504Y-128550000D01*
X90316239Y-128735347D01*
X90415364Y-128934417D01*
X90415369Y-128934426D01*
X90549387Y-129111893D01*
X90549391Y-129111898D01*
X90713744Y-129261725D01*
X90902816Y-129378794D01*
X90902821Y-129378797D01*
X91110200Y-129459136D01*
X91189999Y-129474053D01*
X91190000Y-129474053D01*
X91190000Y-128735501D01*
X91297685Y-128784680D01*
X91404237Y-128800000D01*
X91475763Y-128800000D01*
X91582315Y-128784680D01*
X91690000Y-128735501D01*
X91690000Y-129474053D01*
X91769799Y-129459136D01*
X91977178Y-129378797D01*
X91977183Y-129378794D01*
X92166255Y-129261725D01*
X92330608Y-129111898D01*
X92330612Y-129111893D01*
X92464630Y-128934426D01*
X92464635Y-128934417D01*
X92563760Y-128735347D01*
X92616495Y-128550000D01*
X91873686Y-128550000D01*
X91899493Y-128509844D01*
X91940000Y-128371889D01*
X91940000Y-128300000D01*
X115734785Y-128300000D01*
X115753603Y-128503083D01*
X115809418Y-128699250D01*
X115900327Y-128881821D01*
X116023236Y-129044579D01*
X116173959Y-129181981D01*
X116347363Y-129289348D01*
X116537544Y-129363024D01*
X116738024Y-129400500D01*
X116941976Y-129400500D01*
X117142456Y-129363024D01*
X117332637Y-129289348D01*
X117506041Y-129181981D01*
X117656764Y-129044579D01*
X117779673Y-128881821D01*
X117870582Y-128699250D01*
X117926397Y-128503083D01*
X117945215Y-128300000D01*
X117926397Y-128096917D01*
X117870582Y-127900750D01*
X117779673Y-127718179D01*
X117656764Y-127555421D01*
X117506041Y-127418019D01*
X117332637Y-127310652D01*
X117142456Y-127236976D01*
X117142455Y-127236975D01*
X117142453Y-127236975D01*
X116941976Y-127199500D01*
X116738024Y-127199500D01*
X116537546Y-127236975D01*
X116467632Y-127264059D01*
X116347363Y-127310652D01*
X116173959Y-127418019D01*
X116023237Y-127555420D01*
X115900328Y-127718177D01*
X115900323Y-127718186D01*
X115822216Y-127875048D01*
X115809418Y-127900750D01*
X115753603Y-128096917D01*
X115734785Y-128300000D01*
X91940000Y-128300000D01*
X91940000Y-128228111D01*
X91899493Y-128090156D01*
X91873686Y-128050000D01*
X92616496Y-128050000D01*
X92616495Y-128049999D01*
X92563760Y-127864652D01*
X92464635Y-127665582D01*
X92464630Y-127665573D01*
X92330612Y-127488106D01*
X92330608Y-127488101D01*
X92166255Y-127338274D01*
X91977183Y-127221205D01*
X91977178Y-127221202D01*
X91769802Y-127140864D01*
X91769796Y-127140862D01*
X91690000Y-127125946D01*
X91690000Y-127864498D01*
X91582315Y-127815320D01*
X91475763Y-127800000D01*
X91404237Y-127800000D01*
X91297685Y-127815320D01*
X91190000Y-127864498D01*
X91190000Y-127125946D01*
X91189999Y-127125946D01*
X91110203Y-127140862D01*
X91110197Y-127140864D01*
X90902821Y-127221202D01*
X90902816Y-127221205D01*
X90713744Y-127338274D01*
X90549391Y-127488101D01*
X90549387Y-127488106D01*
X90415369Y-127665573D01*
X90415364Y-127665582D01*
X90316239Y-127864652D01*
X90263504Y-128049999D01*
X90263504Y-128050000D01*
X91006314Y-128050000D01*
X90980507Y-128090156D01*
X90940000Y-128228111D01*
X90940000Y-128371889D01*
X90980507Y-128509844D01*
X91006314Y-128550000D01*
X90263504Y-128550000D01*
X89650500Y-128550000D01*
X89650500Y-125760000D01*
X90334785Y-125760000D01*
X90353603Y-125963083D01*
X90409418Y-126159250D01*
X90500327Y-126341821D01*
X90623236Y-126504579D01*
X90773959Y-126641981D01*
X90947363Y-126749348D01*
X91137544Y-126823024D01*
X91338024Y-126860500D01*
X91541976Y-126860500D01*
X91742456Y-126823024D01*
X91932637Y-126749348D01*
X92106041Y-126641981D01*
X92256764Y-126504579D01*
X92379673Y-126341821D01*
X92470582Y-126159250D01*
X92526397Y-125963083D01*
X92545215Y-125760000D01*
X115734785Y-125760000D01*
X115753603Y-125963083D01*
X115809418Y-126159250D01*
X115900327Y-126341821D01*
X116023236Y-126504579D01*
X116173959Y-126641981D01*
X116347363Y-126749348D01*
X116537544Y-126823024D01*
X116738024Y-126860500D01*
X116941976Y-126860500D01*
X117142456Y-126823024D01*
X117332637Y-126749348D01*
X117506041Y-126641981D01*
X117656764Y-126504579D01*
X117779673Y-126341821D01*
X117870582Y-126159250D01*
X117926397Y-125963083D01*
X117945215Y-125760000D01*
X117926397Y-125556917D01*
X117870582Y-125360750D01*
X117779673Y-125178179D01*
X117656764Y-125015421D01*
X117506041Y-124878019D01*
X117332637Y-124770652D01*
X117142456Y-124696976D01*
X117142455Y-124696975D01*
X117142453Y-124696975D01*
X116941976Y-124659500D01*
X116738024Y-124659500D01*
X116537546Y-124696975D01*
X116467632Y-124724059D01*
X116347363Y-124770652D01*
X116173959Y-124878019D01*
X116023237Y-125015420D01*
X115900328Y-125178177D01*
X115900323Y-125178186D01*
X115809419Y-125360747D01*
X115809418Y-125360750D01*
X115753603Y-125556917D01*
X115734785Y-125760000D01*
X92545215Y-125760000D01*
X92526397Y-125556917D01*
X92470582Y-125360750D01*
X92379673Y-125178179D01*
X92256764Y-125015421D01*
X92106041Y-124878019D01*
X91932637Y-124770652D01*
X91742456Y-124696976D01*
X91742455Y-124696975D01*
X91742453Y-124696975D01*
X91541976Y-124659500D01*
X91338024Y-124659500D01*
X91137546Y-124696975D01*
X91067632Y-124724059D01*
X90947363Y-124770652D01*
X90773959Y-124878019D01*
X90623237Y-125015420D01*
X90500328Y-125178177D01*
X90500323Y-125178186D01*
X90409419Y-125360747D01*
X90409418Y-125360750D01*
X90353603Y-125556917D01*
X90334785Y-125760000D01*
X89650500Y-125760000D01*
X89650500Y-124094672D01*
X90339500Y-124094672D01*
X90339501Y-124094684D01*
X90354033Y-124167736D01*
X90354035Y-124167742D01*
X90409397Y-124250599D01*
X90409399Y-124250601D01*
X90492260Y-124305966D01*
X90547808Y-124317015D01*
X90565315Y-124320498D01*
X90565320Y-124320498D01*
X90565326Y-124320500D01*
X90565327Y-124320500D01*
X92314673Y-124320500D01*
X92314674Y-124320500D01*
X92387740Y-124305966D01*
X92470601Y-124250601D01*
X92525966Y-124167740D01*
X92540500Y-124094674D01*
X92540500Y-124094672D01*
X115739500Y-124094672D01*
X115739501Y-124094684D01*
X115754033Y-124167736D01*
X115754035Y-124167742D01*
X115809397Y-124250599D01*
X115809399Y-124250601D01*
X115892260Y-124305966D01*
X115947808Y-124317015D01*
X115965315Y-124320498D01*
X115965320Y-124320498D01*
X115965326Y-124320500D01*
X115965327Y-124320500D01*
X117714673Y-124320500D01*
X117714674Y-124320500D01*
X117787740Y-124305966D01*
X117870601Y-124250601D01*
X117925966Y-124167740D01*
X117940500Y-124094674D01*
X117940500Y-122345326D01*
X117925966Y-122272260D01*
X117870601Y-122189399D01*
X117870599Y-122189397D01*
X117787742Y-122134035D01*
X117787740Y-122134034D01*
X117787737Y-122134033D01*
X117787736Y-122134033D01*
X117714684Y-122119501D01*
X117714674Y-122119500D01*
X115965326Y-122119500D01*
X115965325Y-122119500D01*
X115965315Y-122119501D01*
X115892263Y-122134033D01*
X115892257Y-122134035D01*
X115809400Y-122189397D01*
X115809397Y-122189400D01*
X115754035Y-122272257D01*
X115754033Y-122272263D01*
X115739501Y-122345315D01*
X115739500Y-122345327D01*
X115739500Y-124094672D01*
X92540500Y-124094672D01*
X92540500Y-122345326D01*
X92525966Y-122272260D01*
X92470601Y-122189399D01*
X92470599Y-122189397D01*
X92387742Y-122134035D01*
X92387740Y-122134034D01*
X92387737Y-122134033D01*
X92387736Y-122134033D01*
X92314684Y-122119501D01*
X92314674Y-122119500D01*
X90565326Y-122119500D01*
X90565325Y-122119500D01*
X90565315Y-122119501D01*
X90492263Y-122134033D01*
X90492257Y-122134035D01*
X90409400Y-122189397D01*
X90409397Y-122189400D01*
X90354035Y-122272257D01*
X90354033Y-122272263D01*
X90339501Y-122345315D01*
X90339500Y-122345327D01*
X90339500Y-124094672D01*
X89650500Y-124094672D01*
X89650500Y-110599500D01*
X89669407Y-110541309D01*
X89718907Y-110505345D01*
X89749500Y-110500500D01*
X121551000Y-110500500D01*
X121609191Y-110519407D01*
G37*
%TD.AperFunction*%
%TD*%
%TA.AperFunction,Conductor*%
%TO.N,GNDP*%
G36*
X135491497Y-110519407D02*
G01*
X135527461Y-110568907D01*
X135527461Y-110630093D01*
X135491497Y-110679593D01*
X135479975Y-110686810D01*
X135413547Y-110722316D01*
X135253595Y-110853585D01*
X135253585Y-110853595D01*
X135122316Y-111013547D01*
X135024768Y-111196045D01*
X134964699Y-111394065D01*
X134964698Y-111394070D01*
X134944417Y-111599996D01*
X134944417Y-111600003D01*
X134964698Y-111805929D01*
X134964699Y-111805934D01*
X135024768Y-112003954D01*
X135122316Y-112186452D01*
X135184280Y-112261955D01*
X135253590Y-112346410D01*
X135253595Y-112346414D01*
X135413547Y-112477683D01*
X135413548Y-112477683D01*
X135413550Y-112477685D01*
X135596046Y-112575232D01*
X135733997Y-112617078D01*
X135794065Y-112635300D01*
X135794071Y-112635301D01*
X135923312Y-112648029D01*
X135948392Y-112650500D01*
X135948393Y-112650500D01*
X137451607Y-112650500D01*
X137451608Y-112650500D01*
X137481554Y-112647550D01*
X137605928Y-112635301D01*
X137605934Y-112635300D01*
X137803954Y-112575232D01*
X137986450Y-112477685D01*
X138146410Y-112346410D01*
X138277685Y-112186450D01*
X138375232Y-112003954D01*
X138435300Y-111805934D01*
X138435301Y-111805929D01*
X138455583Y-111600003D01*
X138455583Y-111599996D01*
X138435301Y-111394070D01*
X138435300Y-111394065D01*
X138414342Y-111324976D01*
X138375232Y-111196046D01*
X138277685Y-111013550D01*
X138146410Y-110853590D01*
X138146404Y-110853585D01*
X137986452Y-110722316D01*
X137920025Y-110686810D01*
X137877619Y-110642704D01*
X137869236Y-110582096D01*
X137898079Y-110528135D01*
X137953130Y-110501434D01*
X137966694Y-110500500D01*
X145550500Y-110500500D01*
X145608691Y-110519407D01*
X145644655Y-110568907D01*
X145649500Y-110599500D01*
X145649500Y-111539096D01*
X145630593Y-111597287D01*
X145581093Y-111633251D01*
X145519907Y-111633251D01*
X145485364Y-111613650D01*
X145337700Y-111484641D01*
X145337696Y-111484638D01*
X145144556Y-111369241D01*
X145144542Y-111369234D01*
X144933898Y-111290179D01*
X144933881Y-111290174D01*
X144712508Y-111250001D01*
X144712496Y-111250000D01*
X144250001Y-111250000D01*
X144250000Y-111250001D01*
X144250000Y-112100000D01*
X143750000Y-112100000D01*
X143750000Y-111250001D01*
X143749999Y-111250000D01*
X143343871Y-111250000D01*
X143343845Y-111250001D01*
X143175909Y-111265115D01*
X143175898Y-111265117D01*
X142959007Y-111324976D01*
X142959000Y-111324979D01*
X142756287Y-111422600D01*
X142574251Y-111554857D01*
X142418764Y-111717483D01*
X142418764Y-111717484D01*
X142294805Y-111905273D01*
X142294802Y-111905277D01*
X142206375Y-112112166D01*
X142206374Y-112112167D01*
X142174915Y-112249999D01*
X142174916Y-112250000D01*
X143084314Y-112250000D01*
X143072359Y-112261955D01*
X143014835Y-112374852D01*
X142995014Y-112500000D01*
X143014835Y-112625148D01*
X143072359Y-112738045D01*
X143084314Y-112750000D01*
X142172449Y-112750000D01*
X142176414Y-112779272D01*
X142245945Y-112993267D01*
X142352565Y-113191401D01*
X142492855Y-113367320D01*
X142662299Y-113515358D01*
X142662303Y-113515361D01*
X142855443Y-113630758D01*
X142855457Y-113630765D01*
X143066101Y-113709820D01*
X143066118Y-113709825D01*
X143287491Y-113749998D01*
X143287504Y-113750000D01*
X143749999Y-113750000D01*
X143750000Y-113749999D01*
X143750000Y-112900000D01*
X144250000Y-112900000D01*
X144250000Y-113749999D01*
X144250001Y-113750000D01*
X144656129Y-113750000D01*
X144656154Y-113749998D01*
X144824090Y-113734884D01*
X144824101Y-113734882D01*
X145040992Y-113675023D01*
X145040999Y-113675020D01*
X145243712Y-113577399D01*
X145425748Y-113445142D01*
X145478943Y-113389505D01*
X145532823Y-113360511D01*
X145593454Y-113368724D01*
X145637679Y-113411007D01*
X145649500Y-113457920D01*
X145649500Y-116987953D01*
X145630593Y-117046144D01*
X145581093Y-117082108D01*
X145519907Y-117082108D01*
X145477339Y-117054650D01*
X145441854Y-117015726D01*
X145378407Y-116946128D01*
X145208255Y-116817634D01*
X145017389Y-116722595D01*
X144812310Y-116664244D01*
X144812312Y-116664244D01*
X144653196Y-116649500D01*
X144653194Y-116649500D01*
X143346806Y-116649500D01*
X143346803Y-116649500D01*
X143187688Y-116664244D01*
X143024574Y-116710655D01*
X142982611Y-116722595D01*
X142982610Y-116722595D01*
X142982608Y-116722596D01*
X142791752Y-116817630D01*
X142791743Y-116817635D01*
X142628225Y-116941119D01*
X142621593Y-116946128D01*
X142621589Y-116946131D01*
X142621586Y-116946135D01*
X142477952Y-117103692D01*
X142477946Y-117103699D01*
X142365705Y-117284975D01*
X142365702Y-117284980D01*
X142288678Y-117483804D01*
X142249500Y-117693390D01*
X142249500Y-117906609D01*
X142288678Y-118116195D01*
X142365702Y-118315019D01*
X142365705Y-118315024D01*
X142477946Y-118496300D01*
X142477952Y-118496307D01*
X142522661Y-118545350D01*
X142621593Y-118653872D01*
X142791745Y-118782366D01*
X142982611Y-118877405D01*
X143187690Y-118935756D01*
X143346806Y-118950500D01*
X143346811Y-118950500D01*
X144653189Y-118950500D01*
X144653194Y-118950500D01*
X144812310Y-118935756D01*
X145017389Y-118877405D01*
X145208255Y-118782366D01*
X145378407Y-118653872D01*
X145477339Y-118545349D01*
X145530514Y-118515084D01*
X145591324Y-118521855D01*
X145636540Y-118563076D01*
X145649500Y-118612046D01*
X145649500Y-119753697D01*
X145630593Y-119811888D01*
X145581093Y-119847852D01*
X145531187Y-119850795D01*
X145524679Y-119849500D01*
X145524674Y-119849500D01*
X142475326Y-119849500D01*
X142475325Y-119849500D01*
X142475315Y-119849501D01*
X142402263Y-119864033D01*
X142402257Y-119864035D01*
X142319400Y-119919397D01*
X142319397Y-119919400D01*
X142264035Y-120002257D01*
X142264033Y-120002263D01*
X142249501Y-120075315D01*
X142249500Y-120075327D01*
X142249500Y-121924672D01*
X142249501Y-121924684D01*
X142264033Y-121997736D01*
X142264035Y-121997742D01*
X142319397Y-122080599D01*
X142319399Y-122080601D01*
X142402260Y-122135966D01*
X142454765Y-122146410D01*
X142475315Y-122150498D01*
X142475320Y-122150498D01*
X142475326Y-122150500D01*
X142475327Y-122150500D01*
X145524673Y-122150500D01*
X145524674Y-122150500D01*
X145531179Y-122149206D01*
X145591941Y-122156393D01*
X145636874Y-122197922D01*
X145649500Y-122246302D01*
X145649500Y-159400500D01*
X145630593Y-159458691D01*
X145581093Y-159494655D01*
X145550500Y-159499500D01*
X126449000Y-159499500D01*
X126390809Y-159480593D01*
X126354845Y-159431093D01*
X126350000Y-159400500D01*
X126350000Y-153750000D01*
X135229528Y-153750000D01*
X135292682Y-153920522D01*
X135292685Y-153920528D01*
X135394890Y-154084500D01*
X135394895Y-154084506D01*
X135528003Y-154224535D01*
X135686578Y-154334908D01*
X135686586Y-154334912D01*
X135864137Y-154411106D01*
X136053396Y-154450000D01*
X136399999Y-154450000D01*
X136400000Y-154449999D01*
X136400000Y-153850000D01*
X136900000Y-153850000D01*
X136900000Y-154449999D01*
X136900001Y-154450000D01*
X137198177Y-154450000D01*
X137342218Y-154435352D01*
X137342220Y-154435351D01*
X137526571Y-154377511D01*
X137526572Y-154377510D01*
X137695501Y-154283747D01*
X137842102Y-154157894D01*
X137842109Y-154157887D01*
X137960370Y-154005106D01*
X138045457Y-153831642D01*
X138066597Y-153750000D01*
X137245581Y-153750000D01*
X137297060Y-153694079D01*
X137343982Y-153587108D01*
X137353628Y-153470698D01*
X137349319Y-153453683D01*
X140795740Y-153453683D01*
X140805755Y-153638407D01*
X140855246Y-153816659D01*
X140855247Y-153816661D01*
X140855250Y-153816667D01*
X140941899Y-153980103D01*
X140941900Y-153980104D01*
X141061661Y-154121098D01*
X141061666Y-154121103D01*
X141208932Y-154233052D01*
X141208934Y-154233053D01*
X141208935Y-154233053D01*
X141208936Y-154233054D01*
X141376833Y-154310732D01*
X141557503Y-154350500D01*
X141557507Y-154350500D01*
X141696112Y-154350500D01*
X141696113Y-154350500D01*
X141833910Y-154335514D01*
X142009221Y-154276444D01*
X142167736Y-154181070D01*
X142302041Y-154053849D01*
X142405858Y-153900730D01*
X142474331Y-153728875D01*
X142504260Y-153546317D01*
X142499238Y-153453683D01*
X143295740Y-153453683D01*
X143305755Y-153638407D01*
X143355246Y-153816659D01*
X143355247Y-153816661D01*
X143355250Y-153816667D01*
X143441899Y-153980103D01*
X143441900Y-153980104D01*
X143561661Y-154121098D01*
X143561666Y-154121103D01*
X143708932Y-154233052D01*
X143708934Y-154233053D01*
X143708935Y-154233053D01*
X143708936Y-154233054D01*
X143876833Y-154310732D01*
X144057503Y-154350500D01*
X144057507Y-154350500D01*
X144196112Y-154350500D01*
X144196113Y-154350500D01*
X144333910Y-154335514D01*
X144509221Y-154276444D01*
X144667736Y-154181070D01*
X144802041Y-154053849D01*
X144905858Y-153900730D01*
X144974331Y-153728875D01*
X145004260Y-153546317D01*
X144994245Y-153361593D01*
X144944754Y-153183341D01*
X144858100Y-153019896D01*
X144795459Y-152946149D01*
X144738338Y-152878901D01*
X144738333Y-152878896D01*
X144591067Y-152766947D01*
X144591065Y-152766946D01*
X144423170Y-152689269D01*
X144423168Y-152689268D01*
X144387033Y-152681314D01*
X144242497Y-152649500D01*
X144103887Y-152649500D01*
X143966090Y-152664486D01*
X143907021Y-152684388D01*
X143790780Y-152723555D01*
X143790777Y-152723556D01*
X143632266Y-152818927D01*
X143632262Y-152818931D01*
X143497960Y-152946149D01*
X143394142Y-153099267D01*
X143325669Y-153271124D01*
X143325669Y-153271125D01*
X143295740Y-153453683D01*
X142499238Y-153453683D01*
X142494245Y-153361593D01*
X142444754Y-153183341D01*
X142358100Y-153019896D01*
X142295459Y-152946149D01*
X142238338Y-152878901D01*
X142238333Y-152878896D01*
X142091067Y-152766947D01*
X142091065Y-152766946D01*
X141923170Y-152689269D01*
X141923168Y-152689268D01*
X141887033Y-152681314D01*
X141742497Y-152649500D01*
X141603887Y-152649500D01*
X141466090Y-152664486D01*
X141407021Y-152684388D01*
X141290780Y-152723555D01*
X141290777Y-152723556D01*
X141132266Y-152818927D01*
X141132262Y-152818931D01*
X140997960Y-152946149D01*
X140894142Y-153099267D01*
X140825669Y-153271124D01*
X140825669Y-153271125D01*
X140795740Y-153453683D01*
X137349319Y-153453683D01*
X137324953Y-153357462D01*
X137261064Y-153259673D01*
X137248636Y-153250000D01*
X138070471Y-153250000D01*
X138070471Y-153249999D01*
X138007317Y-153079477D01*
X138007314Y-153079471D01*
X137905109Y-152915499D01*
X137905104Y-152915493D01*
X137771996Y-152775464D01*
X137613421Y-152665091D01*
X137613413Y-152665087D01*
X137435862Y-152588893D01*
X137246604Y-152550000D01*
X136900001Y-152550000D01*
X136900000Y-152550001D01*
X136900000Y-153150000D01*
X136400000Y-153150000D01*
X136400000Y-152550001D01*
X136399999Y-152550000D01*
X136101823Y-152550000D01*
X135957781Y-152564647D01*
X135957779Y-152564648D01*
X135773428Y-152622488D01*
X135773427Y-152622489D01*
X135604498Y-152716252D01*
X135457897Y-152842105D01*
X135457890Y-152842112D01*
X135339629Y-152994893D01*
X135254542Y-153168357D01*
X135233403Y-153249999D01*
X135233403Y-153250000D01*
X136054419Y-153250000D01*
X136002940Y-153305921D01*
X135956018Y-153412892D01*
X135946372Y-153529302D01*
X135975047Y-153642538D01*
X136038936Y-153740327D01*
X136051364Y-153750000D01*
X135229528Y-153750000D01*
X126350000Y-153750000D01*
X126350000Y-148453683D01*
X135795740Y-148453683D01*
X135805755Y-148638407D01*
X135836739Y-148750001D01*
X135855247Y-148816661D01*
X135855250Y-148816667D01*
X135941899Y-148980103D01*
X135941900Y-148980104D01*
X136061661Y-149121098D01*
X136061666Y-149121103D01*
X136208932Y-149233052D01*
X136208934Y-149233053D01*
X136208935Y-149233053D01*
X136208936Y-149233054D01*
X136376833Y-149310732D01*
X136557503Y-149350500D01*
X136557507Y-149350500D01*
X136696112Y-149350500D01*
X136696113Y-149350500D01*
X136833910Y-149335514D01*
X137009221Y-149276444D01*
X137146276Y-149193982D01*
X137167733Y-149181072D01*
X137167733Y-149181071D01*
X137167736Y-149181070D01*
X137302041Y-149053849D01*
X137305887Y-149048176D01*
X140700000Y-149048176D01*
X140714647Y-149192218D01*
X140714648Y-149192220D01*
X140772488Y-149376571D01*
X140772489Y-149376572D01*
X140866252Y-149545501D01*
X140992105Y-149692102D01*
X140992112Y-149692109D01*
X141144893Y-149810370D01*
X141318362Y-149895460D01*
X141399999Y-149916596D01*
X141400000Y-149916596D01*
X141400000Y-149095581D01*
X141455921Y-149147060D01*
X141562892Y-149193982D01*
X141679302Y-149203628D01*
X141792538Y-149174953D01*
X141890327Y-149111064D01*
X141900000Y-149098635D01*
X141900000Y-149920469D01*
X142070534Y-149857311D01*
X142070540Y-149857308D01*
X142234493Y-149755114D01*
X142234506Y-149755104D01*
X142374535Y-149621996D01*
X142484908Y-149463421D01*
X142484912Y-149463413D01*
X142561106Y-149285862D01*
X142600000Y-149096603D01*
X142600000Y-148750001D01*
X142599999Y-148750000D01*
X142000000Y-148750000D01*
X142000000Y-148250000D01*
X142599999Y-148250000D01*
X142600000Y-148249999D01*
X142600000Y-147951823D01*
X142585352Y-147807781D01*
X142585351Y-147807779D01*
X142527511Y-147623428D01*
X142527510Y-147623427D01*
X142433747Y-147454498D01*
X142307894Y-147307897D01*
X142307887Y-147307890D01*
X142155106Y-147189629D01*
X141981642Y-147104542D01*
X141900000Y-147083403D01*
X141900000Y-147904418D01*
X141844079Y-147852940D01*
X141737108Y-147806018D01*
X141620698Y-147796372D01*
X141507462Y-147825047D01*
X141409673Y-147888936D01*
X141400000Y-147901364D01*
X141400000Y-147079528D01*
X141399999Y-147079528D01*
X141229477Y-147142682D01*
X141229471Y-147142685D01*
X141065499Y-147244890D01*
X141065493Y-147244895D01*
X140925464Y-147378003D01*
X140815091Y-147536578D01*
X140815087Y-147536586D01*
X140738893Y-147714137D01*
X140700000Y-147903396D01*
X140700000Y-148249999D01*
X140700001Y-148250000D01*
X141300000Y-148250000D01*
X141300000Y-148750000D01*
X140700001Y-148750000D01*
X140700000Y-148750001D01*
X140700000Y-149048176D01*
X137305887Y-149048176D01*
X137383829Y-148933219D01*
X137405857Y-148900732D01*
X137414514Y-148879005D01*
X137474331Y-148728875D01*
X137504260Y-148546317D01*
X137494245Y-148361593D01*
X137444754Y-148183341D01*
X137358100Y-148019896D01*
X137238337Y-147878900D01*
X137238333Y-147878896D01*
X137091067Y-147766947D01*
X137091065Y-147766946D01*
X136923170Y-147689269D01*
X136923168Y-147689268D01*
X136887033Y-147681314D01*
X136742497Y-147649500D01*
X136603887Y-147649500D01*
X136466090Y-147664486D01*
X136407021Y-147684388D01*
X136290780Y-147723555D01*
X136290777Y-147723556D01*
X136132266Y-147818927D01*
X136132262Y-147818931D01*
X135997960Y-147946149D01*
X135894142Y-148099267D01*
X135825669Y-148271124D01*
X135825669Y-148271125D01*
X135795740Y-148453683D01*
X126350000Y-148453683D01*
X126350000Y-143453683D01*
X135295740Y-143453683D01*
X135305755Y-143638407D01*
X135355246Y-143816659D01*
X135355247Y-143816661D01*
X135355250Y-143816667D01*
X135441899Y-143980103D01*
X135441900Y-143980104D01*
X135561661Y-144121098D01*
X135561666Y-144121103D01*
X135708932Y-144233052D01*
X135708934Y-144233053D01*
X135708935Y-144233053D01*
X135708936Y-144233054D01*
X135876833Y-144310732D01*
X136057503Y-144350500D01*
X136057507Y-144350500D01*
X137196112Y-144350500D01*
X137196113Y-144350500D01*
X137333910Y-144335514D01*
X137509221Y-144276444D01*
X137667736Y-144181070D01*
X137802041Y-144053849D01*
X137905858Y-143900730D01*
X137974331Y-143728875D01*
X138004260Y-143546317D01*
X137999238Y-143453683D01*
X140795740Y-143453683D01*
X140805755Y-143638407D01*
X140855246Y-143816659D01*
X140855247Y-143816661D01*
X140855250Y-143816667D01*
X140941899Y-143980103D01*
X140941900Y-143980104D01*
X141061661Y-144121098D01*
X141061666Y-144121103D01*
X141208932Y-144233052D01*
X141208934Y-144233053D01*
X141208935Y-144233053D01*
X141208936Y-144233054D01*
X141376833Y-144310732D01*
X141557503Y-144350500D01*
X141557507Y-144350500D01*
X141696112Y-144350500D01*
X141696113Y-144350500D01*
X141833910Y-144335514D01*
X142009221Y-144276444D01*
X142167736Y-144181070D01*
X142302041Y-144053849D01*
X142405858Y-143900730D01*
X142474331Y-143728875D01*
X142504260Y-143546317D01*
X142499238Y-143453683D01*
X143295740Y-143453683D01*
X143305755Y-143638407D01*
X143355246Y-143816659D01*
X143355247Y-143816661D01*
X143355250Y-143816667D01*
X143441899Y-143980103D01*
X143441900Y-143980104D01*
X143561661Y-144121098D01*
X143561666Y-144121103D01*
X143708932Y-144233052D01*
X143708934Y-144233053D01*
X143708935Y-144233053D01*
X143708936Y-144233054D01*
X143876833Y-144310732D01*
X144057503Y-144350500D01*
X144057507Y-144350500D01*
X144196112Y-144350500D01*
X144196113Y-144350500D01*
X144333910Y-144335514D01*
X144509221Y-144276444D01*
X144667736Y-144181070D01*
X144802041Y-144053849D01*
X144905858Y-143900730D01*
X144974331Y-143728875D01*
X145004260Y-143546317D01*
X144994245Y-143361593D01*
X144944754Y-143183341D01*
X144858100Y-143019896D01*
X144738337Y-142878900D01*
X144738333Y-142878896D01*
X144591067Y-142766947D01*
X144591065Y-142766946D01*
X144423170Y-142689269D01*
X144423168Y-142689268D01*
X144387033Y-142681314D01*
X144242497Y-142649500D01*
X144103887Y-142649500D01*
X143966090Y-142664486D01*
X143907021Y-142684388D01*
X143790780Y-142723555D01*
X143790777Y-142723556D01*
X143632266Y-142818927D01*
X143632262Y-142818931D01*
X143497960Y-142946149D01*
X143394142Y-143099267D01*
X143325669Y-143271124D01*
X143325669Y-143271125D01*
X143295740Y-143453683D01*
X142499238Y-143453683D01*
X142494245Y-143361593D01*
X142444754Y-143183341D01*
X142358100Y-143019896D01*
X142238337Y-142878900D01*
X142238333Y-142878896D01*
X142091067Y-142766947D01*
X142091065Y-142766946D01*
X141923170Y-142689269D01*
X141923168Y-142689268D01*
X141887033Y-142681314D01*
X141742497Y-142649500D01*
X141603887Y-142649500D01*
X141466090Y-142664486D01*
X141407021Y-142684388D01*
X141290780Y-142723555D01*
X141290777Y-142723556D01*
X141132266Y-142818927D01*
X141132262Y-142818931D01*
X140997960Y-142946149D01*
X140894142Y-143099267D01*
X140825669Y-143271124D01*
X140825669Y-143271125D01*
X140795740Y-143453683D01*
X137999238Y-143453683D01*
X137994245Y-143361593D01*
X137944754Y-143183341D01*
X137858100Y-143019896D01*
X137738337Y-142878900D01*
X137738333Y-142878896D01*
X137591067Y-142766947D01*
X137591065Y-142766946D01*
X137423170Y-142689269D01*
X137423168Y-142689268D01*
X137387033Y-142681314D01*
X137242497Y-142649500D01*
X136103887Y-142649500D01*
X135966090Y-142664486D01*
X135907021Y-142684388D01*
X135790780Y-142723555D01*
X135790777Y-142723556D01*
X135632266Y-142818927D01*
X135632262Y-142818931D01*
X135497960Y-142946149D01*
X135394142Y-143099267D01*
X135325669Y-143271124D01*
X135325669Y-143271125D01*
X135295740Y-143453683D01*
X126350000Y-143453683D01*
X126350000Y-121400003D01*
X134944417Y-121400003D01*
X134964698Y-121605929D01*
X134964699Y-121605934D01*
X135024768Y-121803954D01*
X135122316Y-121986452D01*
X135199582Y-122080601D01*
X135253590Y-122146410D01*
X135258574Y-122150500D01*
X135413547Y-122277683D01*
X135413548Y-122277683D01*
X135413550Y-122277685D01*
X135596046Y-122375232D01*
X135733997Y-122417078D01*
X135794065Y-122435300D01*
X135794071Y-122435301D01*
X135923312Y-122448029D01*
X135948392Y-122450500D01*
X135948393Y-122450500D01*
X137451607Y-122450500D01*
X137451608Y-122450500D01*
X137481554Y-122447550D01*
X137605928Y-122435301D01*
X137605934Y-122435300D01*
X137803954Y-122375232D01*
X137986450Y-122277685D01*
X138146410Y-122146410D01*
X138277685Y-121986450D01*
X138375232Y-121803954D01*
X138435300Y-121605934D01*
X138435301Y-121605929D01*
X138455583Y-121400003D01*
X138455583Y-121399996D01*
X138435301Y-121194070D01*
X138435300Y-121194065D01*
X138417078Y-121133997D01*
X138375232Y-120996046D01*
X138277685Y-120813550D01*
X138146410Y-120653590D01*
X138146404Y-120653585D01*
X137986452Y-120522316D01*
X137803954Y-120424768D01*
X137605934Y-120364699D01*
X137605928Y-120364698D01*
X137461689Y-120350492D01*
X137451608Y-120349500D01*
X135948392Y-120349500D01*
X135938928Y-120350432D01*
X135794071Y-120364698D01*
X135794065Y-120364699D01*
X135596045Y-120424768D01*
X135413547Y-120522316D01*
X135253595Y-120653585D01*
X135253585Y-120653595D01*
X135122316Y-120813547D01*
X135024768Y-120996045D01*
X134964699Y-121194065D01*
X134964698Y-121194070D01*
X134944417Y-121399996D01*
X134944417Y-121400003D01*
X126350000Y-121400003D01*
X126350000Y-117800003D01*
X136379475Y-117800003D01*
X136399535Y-118029299D01*
X136459113Y-118251650D01*
X136556386Y-118460251D01*
X136556390Y-118460259D01*
X136662671Y-118612046D01*
X136688419Y-118648817D01*
X136851183Y-118811581D01*
X137039738Y-118943608D01*
X137039739Y-118943608D01*
X137039740Y-118943609D01*
X137039748Y-118943613D01*
X137248350Y-119040886D01*
X137248354Y-119040888D01*
X137470693Y-119100463D01*
X137470697Y-119100463D01*
X137470700Y-119100464D01*
X137642557Y-119115500D01*
X137642565Y-119115500D01*
X137757443Y-119115500D01*
X137929299Y-119100464D01*
X137929300Y-119100463D01*
X137929307Y-119100463D01*
X138151646Y-119040888D01*
X138360262Y-118943608D01*
X138548817Y-118811581D01*
X138711581Y-118648817D01*
X138843608Y-118460263D01*
X138940888Y-118251646D01*
X139000463Y-118029307D01*
X139020525Y-117800000D01*
X139000463Y-117570693D01*
X138940888Y-117348354D01*
X138929635Y-117324222D01*
X138843613Y-117139748D01*
X138843609Y-117139740D01*
X138818372Y-117103698D01*
X138711581Y-116951183D01*
X138548817Y-116788419D01*
X138548813Y-116788416D01*
X138548812Y-116788415D01*
X138360259Y-116656390D01*
X138360251Y-116656386D01*
X138151649Y-116559113D01*
X138151650Y-116559113D01*
X138077533Y-116539253D01*
X137929307Y-116499537D01*
X137929306Y-116499536D01*
X137929299Y-116499535D01*
X137757443Y-116484500D01*
X137757435Y-116484500D01*
X137642565Y-116484500D01*
X137642557Y-116484500D01*
X137470700Y-116499535D01*
X137248349Y-116559113D01*
X137039748Y-116656386D01*
X137039740Y-116656390D01*
X136851187Y-116788415D01*
X136688415Y-116951187D01*
X136556391Y-117139738D01*
X136459112Y-117348354D01*
X136399535Y-117570700D01*
X136379475Y-117799996D01*
X136379475Y-117800003D01*
X126350000Y-117800003D01*
X126350000Y-110599500D01*
X126368907Y-110541309D01*
X126418407Y-110505345D01*
X126449000Y-110500500D01*
X135433306Y-110500500D01*
X135491497Y-110519407D01*
G37*
%TD.AperFunction*%
%TD*%
M02*
