%TF.GenerationSoftware,KiCad,Pcbnew,7.0.11+dfsg-1build4*%
%TF.CreationDate,2026-08-27T20:18:35+00:00*%
%TF.ProjectId,af4-trigger-hat,6166342d-7472-4696-9767-65722d686174,D*%
%TF.SameCoordinates,Original*%
%TF.FileFunction,Legend,Top*%
%TF.FilePolarity,Positive*%
%FSLAX46Y46*%
G04 Gerber Fmt 4.6, Leading zero omitted, Abs format (unit mm)*
G04 Created by KiCad (PCBNEW 7.0.11+dfsg-1build4) date 2026-08-27 20:18:35*
%MOMM*%
%LPD*%
G01*
G04 APERTURE LIST*
%ADD10C,0.200000*%
%ADD11C,0.150000*%
%ADD12C,0.240000*%
%ADD13C,0.120000*%
G04 APERTURE END LIST*
D10*
X122150000Y-113500000D02*
X122150000Y-134000000D01*
X125850000Y-140000000D02*
X125850000Y-156500000D01*
X125850000Y-113500000D02*
X125850000Y-134000000D01*
X122150000Y-140000000D02*
X122150000Y-156500000D01*
D11*
X94052381Y-124531009D02*
X94385714Y-124531009D01*
X94528571Y-125054819D02*
X94052381Y-125054819D01*
X94052381Y-125054819D02*
X94052381Y-124054819D01*
X94052381Y-124054819D02*
X94528571Y-124054819D01*
X94861905Y-124054819D02*
X95528571Y-125054819D01*
X95528571Y-124054819D02*
X94861905Y-125054819D01*
X95766667Y-124054819D02*
X96338095Y-124054819D01*
X96052381Y-125054819D02*
X96052381Y-124054819D01*
X97195238Y-125054819D02*
X96623810Y-125054819D01*
X96909524Y-125054819D02*
X96909524Y-124054819D01*
X96909524Y-124054819D02*
X96814286Y-124197676D01*
X96814286Y-124197676D02*
X96719048Y-124292914D01*
X96719048Y-124292914D02*
X96623810Y-124340533D01*
X99685713Y-157362295D02*
X99685713Y-156562295D01*
X100142856Y-157362295D02*
X99799998Y-156905152D01*
X100142856Y-156562295D02*
X99685713Y-157019438D01*
X100485713Y-157286104D02*
X100523808Y-157324200D01*
X100523808Y-157324200D02*
X100485713Y-157362295D01*
X100485713Y-157362295D02*
X100447617Y-157324200D01*
X100447617Y-157324200D02*
X100485713Y-157286104D01*
X100485713Y-157286104D02*
X100485713Y-157362295D01*
X101742855Y-156943247D02*
X101857141Y-156981342D01*
X101857141Y-156981342D02*
X101895236Y-157019438D01*
X101895236Y-157019438D02*
X101933332Y-157095628D01*
X101933332Y-157095628D02*
X101933332Y-157209914D01*
X101933332Y-157209914D02*
X101895236Y-157286104D01*
X101895236Y-157286104D02*
X101857141Y-157324200D01*
X101857141Y-157324200D02*
X101780951Y-157362295D01*
X101780951Y-157362295D02*
X101476189Y-157362295D01*
X101476189Y-157362295D02*
X101476189Y-156562295D01*
X101476189Y-156562295D02*
X101742855Y-156562295D01*
X101742855Y-156562295D02*
X101819046Y-156600390D01*
X101819046Y-156600390D02*
X101857141Y-156638485D01*
X101857141Y-156638485D02*
X101895236Y-156714676D01*
X101895236Y-156714676D02*
X101895236Y-156790866D01*
X101895236Y-156790866D02*
X101857141Y-156867057D01*
X101857141Y-156867057D02*
X101819046Y-156905152D01*
X101819046Y-156905152D02*
X101742855Y-156943247D01*
X101742855Y-156943247D02*
X101476189Y-156943247D01*
X102276189Y-157362295D02*
X102276189Y-156828961D01*
X102276189Y-156981342D02*
X102314284Y-156905152D01*
X102314284Y-156905152D02*
X102352379Y-156867057D01*
X102352379Y-156867057D02*
X102428570Y-156828961D01*
X102428570Y-156828961D02*
X102504760Y-156828961D01*
X102771427Y-157362295D02*
X102771427Y-156828961D01*
X102771427Y-156562295D02*
X102733331Y-156600390D01*
X102733331Y-156600390D02*
X102771427Y-156638485D01*
X102771427Y-156638485D02*
X102809522Y-156600390D01*
X102809522Y-156600390D02*
X102771427Y-156562295D01*
X102771427Y-156562295D02*
X102771427Y-156638485D01*
X103152379Y-156828961D02*
X103152379Y-157362295D01*
X103152379Y-156905152D02*
X103190474Y-156867057D01*
X103190474Y-156867057D02*
X103266664Y-156828961D01*
X103266664Y-156828961D02*
X103380950Y-156828961D01*
X103380950Y-156828961D02*
X103457141Y-156867057D01*
X103457141Y-156867057D02*
X103495236Y-156943247D01*
X103495236Y-156943247D02*
X103495236Y-157362295D01*
X103876189Y-157362295D02*
X103876189Y-156562295D01*
X103952379Y-157057533D02*
X104180951Y-157362295D01*
X104180951Y-156828961D02*
X103876189Y-157133723D01*
X104523808Y-157362295D02*
X104523808Y-156828961D01*
X104523808Y-156905152D02*
X104561903Y-156867057D01*
X104561903Y-156867057D02*
X104638093Y-156828961D01*
X104638093Y-156828961D02*
X104752379Y-156828961D01*
X104752379Y-156828961D02*
X104828570Y-156867057D01*
X104828570Y-156867057D02*
X104866665Y-156943247D01*
X104866665Y-156943247D02*
X104866665Y-157362295D01*
X104866665Y-156943247D02*
X104904760Y-156867057D01*
X104904760Y-156867057D02*
X104980951Y-156828961D01*
X104980951Y-156828961D02*
X105095236Y-156828961D01*
X105095236Y-156828961D02*
X105171427Y-156867057D01*
X105171427Y-156867057D02*
X105209522Y-156943247D01*
X105209522Y-156943247D02*
X105209522Y-157362295D01*
X105933332Y-157362295D02*
X105933332Y-156943247D01*
X105933332Y-156943247D02*
X105895237Y-156867057D01*
X105895237Y-156867057D02*
X105819046Y-156828961D01*
X105819046Y-156828961D02*
X105666665Y-156828961D01*
X105666665Y-156828961D02*
X105590475Y-156867057D01*
X105933332Y-157324200D02*
X105857141Y-157362295D01*
X105857141Y-157362295D02*
X105666665Y-157362295D01*
X105666665Y-157362295D02*
X105590475Y-157324200D01*
X105590475Y-157324200D02*
X105552379Y-157248009D01*
X105552379Y-157248009D02*
X105552379Y-157171819D01*
X105552379Y-157171819D02*
X105590475Y-157095628D01*
X105590475Y-157095628D02*
X105666665Y-157057533D01*
X105666665Y-157057533D02*
X105857141Y-157057533D01*
X105857141Y-157057533D02*
X105933332Y-157019438D01*
X106314285Y-156828961D02*
X106314285Y-157362295D01*
X106314285Y-156905152D02*
X106352380Y-156867057D01*
X106352380Y-156867057D02*
X106428570Y-156828961D01*
X106428570Y-156828961D02*
X106542856Y-156828961D01*
X106542856Y-156828961D02*
X106619047Y-156867057D01*
X106619047Y-156867057D02*
X106657142Y-156943247D01*
X106657142Y-156943247D02*
X106657142Y-157362295D01*
X107609523Y-156638485D02*
X107647619Y-156600390D01*
X107647619Y-156600390D02*
X107723809Y-156562295D01*
X107723809Y-156562295D02*
X107914285Y-156562295D01*
X107914285Y-156562295D02*
X107990476Y-156600390D01*
X107990476Y-156600390D02*
X108028571Y-156638485D01*
X108028571Y-156638485D02*
X108066666Y-156714676D01*
X108066666Y-156714676D02*
X108066666Y-156790866D01*
X108066666Y-156790866D02*
X108028571Y-156905152D01*
X108028571Y-156905152D02*
X107571428Y-157362295D01*
X107571428Y-157362295D02*
X108066666Y-157362295D01*
X108561905Y-156562295D02*
X108638095Y-156562295D01*
X108638095Y-156562295D02*
X108714286Y-156600390D01*
X108714286Y-156600390D02*
X108752381Y-156638485D01*
X108752381Y-156638485D02*
X108790476Y-156714676D01*
X108790476Y-156714676D02*
X108828571Y-156867057D01*
X108828571Y-156867057D02*
X108828571Y-157057533D01*
X108828571Y-157057533D02*
X108790476Y-157209914D01*
X108790476Y-157209914D02*
X108752381Y-157286104D01*
X108752381Y-157286104D02*
X108714286Y-157324200D01*
X108714286Y-157324200D02*
X108638095Y-157362295D01*
X108638095Y-157362295D02*
X108561905Y-157362295D01*
X108561905Y-157362295D02*
X108485714Y-157324200D01*
X108485714Y-157324200D02*
X108447619Y-157286104D01*
X108447619Y-157286104D02*
X108409524Y-157209914D01*
X108409524Y-157209914D02*
X108371428Y-157057533D01*
X108371428Y-157057533D02*
X108371428Y-156867057D01*
X108371428Y-156867057D02*
X108409524Y-156714676D01*
X108409524Y-156714676D02*
X108447619Y-156638485D01*
X108447619Y-156638485D02*
X108485714Y-156600390D01*
X108485714Y-156600390D02*
X108561905Y-156562295D01*
X109133333Y-156638485D02*
X109171429Y-156600390D01*
X109171429Y-156600390D02*
X109247619Y-156562295D01*
X109247619Y-156562295D02*
X109438095Y-156562295D01*
X109438095Y-156562295D02*
X109514286Y-156600390D01*
X109514286Y-156600390D02*
X109552381Y-156638485D01*
X109552381Y-156638485D02*
X109590476Y-156714676D01*
X109590476Y-156714676D02*
X109590476Y-156790866D01*
X109590476Y-156790866D02*
X109552381Y-156905152D01*
X109552381Y-156905152D02*
X109095238Y-157362295D01*
X109095238Y-157362295D02*
X109590476Y-157362295D01*
X110276191Y-156562295D02*
X110123810Y-156562295D01*
X110123810Y-156562295D02*
X110047619Y-156600390D01*
X110047619Y-156600390D02*
X110009524Y-156638485D01*
X110009524Y-156638485D02*
X109933334Y-156752771D01*
X109933334Y-156752771D02*
X109895238Y-156905152D01*
X109895238Y-156905152D02*
X109895238Y-157209914D01*
X109895238Y-157209914D02*
X109933334Y-157286104D01*
X109933334Y-157286104D02*
X109971429Y-157324200D01*
X109971429Y-157324200D02*
X110047619Y-157362295D01*
X110047619Y-157362295D02*
X110200000Y-157362295D01*
X110200000Y-157362295D02*
X110276191Y-157324200D01*
X110276191Y-157324200D02*
X110314286Y-157286104D01*
X110314286Y-157286104D02*
X110352381Y-157209914D01*
X110352381Y-157209914D02*
X110352381Y-157019438D01*
X110352381Y-157019438D02*
X110314286Y-156943247D01*
X110314286Y-156943247D02*
X110276191Y-156905152D01*
X110276191Y-156905152D02*
X110200000Y-156867057D01*
X110200000Y-156867057D02*
X110047619Y-156867057D01*
X110047619Y-156867057D02*
X109971429Y-156905152D01*
X109971429Y-156905152D02*
X109933334Y-156943247D01*
X109933334Y-156943247D02*
X109895238Y-157019438D01*
X110989285Y-121939164D02*
X110989285Y-121189164D01*
X110989285Y-121189164D02*
X111274999Y-121189164D01*
X111274999Y-121189164D02*
X111346428Y-121224878D01*
X111346428Y-121224878D02*
X111382142Y-121260592D01*
X111382142Y-121260592D02*
X111417856Y-121332021D01*
X111417856Y-121332021D02*
X111417856Y-121439164D01*
X111417856Y-121439164D02*
X111382142Y-121510592D01*
X111382142Y-121510592D02*
X111346428Y-121546307D01*
X111346428Y-121546307D02*
X111274999Y-121582021D01*
X111274999Y-121582021D02*
X110989285Y-121582021D01*
X111739285Y-121939164D02*
X111739285Y-121189164D01*
X112096428Y-121939164D02*
X112096428Y-121189164D01*
X112096428Y-121189164D02*
X112524999Y-121939164D01*
X112524999Y-121939164D02*
X112524999Y-121189164D01*
X113846428Y-121939164D02*
X113417857Y-121939164D01*
X113632142Y-121939164D02*
X113632142Y-121189164D01*
X113632142Y-121189164D02*
X113560714Y-121296307D01*
X113560714Y-121296307D02*
X113489285Y-121367735D01*
X113489285Y-121367735D02*
X113417857Y-121403450D01*
X124362295Y-133599998D02*
X123562295Y-133599998D01*
X124324200Y-133257142D02*
X124362295Y-133142856D01*
X124362295Y-133142856D02*
X124362295Y-132952380D01*
X124362295Y-132952380D02*
X124324200Y-132876189D01*
X124324200Y-132876189D02*
X124286104Y-132838094D01*
X124286104Y-132838094D02*
X124209914Y-132799999D01*
X124209914Y-132799999D02*
X124133723Y-132799999D01*
X124133723Y-132799999D02*
X124057533Y-132838094D01*
X124057533Y-132838094D02*
X124019438Y-132876189D01*
X124019438Y-132876189D02*
X123981342Y-132952380D01*
X123981342Y-132952380D02*
X123943247Y-133104761D01*
X123943247Y-133104761D02*
X123905152Y-133180951D01*
X123905152Y-133180951D02*
X123867057Y-133219046D01*
X123867057Y-133219046D02*
X123790866Y-133257142D01*
X123790866Y-133257142D02*
X123714676Y-133257142D01*
X123714676Y-133257142D02*
X123638485Y-133219046D01*
X123638485Y-133219046D02*
X123600390Y-133180951D01*
X123600390Y-133180951D02*
X123562295Y-133104761D01*
X123562295Y-133104761D02*
X123562295Y-132914284D01*
X123562295Y-132914284D02*
X123600390Y-132799999D01*
X123562295Y-132304760D02*
X123562295Y-132152379D01*
X123562295Y-132152379D02*
X123600390Y-132076189D01*
X123600390Y-132076189D02*
X123676580Y-131999998D01*
X123676580Y-131999998D02*
X123828961Y-131961903D01*
X123828961Y-131961903D02*
X124095628Y-131961903D01*
X124095628Y-131961903D02*
X124248009Y-131999998D01*
X124248009Y-131999998D02*
X124324200Y-132076189D01*
X124324200Y-132076189D02*
X124362295Y-132152379D01*
X124362295Y-132152379D02*
X124362295Y-132304760D01*
X124362295Y-132304760D02*
X124324200Y-132380951D01*
X124324200Y-132380951D02*
X124248009Y-132457141D01*
X124248009Y-132457141D02*
X124095628Y-132495237D01*
X124095628Y-132495237D02*
X123828961Y-132495237D01*
X123828961Y-132495237D02*
X123676580Y-132457141D01*
X123676580Y-132457141D02*
X123600390Y-132380951D01*
X123600390Y-132380951D02*
X123562295Y-132304760D01*
X124362295Y-131238094D02*
X124362295Y-131619046D01*
X124362295Y-131619046D02*
X123562295Y-131619046D01*
X124133723Y-131009523D02*
X124133723Y-130628570D01*
X124362295Y-131085713D02*
X123562295Y-130819046D01*
X123562295Y-130819046D02*
X124362295Y-130552380D01*
X123562295Y-130399999D02*
X123562295Y-129942856D01*
X124362295Y-130171428D02*
X123562295Y-130171428D01*
X124362295Y-129676189D02*
X123562295Y-129676189D01*
X123562295Y-129142856D02*
X123562295Y-128990475D01*
X123562295Y-128990475D02*
X123600390Y-128914285D01*
X123600390Y-128914285D02*
X123676580Y-128838094D01*
X123676580Y-128838094D02*
X123828961Y-128799999D01*
X123828961Y-128799999D02*
X124095628Y-128799999D01*
X124095628Y-128799999D02*
X124248009Y-128838094D01*
X124248009Y-128838094D02*
X124324200Y-128914285D01*
X124324200Y-128914285D02*
X124362295Y-128990475D01*
X124362295Y-128990475D02*
X124362295Y-129142856D01*
X124362295Y-129142856D02*
X124324200Y-129219047D01*
X124324200Y-129219047D02*
X124248009Y-129295237D01*
X124248009Y-129295237D02*
X124095628Y-129333333D01*
X124095628Y-129333333D02*
X123828961Y-129333333D01*
X123828961Y-129333333D02*
X123676580Y-129295237D01*
X123676580Y-129295237D02*
X123600390Y-129219047D01*
X123600390Y-129219047D02*
X123562295Y-129142856D01*
X124362295Y-128457142D02*
X123562295Y-128457142D01*
X123562295Y-128457142D02*
X124362295Y-127999999D01*
X124362295Y-127999999D02*
X123562295Y-127999999D01*
X123943247Y-126742857D02*
X123981342Y-126628571D01*
X123981342Y-126628571D02*
X124019438Y-126590476D01*
X124019438Y-126590476D02*
X124095628Y-126552380D01*
X124095628Y-126552380D02*
X124209914Y-126552380D01*
X124209914Y-126552380D02*
X124286104Y-126590476D01*
X124286104Y-126590476D02*
X124324200Y-126628571D01*
X124324200Y-126628571D02*
X124362295Y-126704761D01*
X124362295Y-126704761D02*
X124362295Y-127009523D01*
X124362295Y-127009523D02*
X123562295Y-127009523D01*
X123562295Y-127009523D02*
X123562295Y-126742857D01*
X123562295Y-126742857D02*
X123600390Y-126666666D01*
X123600390Y-126666666D02*
X123638485Y-126628571D01*
X123638485Y-126628571D02*
X123714676Y-126590476D01*
X123714676Y-126590476D02*
X123790866Y-126590476D01*
X123790866Y-126590476D02*
X123867057Y-126628571D01*
X123867057Y-126628571D02*
X123905152Y-126666666D01*
X123905152Y-126666666D02*
X123943247Y-126742857D01*
X123943247Y-126742857D02*
X123943247Y-127009523D01*
X124133723Y-126247619D02*
X124133723Y-125866666D01*
X124362295Y-126323809D02*
X123562295Y-126057142D01*
X123562295Y-126057142D02*
X124362295Y-125790476D01*
X124362295Y-125066666D02*
X123981342Y-125333333D01*
X124362295Y-125523809D02*
X123562295Y-125523809D01*
X123562295Y-125523809D02*
X123562295Y-125219047D01*
X123562295Y-125219047D02*
X123600390Y-125142857D01*
X123600390Y-125142857D02*
X123638485Y-125104762D01*
X123638485Y-125104762D02*
X123714676Y-125066666D01*
X123714676Y-125066666D02*
X123828961Y-125066666D01*
X123828961Y-125066666D02*
X123905152Y-125104762D01*
X123905152Y-125104762D02*
X123943247Y-125142857D01*
X123943247Y-125142857D02*
X123981342Y-125219047D01*
X123981342Y-125219047D02*
X123981342Y-125523809D01*
X124362295Y-124266666D02*
X123981342Y-124533333D01*
X124362295Y-124723809D02*
X123562295Y-124723809D01*
X123562295Y-124723809D02*
X123562295Y-124419047D01*
X123562295Y-124419047D02*
X123600390Y-124342857D01*
X123600390Y-124342857D02*
X123638485Y-124304762D01*
X123638485Y-124304762D02*
X123714676Y-124266666D01*
X123714676Y-124266666D02*
X123828961Y-124266666D01*
X123828961Y-124266666D02*
X123905152Y-124304762D01*
X123905152Y-124304762D02*
X123943247Y-124342857D01*
X123943247Y-124342857D02*
X123981342Y-124419047D01*
X123981342Y-124419047D02*
X123981342Y-124723809D01*
X124362295Y-123923809D02*
X123562295Y-123923809D01*
X123943247Y-123542857D02*
X123943247Y-123276191D01*
X124362295Y-123161905D02*
X124362295Y-123542857D01*
X124362295Y-123542857D02*
X123562295Y-123542857D01*
X123562295Y-123542857D02*
X123562295Y-123161905D01*
X124362295Y-122361904D02*
X123981342Y-122628571D01*
X124362295Y-122819047D02*
X123562295Y-122819047D01*
X123562295Y-122819047D02*
X123562295Y-122514285D01*
X123562295Y-122514285D02*
X123600390Y-122438095D01*
X123600390Y-122438095D02*
X123638485Y-122400000D01*
X123638485Y-122400000D02*
X123714676Y-122361904D01*
X123714676Y-122361904D02*
X123828961Y-122361904D01*
X123828961Y-122361904D02*
X123905152Y-122400000D01*
X123905152Y-122400000D02*
X123943247Y-122438095D01*
X123943247Y-122438095D02*
X123981342Y-122514285D01*
X123981342Y-122514285D02*
X123981342Y-122819047D01*
X97103572Y-116985427D02*
X97103572Y-116418760D01*
X97103572Y-116580665D02*
X97144049Y-116499712D01*
X97144049Y-116499712D02*
X97184525Y-116459236D01*
X97184525Y-116459236D02*
X97265477Y-116418760D01*
X97265477Y-116418760D02*
X97346430Y-116418760D01*
X97953572Y-116944951D02*
X97872620Y-116985427D01*
X97872620Y-116985427D02*
X97710715Y-116985427D01*
X97710715Y-116985427D02*
X97629762Y-116944951D01*
X97629762Y-116944951D02*
X97589286Y-116863998D01*
X97589286Y-116863998D02*
X97589286Y-116540189D01*
X97589286Y-116540189D02*
X97629762Y-116459236D01*
X97629762Y-116459236D02*
X97710715Y-116418760D01*
X97710715Y-116418760D02*
X97872620Y-116418760D01*
X97872620Y-116418760D02*
X97953572Y-116459236D01*
X97953572Y-116459236D02*
X97994048Y-116540189D01*
X97994048Y-116540189D02*
X97994048Y-116621141D01*
X97994048Y-116621141D02*
X97589286Y-116702093D01*
X98277381Y-116418760D02*
X98479762Y-116985427D01*
X98479762Y-116985427D02*
X98682143Y-116418760D01*
X99653571Y-116985427D02*
X99653571Y-116135427D01*
X99653571Y-116135427D02*
X99855952Y-116135427D01*
X99855952Y-116135427D02*
X99977381Y-116175903D01*
X99977381Y-116175903D02*
X100058333Y-116256855D01*
X100058333Y-116256855D02*
X100098810Y-116337808D01*
X100098810Y-116337808D02*
X100139286Y-116499712D01*
X100139286Y-116499712D02*
X100139286Y-116621141D01*
X100139286Y-116621141D02*
X100098810Y-116783046D01*
X100098810Y-116783046D02*
X100058333Y-116863998D01*
X100058333Y-116863998D02*
X99977381Y-116944951D01*
X99977381Y-116944951D02*
X99855952Y-116985427D01*
X99855952Y-116985427D02*
X99653571Y-116985427D01*
X103094047Y-116985427D02*
X103094047Y-116418760D01*
X103094047Y-116135427D02*
X103053571Y-116175903D01*
X103053571Y-116175903D02*
X103094047Y-116216379D01*
X103094047Y-116216379D02*
X103134524Y-116175903D01*
X103134524Y-116175903D02*
X103094047Y-116135427D01*
X103094047Y-116135427D02*
X103094047Y-116216379D01*
X103498809Y-116418760D02*
X103498809Y-116985427D01*
X103498809Y-116499712D02*
X103539286Y-116459236D01*
X103539286Y-116459236D02*
X103620238Y-116418760D01*
X103620238Y-116418760D02*
X103741667Y-116418760D01*
X103741667Y-116418760D02*
X103822619Y-116459236D01*
X103822619Y-116459236D02*
X103863095Y-116540189D01*
X103863095Y-116540189D02*
X103863095Y-116985427D01*
X104267857Y-116985427D02*
X104267857Y-116135427D01*
X104267857Y-116135427D02*
X104470238Y-116135427D01*
X104470238Y-116135427D02*
X104591667Y-116175903D01*
X104591667Y-116175903D02*
X104672619Y-116256855D01*
X104672619Y-116256855D02*
X104713096Y-116337808D01*
X104713096Y-116337808D02*
X104753572Y-116499712D01*
X104753572Y-116499712D02*
X104753572Y-116621141D01*
X104753572Y-116621141D02*
X104713096Y-116783046D01*
X104713096Y-116783046D02*
X104672619Y-116863998D01*
X104672619Y-116863998D02*
X104591667Y-116944951D01*
X104591667Y-116944951D02*
X104470238Y-116985427D01*
X104470238Y-116985427D02*
X104267857Y-116985427D01*
X106129762Y-116985427D02*
X106129762Y-116540189D01*
X106129762Y-116540189D02*
X106089286Y-116459236D01*
X106089286Y-116459236D02*
X106008334Y-116418760D01*
X106008334Y-116418760D02*
X105846429Y-116418760D01*
X105846429Y-116418760D02*
X105765476Y-116459236D01*
X106129762Y-116944951D02*
X106048810Y-116985427D01*
X106048810Y-116985427D02*
X105846429Y-116985427D01*
X105846429Y-116985427D02*
X105765476Y-116944951D01*
X105765476Y-116944951D02*
X105725000Y-116863998D01*
X105725000Y-116863998D02*
X105725000Y-116783046D01*
X105725000Y-116783046D02*
X105765476Y-116702093D01*
X105765476Y-116702093D02*
X105846429Y-116661617D01*
X105846429Y-116661617D02*
X106048810Y-116661617D01*
X106048810Y-116661617D02*
X106129762Y-116621141D01*
X106817858Y-116540189D02*
X106534524Y-116540189D01*
X106534524Y-116985427D02*
X106534524Y-116135427D01*
X106534524Y-116135427D02*
X106939286Y-116135427D01*
X107627381Y-116418760D02*
X107627381Y-116985427D01*
X107425000Y-116094951D02*
X107222619Y-116702093D01*
X107222619Y-116702093D02*
X107748810Y-116702093D01*
X108598810Y-116418760D02*
X108922619Y-116418760D01*
X108720238Y-116985427D02*
X108720238Y-116256855D01*
X108720238Y-116256855D02*
X108760715Y-116175903D01*
X108760715Y-116175903D02*
X108841667Y-116135427D01*
X108841667Y-116135427D02*
X108922619Y-116135427D01*
X109205952Y-116985427D02*
X109205952Y-116418760D01*
X109205952Y-116580665D02*
X109246429Y-116499712D01*
X109246429Y-116499712D02*
X109286905Y-116459236D01*
X109286905Y-116459236D02*
X109367857Y-116418760D01*
X109367857Y-116418760D02*
X109448810Y-116418760D01*
X109853571Y-116985427D02*
X109772619Y-116944951D01*
X109772619Y-116944951D02*
X109732142Y-116904474D01*
X109732142Y-116904474D02*
X109691666Y-116823522D01*
X109691666Y-116823522D02*
X109691666Y-116580665D01*
X109691666Y-116580665D02*
X109732142Y-116499712D01*
X109732142Y-116499712D02*
X109772619Y-116459236D01*
X109772619Y-116459236D02*
X109853571Y-116418760D01*
X109853571Y-116418760D02*
X109975000Y-116418760D01*
X109975000Y-116418760D02*
X110055952Y-116459236D01*
X110055952Y-116459236D02*
X110096428Y-116499712D01*
X110096428Y-116499712D02*
X110136904Y-116580665D01*
X110136904Y-116580665D02*
X110136904Y-116823522D01*
X110136904Y-116823522D02*
X110096428Y-116904474D01*
X110096428Y-116904474D02*
X110055952Y-116944951D01*
X110055952Y-116944951D02*
X109975000Y-116985427D01*
X109975000Y-116985427D02*
X109853571Y-116985427D01*
X110420238Y-116418760D02*
X110865476Y-116418760D01*
X110865476Y-116418760D02*
X110420238Y-116985427D01*
X110420238Y-116985427D02*
X110865476Y-116985427D01*
X111513095Y-116944951D02*
X111432143Y-116985427D01*
X111432143Y-116985427D02*
X111270238Y-116985427D01*
X111270238Y-116985427D02*
X111189285Y-116944951D01*
X111189285Y-116944951D02*
X111148809Y-116863998D01*
X111148809Y-116863998D02*
X111148809Y-116540189D01*
X111148809Y-116540189D02*
X111189285Y-116459236D01*
X111189285Y-116459236D02*
X111270238Y-116418760D01*
X111270238Y-116418760D02*
X111432143Y-116418760D01*
X111432143Y-116418760D02*
X111513095Y-116459236D01*
X111513095Y-116459236D02*
X111553571Y-116540189D01*
X111553571Y-116540189D02*
X111553571Y-116621141D01*
X111553571Y-116621141D02*
X111148809Y-116702093D01*
X111917856Y-116418760D02*
X111917856Y-116985427D01*
X111917856Y-116499712D02*
X111958333Y-116459236D01*
X111958333Y-116459236D02*
X112039285Y-116418760D01*
X112039285Y-116418760D02*
X112160714Y-116418760D01*
X112160714Y-116418760D02*
X112241666Y-116459236D01*
X112241666Y-116459236D02*
X112282142Y-116540189D01*
X112282142Y-116540189D02*
X112282142Y-116985427D01*
X113213095Y-116418760D02*
X113536904Y-116418760D01*
X113334523Y-116985427D02*
X113334523Y-116256855D01*
X113334523Y-116256855D02*
X113375000Y-116175903D01*
X113375000Y-116175903D02*
X113455952Y-116135427D01*
X113455952Y-116135427D02*
X113536904Y-116135427D01*
X114144047Y-116944951D02*
X114063095Y-116985427D01*
X114063095Y-116985427D02*
X113901190Y-116985427D01*
X113901190Y-116985427D02*
X113820237Y-116944951D01*
X113820237Y-116944951D02*
X113779761Y-116863998D01*
X113779761Y-116863998D02*
X113779761Y-116540189D01*
X113779761Y-116540189D02*
X113820237Y-116459236D01*
X113820237Y-116459236D02*
X113901190Y-116418760D01*
X113901190Y-116418760D02*
X114063095Y-116418760D01*
X114063095Y-116418760D02*
X114144047Y-116459236D01*
X114144047Y-116459236D02*
X114184523Y-116540189D01*
X114184523Y-116540189D02*
X114184523Y-116621141D01*
X114184523Y-116621141D02*
X113779761Y-116702093D01*
X114872618Y-116944951D02*
X114791666Y-116985427D01*
X114791666Y-116985427D02*
X114629761Y-116985427D01*
X114629761Y-116985427D02*
X114548808Y-116944951D01*
X114548808Y-116944951D02*
X114508332Y-116863998D01*
X114508332Y-116863998D02*
X114508332Y-116540189D01*
X114508332Y-116540189D02*
X114548808Y-116459236D01*
X114548808Y-116459236D02*
X114629761Y-116418760D01*
X114629761Y-116418760D02*
X114791666Y-116418760D01*
X114791666Y-116418760D02*
X114872618Y-116459236D01*
X114872618Y-116459236D02*
X114913094Y-116540189D01*
X114913094Y-116540189D02*
X114913094Y-116621141D01*
X114913094Y-116621141D02*
X114508332Y-116702093D01*
X115641665Y-116985427D02*
X115641665Y-116135427D01*
X115641665Y-116944951D02*
X115560713Y-116985427D01*
X115560713Y-116985427D02*
X115398808Y-116985427D01*
X115398808Y-116985427D02*
X115317856Y-116944951D01*
X115317856Y-116944951D02*
X115277379Y-116904474D01*
X115277379Y-116904474D02*
X115236903Y-116823522D01*
X115236903Y-116823522D02*
X115236903Y-116580665D01*
X115236903Y-116580665D02*
X115277379Y-116499712D01*
X115277379Y-116499712D02*
X115317856Y-116459236D01*
X115317856Y-116459236D02*
X115398808Y-116418760D01*
X115398808Y-116418760D02*
X115560713Y-116418760D01*
X115560713Y-116418760D02*
X115641665Y-116459236D01*
X116370237Y-116944951D02*
X116289285Y-116985427D01*
X116289285Y-116985427D02*
X116127380Y-116985427D01*
X116127380Y-116985427D02*
X116046427Y-116944951D01*
X116046427Y-116944951D02*
X116005951Y-116863998D01*
X116005951Y-116863998D02*
X116005951Y-116540189D01*
X116005951Y-116540189D02*
X116046427Y-116459236D01*
X116046427Y-116459236D02*
X116127380Y-116418760D01*
X116127380Y-116418760D02*
X116289285Y-116418760D01*
X116289285Y-116418760D02*
X116370237Y-116459236D01*
X116370237Y-116459236D02*
X116410713Y-116540189D01*
X116410713Y-116540189D02*
X116410713Y-116621141D01*
X116410713Y-116621141D02*
X116005951Y-116702093D01*
X116774998Y-116985427D02*
X116774998Y-116418760D01*
X116774998Y-116580665D02*
X116815475Y-116499712D01*
X116815475Y-116499712D02*
X116855951Y-116459236D01*
X116855951Y-116459236D02*
X116936903Y-116418760D01*
X116936903Y-116418760D02*
X117017856Y-116418760D01*
X94189285Y-121939164D02*
X94189285Y-121189164D01*
X94189285Y-121189164D02*
X94474999Y-121189164D01*
X94474999Y-121189164D02*
X94546428Y-121224878D01*
X94546428Y-121224878D02*
X94582142Y-121260592D01*
X94582142Y-121260592D02*
X94617856Y-121332021D01*
X94617856Y-121332021D02*
X94617856Y-121439164D01*
X94617856Y-121439164D02*
X94582142Y-121510592D01*
X94582142Y-121510592D02*
X94546428Y-121546307D01*
X94546428Y-121546307D02*
X94474999Y-121582021D01*
X94474999Y-121582021D02*
X94189285Y-121582021D01*
X94939285Y-121939164D02*
X94939285Y-121189164D01*
X95296428Y-121939164D02*
X95296428Y-121189164D01*
X95296428Y-121189164D02*
X95724999Y-121939164D01*
X95724999Y-121939164D02*
X95724999Y-121189164D01*
X97046428Y-121939164D02*
X96617857Y-121939164D01*
X96832142Y-121939164D02*
X96832142Y-121189164D01*
X96832142Y-121189164D02*
X96760714Y-121296307D01*
X96760714Y-121296307D02*
X96689285Y-121367735D01*
X96689285Y-121367735D02*
X96617857Y-121403450D01*
X110852381Y-124531009D02*
X111185714Y-124531009D01*
X111328571Y-125054819D02*
X110852381Y-125054819D01*
X110852381Y-125054819D02*
X110852381Y-124054819D01*
X110852381Y-124054819D02*
X111328571Y-124054819D01*
X111661905Y-124054819D02*
X112328571Y-125054819D01*
X112328571Y-124054819D02*
X111661905Y-125054819D01*
X112566667Y-124054819D02*
X113138095Y-124054819D01*
X112852381Y-125054819D02*
X112852381Y-124054819D01*
X113423810Y-124150057D02*
X113471429Y-124102438D01*
X113471429Y-124102438D02*
X113566667Y-124054819D01*
X113566667Y-124054819D02*
X113804762Y-124054819D01*
X113804762Y-124054819D02*
X113900000Y-124102438D01*
X113900000Y-124102438D02*
X113947619Y-124150057D01*
X113947619Y-124150057D02*
X113995238Y-124245295D01*
X113995238Y-124245295D02*
X113995238Y-124340533D01*
X113995238Y-124340533D02*
X113947619Y-124483390D01*
X113947619Y-124483390D02*
X113376191Y-125054819D01*
X113376191Y-125054819D02*
X113995238Y-125054819D01*
X99636904Y-128575903D02*
X99555951Y-128535427D01*
X99555951Y-128535427D02*
X99434523Y-128535427D01*
X99434523Y-128535427D02*
X99313094Y-128575903D01*
X99313094Y-128575903D02*
X99232142Y-128656855D01*
X99232142Y-128656855D02*
X99191665Y-128737808D01*
X99191665Y-128737808D02*
X99151189Y-128899712D01*
X99151189Y-128899712D02*
X99151189Y-129021141D01*
X99151189Y-129021141D02*
X99191665Y-129183046D01*
X99191665Y-129183046D02*
X99232142Y-129263998D01*
X99232142Y-129263998D02*
X99313094Y-129344951D01*
X99313094Y-129344951D02*
X99434523Y-129385427D01*
X99434523Y-129385427D02*
X99515475Y-129385427D01*
X99515475Y-129385427D02*
X99636904Y-129344951D01*
X99636904Y-129344951D02*
X99677380Y-129304474D01*
X99677380Y-129304474D02*
X99677380Y-129021141D01*
X99677380Y-129021141D02*
X99515475Y-129021141D01*
X100041665Y-129385427D02*
X100041665Y-128535427D01*
X100041665Y-128535427D02*
X100527380Y-129385427D01*
X100527380Y-129385427D02*
X100527380Y-128535427D01*
X100932141Y-129385427D02*
X100932141Y-128535427D01*
X100932141Y-128535427D02*
X101134522Y-128535427D01*
X101134522Y-128535427D02*
X101255951Y-128575903D01*
X101255951Y-128575903D02*
X101336903Y-128656855D01*
X101336903Y-128656855D02*
X101377380Y-128737808D01*
X101377380Y-128737808D02*
X101417856Y-128899712D01*
X101417856Y-128899712D02*
X101417856Y-129021141D01*
X101417856Y-129021141D02*
X101377380Y-129183046D01*
X101377380Y-129183046D02*
X101336903Y-129263998D01*
X101336903Y-129263998D02*
X101255951Y-129344951D01*
X101255951Y-129344951D02*
X101134522Y-129385427D01*
X101134522Y-129385427D02*
X100932141Y-129385427D01*
X102429760Y-128940189D02*
X103077380Y-128940189D01*
X103077380Y-129183046D02*
X102429760Y-129183046D01*
X104129760Y-128940189D02*
X104413094Y-128940189D01*
X104534522Y-129385427D02*
X104129760Y-129385427D01*
X104129760Y-129385427D02*
X104129760Y-128535427D01*
X104129760Y-128535427D02*
X104534522Y-128535427D01*
X104817856Y-128535427D02*
X105384523Y-129385427D01*
X105384523Y-128535427D02*
X104817856Y-129385427D01*
X105586904Y-128535427D02*
X106072618Y-128535427D01*
X105829761Y-129385427D02*
X105829761Y-128535427D01*
X106801190Y-129385427D02*
X106315475Y-129385427D01*
X106558332Y-129385427D02*
X106558332Y-128535427D01*
X106558332Y-128535427D02*
X106477380Y-128656855D01*
X106477380Y-128656855D02*
X106396428Y-128737808D01*
X106396428Y-128737808D02*
X106315475Y-128778284D01*
X107813094Y-128818760D02*
X107813094Y-129668760D01*
X107813094Y-128859236D02*
X107894047Y-128818760D01*
X107894047Y-128818760D02*
X108055952Y-128818760D01*
X108055952Y-128818760D02*
X108136904Y-128859236D01*
X108136904Y-128859236D02*
X108177380Y-128899712D01*
X108177380Y-128899712D02*
X108217856Y-128980665D01*
X108217856Y-128980665D02*
X108217856Y-129223522D01*
X108217856Y-129223522D02*
X108177380Y-129304474D01*
X108177380Y-129304474D02*
X108136904Y-129344951D01*
X108136904Y-129344951D02*
X108055952Y-129385427D01*
X108055952Y-129385427D02*
X107894047Y-129385427D01*
X107894047Y-129385427D02*
X107813094Y-129344951D01*
X108582142Y-129385427D02*
X108582142Y-128818760D01*
X108582142Y-128535427D02*
X108541666Y-128575903D01*
X108541666Y-128575903D02*
X108582142Y-128616379D01*
X108582142Y-128616379D02*
X108622619Y-128575903D01*
X108622619Y-128575903D02*
X108582142Y-128535427D01*
X108582142Y-128535427D02*
X108582142Y-128616379D01*
X108986904Y-128818760D02*
X108986904Y-129385427D01*
X108986904Y-128899712D02*
X109027381Y-128859236D01*
X109027381Y-128859236D02*
X109108333Y-128818760D01*
X109108333Y-128818760D02*
X109229762Y-128818760D01*
X109229762Y-128818760D02*
X109310714Y-128859236D01*
X109310714Y-128859236D02*
X109351190Y-128940189D01*
X109351190Y-128940189D02*
X109351190Y-129385427D01*
X110322619Y-128535427D02*
X110848810Y-128535427D01*
X110848810Y-128535427D02*
X110565476Y-128859236D01*
X110565476Y-128859236D02*
X110686905Y-128859236D01*
X110686905Y-128859236D02*
X110767857Y-128899712D01*
X110767857Y-128899712D02*
X110808333Y-128940189D01*
X110808333Y-128940189D02*
X110848810Y-129021141D01*
X110848810Y-129021141D02*
X110848810Y-129223522D01*
X110848810Y-129223522D02*
X110808333Y-129304474D01*
X110808333Y-129304474D02*
X110767857Y-129344951D01*
X110767857Y-129344951D02*
X110686905Y-129385427D01*
X110686905Y-129385427D02*
X110444048Y-129385427D01*
X110444048Y-129385427D02*
X110363095Y-129344951D01*
X110363095Y-129344951D02*
X110322619Y-129304474D01*
X95514283Y-154862295D02*
X95057140Y-154862295D01*
X95285712Y-154862295D02*
X95285712Y-154062295D01*
X95285712Y-154062295D02*
X95209521Y-154176580D01*
X95209521Y-154176580D02*
X95133331Y-154252771D01*
X95133331Y-154252771D02*
X95057140Y-154290866D01*
X96009522Y-154062295D02*
X96085712Y-154062295D01*
X96085712Y-154062295D02*
X96161903Y-154100390D01*
X96161903Y-154100390D02*
X96199998Y-154138485D01*
X96199998Y-154138485D02*
X96238093Y-154214676D01*
X96238093Y-154214676D02*
X96276188Y-154367057D01*
X96276188Y-154367057D02*
X96276188Y-154557533D01*
X96276188Y-154557533D02*
X96238093Y-154709914D01*
X96238093Y-154709914D02*
X96199998Y-154786104D01*
X96199998Y-154786104D02*
X96161903Y-154824200D01*
X96161903Y-154824200D02*
X96085712Y-154862295D01*
X96085712Y-154862295D02*
X96009522Y-154862295D01*
X96009522Y-154862295D02*
X95933331Y-154824200D01*
X95933331Y-154824200D02*
X95895236Y-154786104D01*
X95895236Y-154786104D02*
X95857141Y-154709914D01*
X95857141Y-154709914D02*
X95819045Y-154557533D01*
X95819045Y-154557533D02*
X95819045Y-154367057D01*
X95819045Y-154367057D02*
X95857141Y-154214676D01*
X95857141Y-154214676D02*
X95895236Y-154138485D01*
X95895236Y-154138485D02*
X95933331Y-154100390D01*
X95933331Y-154100390D02*
X96009522Y-154062295D01*
X96619046Y-154786104D02*
X96657141Y-154824200D01*
X96657141Y-154824200D02*
X96619046Y-154862295D01*
X96619046Y-154862295D02*
X96580950Y-154824200D01*
X96580950Y-154824200D02*
X96619046Y-154786104D01*
X96619046Y-154786104D02*
X96619046Y-154862295D01*
X97342855Y-154328961D02*
X97342855Y-154862295D01*
X97152379Y-154024200D02*
X96961902Y-154595628D01*
X96961902Y-154595628D02*
X97457141Y-154595628D01*
X97647617Y-154062295D02*
X97914284Y-154862295D01*
X97914284Y-154862295D02*
X98180950Y-154062295D01*
X99476188Y-154862295D02*
X99019045Y-154862295D01*
X99247617Y-154862295D02*
X99247617Y-154062295D01*
X99247617Y-154062295D02*
X99171426Y-154176580D01*
X99171426Y-154176580D02*
X99095236Y-154252771D01*
X99095236Y-154252771D02*
X99019045Y-154290866D01*
X99971427Y-154062295D02*
X100047617Y-154062295D01*
X100047617Y-154062295D02*
X100123808Y-154100390D01*
X100123808Y-154100390D02*
X100161903Y-154138485D01*
X100161903Y-154138485D02*
X100199998Y-154214676D01*
X100199998Y-154214676D02*
X100238093Y-154367057D01*
X100238093Y-154367057D02*
X100238093Y-154557533D01*
X100238093Y-154557533D02*
X100199998Y-154709914D01*
X100199998Y-154709914D02*
X100161903Y-154786104D01*
X100161903Y-154786104D02*
X100123808Y-154824200D01*
X100123808Y-154824200D02*
X100047617Y-154862295D01*
X100047617Y-154862295D02*
X99971427Y-154862295D01*
X99971427Y-154862295D02*
X99895236Y-154824200D01*
X99895236Y-154824200D02*
X99857141Y-154786104D01*
X99857141Y-154786104D02*
X99819046Y-154709914D01*
X99819046Y-154709914D02*
X99780950Y-154557533D01*
X99780950Y-154557533D02*
X99780950Y-154367057D01*
X99780950Y-154367057D02*
X99819046Y-154214676D01*
X99819046Y-154214676D02*
X99857141Y-154138485D01*
X99857141Y-154138485D02*
X99895236Y-154100390D01*
X99895236Y-154100390D02*
X99971427Y-154062295D01*
X100542855Y-154824200D02*
X100619046Y-154862295D01*
X100619046Y-154862295D02*
X100771427Y-154862295D01*
X100771427Y-154862295D02*
X100847617Y-154824200D01*
X100847617Y-154824200D02*
X100885713Y-154748009D01*
X100885713Y-154748009D02*
X100885713Y-154709914D01*
X100885713Y-154709914D02*
X100847617Y-154633723D01*
X100847617Y-154633723D02*
X100771427Y-154595628D01*
X100771427Y-154595628D02*
X100657141Y-154595628D01*
X100657141Y-154595628D02*
X100580951Y-154557533D01*
X100580951Y-154557533D02*
X100542855Y-154481342D01*
X100542855Y-154481342D02*
X100542855Y-154443247D01*
X100542855Y-154443247D02*
X100580951Y-154367057D01*
X100580951Y-154367057D02*
X100657141Y-154328961D01*
X100657141Y-154328961D02*
X100771427Y-154328961D01*
X100771427Y-154328961D02*
X100847617Y-154367057D01*
X101838094Y-154328961D02*
X101838094Y-155128961D01*
X101838094Y-154367057D02*
X101914284Y-154328961D01*
X101914284Y-154328961D02*
X102066665Y-154328961D01*
X102066665Y-154328961D02*
X102142856Y-154367057D01*
X102142856Y-154367057D02*
X102180951Y-154405152D01*
X102180951Y-154405152D02*
X102219046Y-154481342D01*
X102219046Y-154481342D02*
X102219046Y-154709914D01*
X102219046Y-154709914D02*
X102180951Y-154786104D01*
X102180951Y-154786104D02*
X102142856Y-154824200D01*
X102142856Y-154824200D02*
X102066665Y-154862295D01*
X102066665Y-154862295D02*
X101914284Y-154862295D01*
X101914284Y-154862295D02*
X101838094Y-154824200D01*
X102904761Y-154328961D02*
X102904761Y-154862295D01*
X102561904Y-154328961D02*
X102561904Y-154748009D01*
X102561904Y-154748009D02*
X102599999Y-154824200D01*
X102599999Y-154824200D02*
X102676189Y-154862295D01*
X102676189Y-154862295D02*
X102790475Y-154862295D01*
X102790475Y-154862295D02*
X102866666Y-154824200D01*
X102866666Y-154824200D02*
X102904761Y-154786104D01*
X103399999Y-154862295D02*
X103323809Y-154824200D01*
X103323809Y-154824200D02*
X103285714Y-154748009D01*
X103285714Y-154748009D02*
X103285714Y-154062295D01*
X103666666Y-154824200D02*
X103742857Y-154862295D01*
X103742857Y-154862295D02*
X103895238Y-154862295D01*
X103895238Y-154862295D02*
X103971428Y-154824200D01*
X103971428Y-154824200D02*
X104009524Y-154748009D01*
X104009524Y-154748009D02*
X104009524Y-154709914D01*
X104009524Y-154709914D02*
X103971428Y-154633723D01*
X103971428Y-154633723D02*
X103895238Y-154595628D01*
X103895238Y-154595628D02*
X103780952Y-154595628D01*
X103780952Y-154595628D02*
X103704762Y-154557533D01*
X103704762Y-154557533D02*
X103666666Y-154481342D01*
X103666666Y-154481342D02*
X103666666Y-154443247D01*
X103666666Y-154443247D02*
X103704762Y-154367057D01*
X103704762Y-154367057D02*
X103780952Y-154328961D01*
X103780952Y-154328961D02*
X103895238Y-154328961D01*
X103895238Y-154328961D02*
X103971428Y-154367057D01*
X104657143Y-154824200D02*
X104580952Y-154862295D01*
X104580952Y-154862295D02*
X104428571Y-154862295D01*
X104428571Y-154862295D02*
X104352381Y-154824200D01*
X104352381Y-154824200D02*
X104314285Y-154748009D01*
X104314285Y-154748009D02*
X104314285Y-154443247D01*
X104314285Y-154443247D02*
X104352381Y-154367057D01*
X104352381Y-154367057D02*
X104428571Y-154328961D01*
X104428571Y-154328961D02*
X104580952Y-154328961D01*
X104580952Y-154328961D02*
X104657143Y-154367057D01*
X104657143Y-154367057D02*
X104695238Y-154443247D01*
X104695238Y-154443247D02*
X104695238Y-154519438D01*
X104695238Y-154519438D02*
X104314285Y-154595628D01*
X105076190Y-154824200D02*
X105076190Y-154862295D01*
X105076190Y-154862295D02*
X105038095Y-154938485D01*
X105038095Y-154938485D02*
X104999999Y-154976580D01*
X106028571Y-154328961D02*
X106638095Y-154557533D01*
X106638095Y-154557533D02*
X106028571Y-154786104D01*
X107019047Y-154443247D02*
X107628571Y-154443247D01*
X107628571Y-154671819D02*
X107019047Y-154671819D01*
X108390475Y-154062295D02*
X108009523Y-154062295D01*
X108009523Y-154062295D02*
X107971427Y-154443247D01*
X107971427Y-154443247D02*
X108009523Y-154405152D01*
X108009523Y-154405152D02*
X108085713Y-154367057D01*
X108085713Y-154367057D02*
X108276189Y-154367057D01*
X108276189Y-154367057D02*
X108352380Y-154405152D01*
X108352380Y-154405152D02*
X108390475Y-154443247D01*
X108390475Y-154443247D02*
X108428570Y-154519438D01*
X108428570Y-154519438D02*
X108428570Y-154709914D01*
X108428570Y-154709914D02*
X108390475Y-154786104D01*
X108390475Y-154786104D02*
X108352380Y-154824200D01*
X108352380Y-154824200D02*
X108276189Y-154862295D01*
X108276189Y-154862295D02*
X108085713Y-154862295D01*
X108085713Y-154862295D02*
X108009523Y-154824200D01*
X108009523Y-154824200D02*
X107971427Y-154786104D01*
X109380952Y-154862295D02*
X109380952Y-154328961D01*
X109380952Y-154405152D02*
X109419047Y-154367057D01*
X109419047Y-154367057D02*
X109495237Y-154328961D01*
X109495237Y-154328961D02*
X109609523Y-154328961D01*
X109609523Y-154328961D02*
X109685714Y-154367057D01*
X109685714Y-154367057D02*
X109723809Y-154443247D01*
X109723809Y-154443247D02*
X109723809Y-154862295D01*
X109723809Y-154443247D02*
X109761904Y-154367057D01*
X109761904Y-154367057D02*
X109838095Y-154328961D01*
X109838095Y-154328961D02*
X109952380Y-154328961D01*
X109952380Y-154328961D02*
X110028571Y-154367057D01*
X110028571Y-154367057D02*
X110066666Y-154443247D01*
X110066666Y-154443247D02*
X110066666Y-154862295D01*
X110447619Y-154862295D02*
X110447619Y-154328961D01*
X110447619Y-154062295D02*
X110409523Y-154100390D01*
X110409523Y-154100390D02*
X110447619Y-154138485D01*
X110447619Y-154138485D02*
X110485714Y-154100390D01*
X110485714Y-154100390D02*
X110447619Y-154062295D01*
X110447619Y-154062295D02*
X110447619Y-154138485D01*
X110828571Y-154328961D02*
X110828571Y-154862295D01*
X110828571Y-154405152D02*
X110866666Y-154367057D01*
X110866666Y-154367057D02*
X110942856Y-154328961D01*
X110942856Y-154328961D02*
X111057142Y-154328961D01*
X111057142Y-154328961D02*
X111133333Y-154367057D01*
X111133333Y-154367057D02*
X111171428Y-154443247D01*
X111171428Y-154443247D02*
X111171428Y-154862295D01*
X112504762Y-154862295D02*
X112504762Y-154443247D01*
X112504762Y-154443247D02*
X112466667Y-154367057D01*
X112466667Y-154367057D02*
X112390476Y-154328961D01*
X112390476Y-154328961D02*
X112238095Y-154328961D01*
X112238095Y-154328961D02*
X112161905Y-154367057D01*
X112504762Y-154824200D02*
X112428571Y-154862295D01*
X112428571Y-154862295D02*
X112238095Y-154862295D01*
X112238095Y-154862295D02*
X112161905Y-154824200D01*
X112161905Y-154824200D02*
X112123809Y-154748009D01*
X112123809Y-154748009D02*
X112123809Y-154671819D01*
X112123809Y-154671819D02*
X112161905Y-154595628D01*
X112161905Y-154595628D02*
X112238095Y-154557533D01*
X112238095Y-154557533D02*
X112428571Y-154557533D01*
X112428571Y-154557533D02*
X112504762Y-154519438D01*
X112885715Y-154328961D02*
X112885715Y-155128961D01*
X112885715Y-154367057D02*
X112961905Y-154328961D01*
X112961905Y-154328961D02*
X113114286Y-154328961D01*
X113114286Y-154328961D02*
X113190477Y-154367057D01*
X113190477Y-154367057D02*
X113228572Y-154405152D01*
X113228572Y-154405152D02*
X113266667Y-154481342D01*
X113266667Y-154481342D02*
X113266667Y-154709914D01*
X113266667Y-154709914D02*
X113228572Y-154786104D01*
X113228572Y-154786104D02*
X113190477Y-154824200D01*
X113190477Y-154824200D02*
X113114286Y-154862295D01*
X113114286Y-154862295D02*
X112961905Y-154862295D01*
X112961905Y-154862295D02*
X112885715Y-154824200D01*
X113952382Y-154862295D02*
X113952382Y-154443247D01*
X113952382Y-154443247D02*
X113914287Y-154367057D01*
X113914287Y-154367057D02*
X113838096Y-154328961D01*
X113838096Y-154328961D02*
X113685715Y-154328961D01*
X113685715Y-154328961D02*
X113609525Y-154367057D01*
X113952382Y-154824200D02*
X113876191Y-154862295D01*
X113876191Y-154862295D02*
X113685715Y-154862295D01*
X113685715Y-154862295D02*
X113609525Y-154824200D01*
X113609525Y-154824200D02*
X113571429Y-154748009D01*
X113571429Y-154748009D02*
X113571429Y-154671819D01*
X113571429Y-154671819D02*
X113609525Y-154595628D01*
X113609525Y-154595628D02*
X113685715Y-154557533D01*
X113685715Y-154557533D02*
X113876191Y-154557533D01*
X113876191Y-154557533D02*
X113952382Y-154519438D01*
X114333335Y-154862295D02*
X114333335Y-154328961D01*
X114333335Y-154481342D02*
X114371430Y-154405152D01*
X114371430Y-154405152D02*
X114409525Y-154367057D01*
X114409525Y-154367057D02*
X114485716Y-154328961D01*
X114485716Y-154328961D02*
X114561906Y-154328961D01*
X114714287Y-154328961D02*
X115019049Y-154328961D01*
X114828573Y-154062295D02*
X114828573Y-154748009D01*
X114828573Y-154748009D02*
X114866668Y-154824200D01*
X114866668Y-154824200D02*
X114942858Y-154862295D01*
X114942858Y-154862295D02*
X115019049Y-154862295D01*
X98624999Y-131075903D02*
X98544046Y-131035427D01*
X98544046Y-131035427D02*
X98422618Y-131035427D01*
X98422618Y-131035427D02*
X98301189Y-131075903D01*
X98301189Y-131075903D02*
X98220237Y-131156855D01*
X98220237Y-131156855D02*
X98179760Y-131237808D01*
X98179760Y-131237808D02*
X98139284Y-131399712D01*
X98139284Y-131399712D02*
X98139284Y-131521141D01*
X98139284Y-131521141D02*
X98179760Y-131683046D01*
X98179760Y-131683046D02*
X98220237Y-131763998D01*
X98220237Y-131763998D02*
X98301189Y-131844951D01*
X98301189Y-131844951D02*
X98422618Y-131885427D01*
X98422618Y-131885427D02*
X98503570Y-131885427D01*
X98503570Y-131885427D02*
X98624999Y-131844951D01*
X98624999Y-131844951D02*
X98665475Y-131804474D01*
X98665475Y-131804474D02*
X98665475Y-131521141D01*
X98665475Y-131521141D02*
X98503570Y-131521141D01*
X99029760Y-131885427D02*
X99029760Y-131035427D01*
X99029760Y-131035427D02*
X99353570Y-131035427D01*
X99353570Y-131035427D02*
X99434522Y-131075903D01*
X99434522Y-131075903D02*
X99474999Y-131116379D01*
X99474999Y-131116379D02*
X99515475Y-131197331D01*
X99515475Y-131197331D02*
X99515475Y-131318760D01*
X99515475Y-131318760D02*
X99474999Y-131399712D01*
X99474999Y-131399712D02*
X99434522Y-131440189D01*
X99434522Y-131440189D02*
X99353570Y-131480665D01*
X99353570Y-131480665D02*
X99029760Y-131480665D01*
X99879760Y-131885427D02*
X99879760Y-131035427D01*
X100446427Y-131035427D02*
X100608332Y-131035427D01*
X100608332Y-131035427D02*
X100689284Y-131075903D01*
X100689284Y-131075903D02*
X100770237Y-131156855D01*
X100770237Y-131156855D02*
X100810713Y-131318760D01*
X100810713Y-131318760D02*
X100810713Y-131602093D01*
X100810713Y-131602093D02*
X100770237Y-131763998D01*
X100770237Y-131763998D02*
X100689284Y-131844951D01*
X100689284Y-131844951D02*
X100608332Y-131885427D01*
X100608332Y-131885427D02*
X100446427Y-131885427D01*
X100446427Y-131885427D02*
X100365475Y-131844951D01*
X100365475Y-131844951D02*
X100284522Y-131763998D01*
X100284522Y-131763998D02*
X100244046Y-131602093D01*
X100244046Y-131602093D02*
X100244046Y-131318760D01*
X100244046Y-131318760D02*
X100284522Y-131156855D01*
X100284522Y-131156855D02*
X100365475Y-131075903D01*
X100365475Y-131075903D02*
X100446427Y-131035427D01*
X101094046Y-131035427D02*
X101620237Y-131035427D01*
X101620237Y-131035427D02*
X101336903Y-131359236D01*
X101336903Y-131359236D02*
X101458332Y-131359236D01*
X101458332Y-131359236D02*
X101539284Y-131399712D01*
X101539284Y-131399712D02*
X101579760Y-131440189D01*
X101579760Y-131440189D02*
X101620237Y-131521141D01*
X101620237Y-131521141D02*
X101620237Y-131723522D01*
X101620237Y-131723522D02*
X101579760Y-131804474D01*
X101579760Y-131804474D02*
X101539284Y-131844951D01*
X101539284Y-131844951D02*
X101458332Y-131885427D01*
X101458332Y-131885427D02*
X101215475Y-131885427D01*
X101215475Y-131885427D02*
X101134522Y-131844951D01*
X101134522Y-131844951D02*
X101094046Y-131804474D01*
X101944046Y-131116379D02*
X101984522Y-131075903D01*
X101984522Y-131075903D02*
X102065475Y-131035427D01*
X102065475Y-131035427D02*
X102267856Y-131035427D01*
X102267856Y-131035427D02*
X102348808Y-131075903D01*
X102348808Y-131075903D02*
X102389284Y-131116379D01*
X102389284Y-131116379D02*
X102429761Y-131197331D01*
X102429761Y-131197331D02*
X102429761Y-131278284D01*
X102429761Y-131278284D02*
X102389284Y-131399712D01*
X102389284Y-131399712D02*
X101903570Y-131885427D01*
X101903570Y-131885427D02*
X102429761Y-131885427D01*
X103441665Y-131440189D02*
X104089285Y-131440189D01*
X104089285Y-131683046D02*
X103441665Y-131683046D01*
X105141665Y-131440189D02*
X105424999Y-131440189D01*
X105546427Y-131885427D02*
X105141665Y-131885427D01*
X105141665Y-131885427D02*
X105141665Y-131035427D01*
X105141665Y-131035427D02*
X105546427Y-131035427D01*
X105829761Y-131035427D02*
X106396428Y-131885427D01*
X106396428Y-131035427D02*
X105829761Y-131885427D01*
X106598809Y-131035427D02*
X107084523Y-131035427D01*
X106841666Y-131885427D02*
X106841666Y-131035427D01*
X107327380Y-131116379D02*
X107367856Y-131075903D01*
X107367856Y-131075903D02*
X107448809Y-131035427D01*
X107448809Y-131035427D02*
X107651190Y-131035427D01*
X107651190Y-131035427D02*
X107732142Y-131075903D01*
X107732142Y-131075903D02*
X107772618Y-131116379D01*
X107772618Y-131116379D02*
X107813095Y-131197331D01*
X107813095Y-131197331D02*
X107813095Y-131278284D01*
X107813095Y-131278284D02*
X107772618Y-131399712D01*
X107772618Y-131399712D02*
X107286904Y-131885427D01*
X107286904Y-131885427D02*
X107813095Y-131885427D01*
X108824999Y-131318760D02*
X108824999Y-132168760D01*
X108824999Y-131359236D02*
X108905952Y-131318760D01*
X108905952Y-131318760D02*
X109067857Y-131318760D01*
X109067857Y-131318760D02*
X109148809Y-131359236D01*
X109148809Y-131359236D02*
X109189285Y-131399712D01*
X109189285Y-131399712D02*
X109229761Y-131480665D01*
X109229761Y-131480665D02*
X109229761Y-131723522D01*
X109229761Y-131723522D02*
X109189285Y-131804474D01*
X109189285Y-131804474D02*
X109148809Y-131844951D01*
X109148809Y-131844951D02*
X109067857Y-131885427D01*
X109067857Y-131885427D02*
X108905952Y-131885427D01*
X108905952Y-131885427D02*
X108824999Y-131844951D01*
X109594047Y-131885427D02*
X109594047Y-131318760D01*
X109594047Y-131035427D02*
X109553571Y-131075903D01*
X109553571Y-131075903D02*
X109594047Y-131116379D01*
X109594047Y-131116379D02*
X109634524Y-131075903D01*
X109634524Y-131075903D02*
X109594047Y-131035427D01*
X109594047Y-131035427D02*
X109594047Y-131116379D01*
X109998809Y-131318760D02*
X109998809Y-131885427D01*
X109998809Y-131399712D02*
X110039286Y-131359236D01*
X110039286Y-131359236D02*
X110120238Y-131318760D01*
X110120238Y-131318760D02*
X110241667Y-131318760D01*
X110241667Y-131318760D02*
X110322619Y-131359236D01*
X110322619Y-131359236D02*
X110363095Y-131440189D01*
X110363095Y-131440189D02*
X110363095Y-131885427D01*
X111779762Y-131035427D02*
X111617857Y-131035427D01*
X111617857Y-131035427D02*
X111536905Y-131075903D01*
X111536905Y-131075903D02*
X111496429Y-131116379D01*
X111496429Y-131116379D02*
X111415476Y-131237808D01*
X111415476Y-131237808D02*
X111375000Y-131399712D01*
X111375000Y-131399712D02*
X111375000Y-131723522D01*
X111375000Y-131723522D02*
X111415476Y-131804474D01*
X111415476Y-131804474D02*
X111455953Y-131844951D01*
X111455953Y-131844951D02*
X111536905Y-131885427D01*
X111536905Y-131885427D02*
X111698810Y-131885427D01*
X111698810Y-131885427D02*
X111779762Y-131844951D01*
X111779762Y-131844951D02*
X111820238Y-131804474D01*
X111820238Y-131804474D02*
X111860715Y-131723522D01*
X111860715Y-131723522D02*
X111860715Y-131521141D01*
X111860715Y-131521141D02*
X111820238Y-131440189D01*
X111820238Y-131440189D02*
X111779762Y-131399712D01*
X111779762Y-131399712D02*
X111698810Y-131359236D01*
X111698810Y-131359236D02*
X111536905Y-131359236D01*
X111536905Y-131359236D02*
X111455953Y-131399712D01*
X111455953Y-131399712D02*
X111415476Y-131440189D01*
X111415476Y-131440189D02*
X111375000Y-131521141D01*
X95723808Y-149062295D02*
X95723808Y-149633723D01*
X95723808Y-149633723D02*
X95685713Y-149748009D01*
X95685713Y-149748009D02*
X95609522Y-149824200D01*
X95609522Y-149824200D02*
X95495237Y-149862295D01*
X95495237Y-149862295D02*
X95419046Y-149862295D01*
X96523808Y-149862295D02*
X96066665Y-149862295D01*
X96295237Y-149862295D02*
X96295237Y-149062295D01*
X96295237Y-149062295D02*
X96219046Y-149176580D01*
X96219046Y-149176580D02*
X96142856Y-149252771D01*
X96142856Y-149252771D02*
X96066665Y-149290866D01*
X97476190Y-149443247D02*
X98085714Y-149443247D01*
X98085714Y-149671819D02*
X97476190Y-149671819D01*
X99495237Y-149862295D02*
X99038094Y-149862295D01*
X99266666Y-149862295D02*
X99266666Y-149062295D01*
X99266666Y-149062295D02*
X99190475Y-149176580D01*
X99190475Y-149176580D02*
X99114285Y-149252771D01*
X99114285Y-149252771D02*
X99038094Y-149290866D01*
X99799999Y-149138485D02*
X99838095Y-149100390D01*
X99838095Y-149100390D02*
X99914285Y-149062295D01*
X99914285Y-149062295D02*
X100104761Y-149062295D01*
X100104761Y-149062295D02*
X100180952Y-149100390D01*
X100180952Y-149100390D02*
X100219047Y-149138485D01*
X100219047Y-149138485D02*
X100257142Y-149214676D01*
X100257142Y-149214676D02*
X100257142Y-149290866D01*
X100257142Y-149290866D02*
X100219047Y-149405152D01*
X100219047Y-149405152D02*
X99761904Y-149862295D01*
X99761904Y-149862295D02*
X100257142Y-149862295D01*
X100485714Y-149062295D02*
X100752381Y-149862295D01*
X100752381Y-149862295D02*
X101019047Y-149062295D01*
X101895238Y-149862295D02*
X101895238Y-149062295D01*
X102276190Y-149862295D02*
X102276190Y-149062295D01*
X102276190Y-149062295D02*
X102733333Y-149862295D01*
X102733333Y-149862295D02*
X102733333Y-149062295D01*
X104104761Y-149062295D02*
X103723809Y-149062295D01*
X103723809Y-149062295D02*
X103685713Y-149443247D01*
X103685713Y-149443247D02*
X103723809Y-149405152D01*
X103723809Y-149405152D02*
X103799999Y-149367057D01*
X103799999Y-149367057D02*
X103990475Y-149367057D01*
X103990475Y-149367057D02*
X104066666Y-149405152D01*
X104066666Y-149405152D02*
X104104761Y-149443247D01*
X104104761Y-149443247D02*
X104142856Y-149519438D01*
X104142856Y-149519438D02*
X104142856Y-149709914D01*
X104142856Y-149709914D02*
X104104761Y-149786104D01*
X104104761Y-149786104D02*
X104066666Y-149824200D01*
X104066666Y-149824200D02*
X103990475Y-149862295D01*
X103990475Y-149862295D02*
X103799999Y-149862295D01*
X103799999Y-149862295D02*
X103723809Y-149824200D01*
X103723809Y-149824200D02*
X103685713Y-149786104D01*
X104485714Y-149786104D02*
X104523809Y-149824200D01*
X104523809Y-149824200D02*
X104485714Y-149862295D01*
X104485714Y-149862295D02*
X104447618Y-149824200D01*
X104447618Y-149824200D02*
X104485714Y-149786104D01*
X104485714Y-149786104D02*
X104485714Y-149862295D01*
X105247618Y-149062295D02*
X104866666Y-149062295D01*
X104866666Y-149062295D02*
X104828570Y-149443247D01*
X104828570Y-149443247D02*
X104866666Y-149405152D01*
X104866666Y-149405152D02*
X104942856Y-149367057D01*
X104942856Y-149367057D02*
X105133332Y-149367057D01*
X105133332Y-149367057D02*
X105209523Y-149405152D01*
X105209523Y-149405152D02*
X105247618Y-149443247D01*
X105247618Y-149443247D02*
X105285713Y-149519438D01*
X105285713Y-149519438D02*
X105285713Y-149709914D01*
X105285713Y-149709914D02*
X105247618Y-149786104D01*
X105247618Y-149786104D02*
X105209523Y-149824200D01*
X105209523Y-149824200D02*
X105133332Y-149862295D01*
X105133332Y-149862295D02*
X104942856Y-149862295D01*
X104942856Y-149862295D02*
X104866666Y-149824200D01*
X104866666Y-149824200D02*
X104828570Y-149786104D01*
X105552380Y-149862295D02*
X105971428Y-149328961D01*
X105552380Y-149328961D02*
X105971428Y-149862295D01*
X106238094Y-149138485D02*
X106276190Y-149100390D01*
X106276190Y-149100390D02*
X106352380Y-149062295D01*
X106352380Y-149062295D02*
X106542856Y-149062295D01*
X106542856Y-149062295D02*
X106619047Y-149100390D01*
X106619047Y-149100390D02*
X106657142Y-149138485D01*
X106657142Y-149138485D02*
X106695237Y-149214676D01*
X106695237Y-149214676D02*
X106695237Y-149290866D01*
X106695237Y-149290866D02*
X106657142Y-149405152D01*
X106657142Y-149405152D02*
X106199999Y-149862295D01*
X106199999Y-149862295D02*
X106695237Y-149862295D01*
X107038095Y-149786104D02*
X107076190Y-149824200D01*
X107076190Y-149824200D02*
X107038095Y-149862295D01*
X107038095Y-149862295D02*
X106999999Y-149824200D01*
X106999999Y-149824200D02*
X107038095Y-149786104D01*
X107038095Y-149786104D02*
X107038095Y-149862295D01*
X107799999Y-149062295D02*
X107419047Y-149062295D01*
X107419047Y-149062295D02*
X107380951Y-149443247D01*
X107380951Y-149443247D02*
X107419047Y-149405152D01*
X107419047Y-149405152D02*
X107495237Y-149367057D01*
X107495237Y-149367057D02*
X107685713Y-149367057D01*
X107685713Y-149367057D02*
X107761904Y-149405152D01*
X107761904Y-149405152D02*
X107799999Y-149443247D01*
X107799999Y-149443247D02*
X107838094Y-149519438D01*
X107838094Y-149519438D02*
X107838094Y-149709914D01*
X107838094Y-149709914D02*
X107799999Y-149786104D01*
X107799999Y-149786104D02*
X107761904Y-149824200D01*
X107761904Y-149824200D02*
X107685713Y-149862295D01*
X107685713Y-149862295D02*
X107495237Y-149862295D01*
X107495237Y-149862295D02*
X107419047Y-149824200D01*
X107419047Y-149824200D02*
X107380951Y-149786104D01*
X109247619Y-149786104D02*
X109209523Y-149824200D01*
X109209523Y-149824200D02*
X109095238Y-149862295D01*
X109095238Y-149862295D02*
X109019047Y-149862295D01*
X109019047Y-149862295D02*
X108904761Y-149824200D01*
X108904761Y-149824200D02*
X108828571Y-149748009D01*
X108828571Y-149748009D02*
X108790476Y-149671819D01*
X108790476Y-149671819D02*
X108752380Y-149519438D01*
X108752380Y-149519438D02*
X108752380Y-149405152D01*
X108752380Y-149405152D02*
X108790476Y-149252771D01*
X108790476Y-149252771D02*
X108828571Y-149176580D01*
X108828571Y-149176580D02*
X108904761Y-149100390D01*
X108904761Y-149100390D02*
X109019047Y-149062295D01*
X109019047Y-149062295D02*
X109095238Y-149062295D01*
X109095238Y-149062295D02*
X109209523Y-149100390D01*
X109209523Y-149100390D02*
X109247619Y-149138485D01*
X109590476Y-149443247D02*
X109857142Y-149443247D01*
X109971428Y-149862295D02*
X109590476Y-149862295D01*
X109590476Y-149862295D02*
X109590476Y-149062295D01*
X109590476Y-149062295D02*
X109971428Y-149062295D01*
X110314286Y-149862295D02*
X110314286Y-149062295D01*
X110314286Y-149062295D02*
X110771429Y-149862295D01*
X110771429Y-149862295D02*
X110771429Y-149062295D01*
X111038095Y-149062295D02*
X111495238Y-149062295D01*
X111266666Y-149862295D02*
X111266666Y-149062295D01*
X112219048Y-149862295D02*
X111952381Y-149481342D01*
X111761905Y-149862295D02*
X111761905Y-149062295D01*
X111761905Y-149062295D02*
X112066667Y-149062295D01*
X112066667Y-149062295D02*
X112142857Y-149100390D01*
X112142857Y-149100390D02*
X112180952Y-149138485D01*
X112180952Y-149138485D02*
X112219048Y-149214676D01*
X112219048Y-149214676D02*
X112219048Y-149328961D01*
X112219048Y-149328961D02*
X112180952Y-149405152D01*
X112180952Y-149405152D02*
X112142857Y-149443247D01*
X112142857Y-149443247D02*
X112066667Y-149481342D01*
X112066667Y-149481342D02*
X111761905Y-149481342D01*
X112561905Y-149443247D02*
X112828571Y-149443247D01*
X112942857Y-149862295D02*
X112561905Y-149862295D01*
X112561905Y-149862295D02*
X112561905Y-149062295D01*
X112561905Y-149062295D02*
X112942857Y-149062295D01*
X113895239Y-149557533D02*
X114504763Y-149557533D01*
X114200001Y-149862295D02*
X114200001Y-149252771D01*
D12*
X97064286Y-114788924D02*
X97064286Y-114107972D01*
X97064286Y-114107972D02*
X97002381Y-113984162D01*
X97002381Y-113984162D02*
X96878572Y-113922258D01*
X96878572Y-113922258D02*
X96630953Y-113922258D01*
X96630953Y-113922258D02*
X96507143Y-113984162D01*
X97064286Y-114727020D02*
X96940477Y-114788924D01*
X96940477Y-114788924D02*
X96630953Y-114788924D01*
X96630953Y-114788924D02*
X96507143Y-114727020D01*
X96507143Y-114727020D02*
X96445239Y-114603210D01*
X96445239Y-114603210D02*
X96445239Y-114479400D01*
X96445239Y-114479400D02*
X96507143Y-114355591D01*
X96507143Y-114355591D02*
X96630953Y-114293686D01*
X96630953Y-114293686D02*
X96940477Y-114293686D01*
X96940477Y-114293686D02*
X97064286Y-114231781D01*
X98116667Y-114107972D02*
X97683333Y-114107972D01*
X97683333Y-114788924D02*
X97683333Y-113488924D01*
X97683333Y-113488924D02*
X98302381Y-113488924D01*
X99354762Y-113922258D02*
X99354762Y-114788924D01*
X99045238Y-113427020D02*
X98735715Y-114355591D01*
X98735715Y-114355591D02*
X99540476Y-114355591D01*
X101026190Y-114788924D02*
X101026190Y-113488924D01*
X101026190Y-113488924D02*
X101521428Y-113488924D01*
X101521428Y-113488924D02*
X101645238Y-113550829D01*
X101645238Y-113550829D02*
X101707143Y-113612734D01*
X101707143Y-113612734D02*
X101769047Y-113736543D01*
X101769047Y-113736543D02*
X101769047Y-113922258D01*
X101769047Y-113922258D02*
X101707143Y-114046067D01*
X101707143Y-114046067D02*
X101645238Y-114107972D01*
X101645238Y-114107972D02*
X101521428Y-114169877D01*
X101521428Y-114169877D02*
X101026190Y-114169877D01*
X102511905Y-114788924D02*
X102388095Y-114727020D01*
X102388095Y-114727020D02*
X102326190Y-114665115D01*
X102326190Y-114665115D02*
X102264286Y-114541305D01*
X102264286Y-114541305D02*
X102264286Y-114169877D01*
X102264286Y-114169877D02*
X102326190Y-114046067D01*
X102326190Y-114046067D02*
X102388095Y-113984162D01*
X102388095Y-113984162D02*
X102511905Y-113922258D01*
X102511905Y-113922258D02*
X102697619Y-113922258D01*
X102697619Y-113922258D02*
X102821428Y-113984162D01*
X102821428Y-113984162D02*
X102883333Y-114046067D01*
X102883333Y-114046067D02*
X102945238Y-114169877D01*
X102945238Y-114169877D02*
X102945238Y-114541305D01*
X102945238Y-114541305D02*
X102883333Y-114665115D01*
X102883333Y-114665115D02*
X102821428Y-114727020D01*
X102821428Y-114727020D02*
X102697619Y-114788924D01*
X102697619Y-114788924D02*
X102511905Y-114788924D01*
X103502380Y-114107972D02*
X103935714Y-114107972D01*
X104121428Y-114788924D02*
X103502380Y-114788924D01*
X103502380Y-114788924D02*
X103502380Y-113488924D01*
X103502380Y-113488924D02*
X104121428Y-113488924D01*
X105483332Y-113488924D02*
X106226189Y-113488924D01*
X105854761Y-114788924D02*
X105854761Y-113488924D01*
X107402379Y-114788924D02*
X106969046Y-114169877D01*
X106659522Y-114788924D02*
X106659522Y-113488924D01*
X106659522Y-113488924D02*
X107154760Y-113488924D01*
X107154760Y-113488924D02*
X107278570Y-113550829D01*
X107278570Y-113550829D02*
X107340475Y-113612734D01*
X107340475Y-113612734D02*
X107402379Y-113736543D01*
X107402379Y-113736543D02*
X107402379Y-113922258D01*
X107402379Y-113922258D02*
X107340475Y-114046067D01*
X107340475Y-114046067D02*
X107278570Y-114107972D01*
X107278570Y-114107972D02*
X107154760Y-114169877D01*
X107154760Y-114169877D02*
X106659522Y-114169877D01*
X107959522Y-114788924D02*
X107959522Y-113488924D01*
X109259523Y-113550829D02*
X109135713Y-113488924D01*
X109135713Y-113488924D02*
X108949999Y-113488924D01*
X108949999Y-113488924D02*
X108764285Y-113550829D01*
X108764285Y-113550829D02*
X108640475Y-113674639D01*
X108640475Y-113674639D02*
X108578570Y-113798448D01*
X108578570Y-113798448D02*
X108516666Y-114046067D01*
X108516666Y-114046067D02*
X108516666Y-114231781D01*
X108516666Y-114231781D02*
X108578570Y-114479400D01*
X108578570Y-114479400D02*
X108640475Y-114603210D01*
X108640475Y-114603210D02*
X108764285Y-114727020D01*
X108764285Y-114727020D02*
X108949999Y-114788924D01*
X108949999Y-114788924D02*
X109073808Y-114788924D01*
X109073808Y-114788924D02*
X109259523Y-114727020D01*
X109259523Y-114727020D02*
X109321427Y-114665115D01*
X109321427Y-114665115D02*
X109321427Y-114231781D01*
X109321427Y-114231781D02*
X109073808Y-114231781D01*
X110559523Y-113550829D02*
X110435713Y-113488924D01*
X110435713Y-113488924D02*
X110249999Y-113488924D01*
X110249999Y-113488924D02*
X110064285Y-113550829D01*
X110064285Y-113550829D02*
X109940475Y-113674639D01*
X109940475Y-113674639D02*
X109878570Y-113798448D01*
X109878570Y-113798448D02*
X109816666Y-114046067D01*
X109816666Y-114046067D02*
X109816666Y-114231781D01*
X109816666Y-114231781D02*
X109878570Y-114479400D01*
X109878570Y-114479400D02*
X109940475Y-114603210D01*
X109940475Y-114603210D02*
X110064285Y-114727020D01*
X110064285Y-114727020D02*
X110249999Y-114788924D01*
X110249999Y-114788924D02*
X110373808Y-114788924D01*
X110373808Y-114788924D02*
X110559523Y-114727020D01*
X110559523Y-114727020D02*
X110621427Y-114665115D01*
X110621427Y-114665115D02*
X110621427Y-114231781D01*
X110621427Y-114231781D02*
X110373808Y-114231781D01*
X111178570Y-114107972D02*
X111611904Y-114107972D01*
X111797618Y-114788924D02*
X111178570Y-114788924D01*
X111178570Y-114788924D02*
X111178570Y-113488924D01*
X111178570Y-113488924D02*
X111797618Y-113488924D01*
X113097617Y-114788924D02*
X112664284Y-114169877D01*
X112354760Y-114788924D02*
X112354760Y-113488924D01*
X112354760Y-113488924D02*
X112849998Y-113488924D01*
X112849998Y-113488924D02*
X112973808Y-113550829D01*
X112973808Y-113550829D02*
X113035713Y-113612734D01*
X113035713Y-113612734D02*
X113097617Y-113736543D01*
X113097617Y-113736543D02*
X113097617Y-113922258D01*
X113097617Y-113922258D02*
X113035713Y-114046067D01*
X113035713Y-114046067D02*
X112973808Y-114107972D01*
X112973808Y-114107972D02*
X112849998Y-114169877D01*
X112849998Y-114169877D02*
X112354760Y-114169877D01*
X114645236Y-114788924D02*
X114645236Y-113488924D01*
X114645236Y-114107972D02*
X115388093Y-114107972D01*
X115388093Y-114788924D02*
X115388093Y-113488924D01*
X115945237Y-114417496D02*
X116564284Y-114417496D01*
X115821427Y-114788924D02*
X116254760Y-113488924D01*
X116254760Y-113488924D02*
X116688094Y-114788924D01*
X116935713Y-113488924D02*
X117678570Y-113488924D01*
X117307142Y-114788924D02*
X117307142Y-113488924D01*
D11*
X96199999Y-151562295D02*
X96199999Y-152133723D01*
X96199999Y-152133723D02*
X96161904Y-152248009D01*
X96161904Y-152248009D02*
X96085713Y-152324200D01*
X96085713Y-152324200D02*
X95971428Y-152362295D01*
X95971428Y-152362295D02*
X95895237Y-152362295D01*
X96542856Y-151638485D02*
X96580952Y-151600390D01*
X96580952Y-151600390D02*
X96657142Y-151562295D01*
X96657142Y-151562295D02*
X96847618Y-151562295D01*
X96847618Y-151562295D02*
X96923809Y-151600390D01*
X96923809Y-151600390D02*
X96961904Y-151638485D01*
X96961904Y-151638485D02*
X96999999Y-151714676D01*
X96999999Y-151714676D02*
X96999999Y-151790866D01*
X96999999Y-151790866D02*
X96961904Y-151905152D01*
X96961904Y-151905152D02*
X96504761Y-152362295D01*
X96504761Y-152362295D02*
X96999999Y-152362295D01*
X97952381Y-151943247D02*
X98561905Y-151943247D01*
X98561905Y-152171819D02*
X97952381Y-152171819D01*
X99438095Y-151562295D02*
X99895238Y-151562295D01*
X99666666Y-152362295D02*
X99666666Y-151562295D01*
X100619048Y-152362295D02*
X100352381Y-151981342D01*
X100161905Y-152362295D02*
X100161905Y-151562295D01*
X100161905Y-151562295D02*
X100466667Y-151562295D01*
X100466667Y-151562295D02*
X100542857Y-151600390D01*
X100542857Y-151600390D02*
X100580952Y-151638485D01*
X100580952Y-151638485D02*
X100619048Y-151714676D01*
X100619048Y-151714676D02*
X100619048Y-151828961D01*
X100619048Y-151828961D02*
X100580952Y-151905152D01*
X100580952Y-151905152D02*
X100542857Y-151943247D01*
X100542857Y-151943247D02*
X100466667Y-151981342D01*
X100466667Y-151981342D02*
X100161905Y-151981342D01*
X100961905Y-152362295D02*
X100961905Y-151562295D01*
X101761904Y-151600390D02*
X101685714Y-151562295D01*
X101685714Y-151562295D02*
X101571428Y-151562295D01*
X101571428Y-151562295D02*
X101457142Y-151600390D01*
X101457142Y-151600390D02*
X101380952Y-151676580D01*
X101380952Y-151676580D02*
X101342857Y-151752771D01*
X101342857Y-151752771D02*
X101304761Y-151905152D01*
X101304761Y-151905152D02*
X101304761Y-152019438D01*
X101304761Y-152019438D02*
X101342857Y-152171819D01*
X101342857Y-152171819D02*
X101380952Y-152248009D01*
X101380952Y-152248009D02*
X101457142Y-152324200D01*
X101457142Y-152324200D02*
X101571428Y-152362295D01*
X101571428Y-152362295D02*
X101647619Y-152362295D01*
X101647619Y-152362295D02*
X101761904Y-152324200D01*
X101761904Y-152324200D02*
X101800000Y-152286104D01*
X101800000Y-152286104D02*
X101800000Y-152019438D01*
X101800000Y-152019438D02*
X101647619Y-152019438D01*
X102561904Y-151600390D02*
X102485714Y-151562295D01*
X102485714Y-151562295D02*
X102371428Y-151562295D01*
X102371428Y-151562295D02*
X102257142Y-151600390D01*
X102257142Y-151600390D02*
X102180952Y-151676580D01*
X102180952Y-151676580D02*
X102142857Y-151752771D01*
X102142857Y-151752771D02*
X102104761Y-151905152D01*
X102104761Y-151905152D02*
X102104761Y-152019438D01*
X102104761Y-152019438D02*
X102142857Y-152171819D01*
X102142857Y-152171819D02*
X102180952Y-152248009D01*
X102180952Y-152248009D02*
X102257142Y-152324200D01*
X102257142Y-152324200D02*
X102371428Y-152362295D01*
X102371428Y-152362295D02*
X102447619Y-152362295D01*
X102447619Y-152362295D02*
X102561904Y-152324200D01*
X102561904Y-152324200D02*
X102600000Y-152286104D01*
X102600000Y-152286104D02*
X102600000Y-152019438D01*
X102600000Y-152019438D02*
X102447619Y-152019438D01*
X102942857Y-151943247D02*
X103209523Y-151943247D01*
X103323809Y-152362295D02*
X102942857Y-152362295D01*
X102942857Y-152362295D02*
X102942857Y-151562295D01*
X102942857Y-151562295D02*
X103323809Y-151562295D01*
X104123810Y-152362295D02*
X103857143Y-151981342D01*
X103666667Y-152362295D02*
X103666667Y-151562295D01*
X103666667Y-151562295D02*
X103971429Y-151562295D01*
X103971429Y-151562295D02*
X104047619Y-151600390D01*
X104047619Y-151600390D02*
X104085714Y-151638485D01*
X104085714Y-151638485D02*
X104123810Y-151714676D01*
X104123810Y-151714676D02*
X104123810Y-151828961D01*
X104123810Y-151828961D02*
X104085714Y-151905152D01*
X104085714Y-151905152D02*
X104047619Y-151943247D01*
X104047619Y-151943247D02*
X103971429Y-151981342D01*
X103971429Y-151981342D02*
X103666667Y-151981342D01*
X105228572Y-151562295D02*
X105380953Y-151562295D01*
X105380953Y-151562295D02*
X105457143Y-151600390D01*
X105457143Y-151600390D02*
X105533334Y-151676580D01*
X105533334Y-151676580D02*
X105571429Y-151828961D01*
X105571429Y-151828961D02*
X105571429Y-152095628D01*
X105571429Y-152095628D02*
X105533334Y-152248009D01*
X105533334Y-152248009D02*
X105457143Y-152324200D01*
X105457143Y-152324200D02*
X105380953Y-152362295D01*
X105380953Y-152362295D02*
X105228572Y-152362295D01*
X105228572Y-152362295D02*
X105152381Y-152324200D01*
X105152381Y-152324200D02*
X105076191Y-152248009D01*
X105076191Y-152248009D02*
X105038095Y-152095628D01*
X105038095Y-152095628D02*
X105038095Y-151828961D01*
X105038095Y-151828961D02*
X105076191Y-151676580D01*
X105076191Y-151676580D02*
X105152381Y-151600390D01*
X105152381Y-151600390D02*
X105228572Y-151562295D01*
X105914286Y-151562295D02*
X105914286Y-152209914D01*
X105914286Y-152209914D02*
X105952381Y-152286104D01*
X105952381Y-152286104D02*
X105990476Y-152324200D01*
X105990476Y-152324200D02*
X106066667Y-152362295D01*
X106066667Y-152362295D02*
X106219048Y-152362295D01*
X106219048Y-152362295D02*
X106295238Y-152324200D01*
X106295238Y-152324200D02*
X106333333Y-152286104D01*
X106333333Y-152286104D02*
X106371429Y-152209914D01*
X106371429Y-152209914D02*
X106371429Y-151562295D01*
X106638095Y-151562295D02*
X107095238Y-151562295D01*
X106866666Y-152362295D02*
X106866666Y-151562295D01*
X107895238Y-151562295D02*
X108390476Y-151562295D01*
X108390476Y-151562295D02*
X108123810Y-151867057D01*
X108123810Y-151867057D02*
X108238095Y-151867057D01*
X108238095Y-151867057D02*
X108314286Y-151905152D01*
X108314286Y-151905152D02*
X108352381Y-151943247D01*
X108352381Y-151943247D02*
X108390476Y-152019438D01*
X108390476Y-152019438D02*
X108390476Y-152209914D01*
X108390476Y-152209914D02*
X108352381Y-152286104D01*
X108352381Y-152286104D02*
X108314286Y-152324200D01*
X108314286Y-152324200D02*
X108238095Y-152362295D01*
X108238095Y-152362295D02*
X108009524Y-152362295D01*
X108009524Y-152362295D02*
X107933333Y-152324200D01*
X107933333Y-152324200D02*
X107895238Y-152286104D01*
X108733334Y-152286104D02*
X108771429Y-152324200D01*
X108771429Y-152324200D02*
X108733334Y-152362295D01*
X108733334Y-152362295D02*
X108695238Y-152324200D01*
X108695238Y-152324200D02*
X108733334Y-152286104D01*
X108733334Y-152286104D02*
X108733334Y-152362295D01*
X109495238Y-151562295D02*
X109114286Y-151562295D01*
X109114286Y-151562295D02*
X109076190Y-151943247D01*
X109076190Y-151943247D02*
X109114286Y-151905152D01*
X109114286Y-151905152D02*
X109190476Y-151867057D01*
X109190476Y-151867057D02*
X109380952Y-151867057D01*
X109380952Y-151867057D02*
X109457143Y-151905152D01*
X109457143Y-151905152D02*
X109495238Y-151943247D01*
X109495238Y-151943247D02*
X109533333Y-152019438D01*
X109533333Y-152019438D02*
X109533333Y-152209914D01*
X109533333Y-152209914D02*
X109495238Y-152286104D01*
X109495238Y-152286104D02*
X109457143Y-152324200D01*
X109457143Y-152324200D02*
X109380952Y-152362295D01*
X109380952Y-152362295D02*
X109190476Y-152362295D01*
X109190476Y-152362295D02*
X109114286Y-152324200D01*
X109114286Y-152324200D02*
X109076190Y-152286104D01*
X109876191Y-152362295D02*
X109876191Y-151828961D01*
X109876191Y-151905152D02*
X109914286Y-151867057D01*
X109914286Y-151867057D02*
X109990476Y-151828961D01*
X109990476Y-151828961D02*
X110104762Y-151828961D01*
X110104762Y-151828961D02*
X110180953Y-151867057D01*
X110180953Y-151867057D02*
X110219048Y-151943247D01*
X110219048Y-151943247D02*
X110219048Y-152362295D01*
X110219048Y-151943247D02*
X110257143Y-151867057D01*
X110257143Y-151867057D02*
X110333334Y-151828961D01*
X110333334Y-151828961D02*
X110447619Y-151828961D01*
X110447619Y-151828961D02*
X110523810Y-151867057D01*
X110523810Y-151867057D02*
X110561905Y-151943247D01*
X110561905Y-151943247D02*
X110561905Y-152362295D01*
X110942858Y-152362295D02*
X110942858Y-151828961D01*
X110942858Y-151905152D02*
X110980953Y-151867057D01*
X110980953Y-151867057D02*
X111057143Y-151828961D01*
X111057143Y-151828961D02*
X111171429Y-151828961D01*
X111171429Y-151828961D02*
X111247620Y-151867057D01*
X111247620Y-151867057D02*
X111285715Y-151943247D01*
X111285715Y-151943247D02*
X111285715Y-152362295D01*
X111285715Y-151943247D02*
X111323810Y-151867057D01*
X111323810Y-151867057D02*
X111400001Y-151828961D01*
X111400001Y-151828961D02*
X111514286Y-151828961D01*
X111514286Y-151828961D02*
X111590477Y-151867057D01*
X111590477Y-151867057D02*
X111628572Y-151943247D01*
X111628572Y-151943247D02*
X111628572Y-152362295D01*
X112504763Y-151562295D02*
X112961906Y-151562295D01*
X112733334Y-152362295D02*
X112733334Y-151562295D01*
X113228573Y-152362295D02*
X113228573Y-151562295D01*
X113609525Y-152362295D02*
X113609525Y-151562295D01*
X113609525Y-151562295D02*
X113914287Y-151562295D01*
X113914287Y-151562295D02*
X113990477Y-151600390D01*
X113990477Y-151600390D02*
X114028572Y-151638485D01*
X114028572Y-151638485D02*
X114066668Y-151714676D01*
X114066668Y-151714676D02*
X114066668Y-151828961D01*
X114066668Y-151828961D02*
X114028572Y-151905152D01*
X114028572Y-151905152D02*
X113990477Y-151943247D01*
X113990477Y-151943247D02*
X113914287Y-151981342D01*
X113914287Y-151981342D02*
X113609525Y-151981342D01*
X103738095Y-140806819D02*
X104309523Y-140806819D01*
X104023809Y-141806819D02*
X104023809Y-140806819D01*
X104642857Y-141806819D02*
X104642857Y-140806819D01*
X104642857Y-140806819D02*
X105023809Y-140806819D01*
X105023809Y-140806819D02*
X105119047Y-140854438D01*
X105119047Y-140854438D02*
X105166666Y-140902057D01*
X105166666Y-140902057D02*
X105214285Y-140997295D01*
X105214285Y-140997295D02*
X105214285Y-141140152D01*
X105214285Y-141140152D02*
X105166666Y-141235390D01*
X105166666Y-141235390D02*
X105119047Y-141283009D01*
X105119047Y-141283009D02*
X105023809Y-141330628D01*
X105023809Y-141330628D02*
X104642857Y-141330628D01*
X106119047Y-140806819D02*
X105642857Y-140806819D01*
X105642857Y-140806819D02*
X105595238Y-141283009D01*
X105595238Y-141283009D02*
X105642857Y-141235390D01*
X105642857Y-141235390D02*
X105738095Y-141187771D01*
X105738095Y-141187771D02*
X105976190Y-141187771D01*
X105976190Y-141187771D02*
X106071428Y-141235390D01*
X106071428Y-141235390D02*
X106119047Y-141283009D01*
X106119047Y-141283009D02*
X106166666Y-141378247D01*
X106166666Y-141378247D02*
X106166666Y-141616342D01*
X106166666Y-141616342D02*
X106119047Y-141711580D01*
X106119047Y-141711580D02*
X106071428Y-141759200D01*
X106071428Y-141759200D02*
X105976190Y-141806819D01*
X105976190Y-141806819D02*
X105738095Y-141806819D01*
X105738095Y-141806819D02*
X105642857Y-141759200D01*
X105642857Y-141759200D02*
X105595238Y-141711580D01*
X140238095Y-131454819D02*
X140238095Y-132264342D01*
X140238095Y-132264342D02*
X140285714Y-132359580D01*
X140285714Y-132359580D02*
X140333333Y-132407200D01*
X140333333Y-132407200D02*
X140428571Y-132454819D01*
X140428571Y-132454819D02*
X140619047Y-132454819D01*
X140619047Y-132454819D02*
X140714285Y-132407200D01*
X140714285Y-132407200D02*
X140761904Y-132359580D01*
X140761904Y-132359580D02*
X140809523Y-132264342D01*
X140809523Y-132264342D02*
X140809523Y-131454819D01*
X141238095Y-131550057D02*
X141285714Y-131502438D01*
X141285714Y-131502438D02*
X141380952Y-131454819D01*
X141380952Y-131454819D02*
X141619047Y-131454819D01*
X141619047Y-131454819D02*
X141714285Y-131502438D01*
X141714285Y-131502438D02*
X141761904Y-131550057D01*
X141761904Y-131550057D02*
X141809523Y-131645295D01*
X141809523Y-131645295D02*
X141809523Y-131740533D01*
X141809523Y-131740533D02*
X141761904Y-131883390D01*
X141761904Y-131883390D02*
X141190476Y-132454819D01*
X141190476Y-132454819D02*
X141809523Y-132454819D01*
X122238095Y-114604819D02*
X122238095Y-113604819D01*
X122238095Y-114081009D02*
X122809523Y-114081009D01*
X122809523Y-114604819D02*
X122809523Y-113604819D01*
X123809523Y-114604819D02*
X123238095Y-114604819D01*
X123523809Y-114604819D02*
X123523809Y-113604819D01*
X123523809Y-113604819D02*
X123428571Y-113747676D01*
X123428571Y-113747676D02*
X123333333Y-113842914D01*
X123333333Y-113842914D02*
X123238095Y-113890533D01*
X129166666Y-113751009D02*
X128833333Y-113751009D01*
X128833333Y-114274819D02*
X128833333Y-113274819D01*
X128833333Y-113274819D02*
X129309523Y-113274819D01*
X130214285Y-114274819D02*
X129642857Y-114274819D01*
X129928571Y-114274819D02*
X129928571Y-113274819D01*
X129928571Y-113274819D02*
X129833333Y-113417676D01*
X129833333Y-113417676D02*
X129738095Y-113512914D01*
X129738095Y-113512914D02*
X129642857Y-113560533D01*
X132433333Y-126709580D02*
X132385714Y-126757200D01*
X132385714Y-126757200D02*
X132242857Y-126804819D01*
X132242857Y-126804819D02*
X132147619Y-126804819D01*
X132147619Y-126804819D02*
X132004762Y-126757200D01*
X132004762Y-126757200D02*
X131909524Y-126661961D01*
X131909524Y-126661961D02*
X131861905Y-126566723D01*
X131861905Y-126566723D02*
X131814286Y-126376247D01*
X131814286Y-126376247D02*
X131814286Y-126233390D01*
X131814286Y-126233390D02*
X131861905Y-126042914D01*
X131861905Y-126042914D02*
X131909524Y-125947676D01*
X131909524Y-125947676D02*
X132004762Y-125852438D01*
X132004762Y-125852438D02*
X132147619Y-125804819D01*
X132147619Y-125804819D02*
X132242857Y-125804819D01*
X132242857Y-125804819D02*
X132385714Y-125852438D01*
X132385714Y-125852438D02*
X132433333Y-125900057D01*
X133385714Y-126804819D02*
X132814286Y-126804819D01*
X133100000Y-126804819D02*
X133100000Y-125804819D01*
X133100000Y-125804819D02*
X133004762Y-125947676D01*
X133004762Y-125947676D02*
X132909524Y-126042914D01*
X132909524Y-126042914D02*
X132814286Y-126090533D01*
X130238095Y-117806819D02*
X130809523Y-117806819D01*
X130523809Y-118806819D02*
X130523809Y-117806819D01*
X131142857Y-118806819D02*
X131142857Y-117806819D01*
X131142857Y-117806819D02*
X131523809Y-117806819D01*
X131523809Y-117806819D02*
X131619047Y-117854438D01*
X131619047Y-117854438D02*
X131666666Y-117902057D01*
X131666666Y-117902057D02*
X131714285Y-117997295D01*
X131714285Y-117997295D02*
X131714285Y-118140152D01*
X131714285Y-118140152D02*
X131666666Y-118235390D01*
X131666666Y-118235390D02*
X131619047Y-118283009D01*
X131619047Y-118283009D02*
X131523809Y-118330628D01*
X131523809Y-118330628D02*
X131142857Y-118330628D01*
X132666666Y-118806819D02*
X132095238Y-118806819D01*
X132380952Y-118806819D02*
X132380952Y-117806819D01*
X132380952Y-117806819D02*
X132285714Y-117949676D01*
X132285714Y-117949676D02*
X132190476Y-118044914D01*
X132190476Y-118044914D02*
X132095238Y-118092533D01*
X122738095Y-143604819D02*
X122738095Y-142604819D01*
X122738095Y-143081009D02*
X123309523Y-143081009D01*
X123309523Y-143604819D02*
X123309523Y-142604819D01*
X123738095Y-142700057D02*
X123785714Y-142652438D01*
X123785714Y-142652438D02*
X123880952Y-142604819D01*
X123880952Y-142604819D02*
X124119047Y-142604819D01*
X124119047Y-142604819D02*
X124214285Y-142652438D01*
X124214285Y-142652438D02*
X124261904Y-142700057D01*
X124261904Y-142700057D02*
X124309523Y-142795295D01*
X124309523Y-142795295D02*
X124309523Y-142890533D01*
X124309523Y-142890533D02*
X124261904Y-143033390D01*
X124261904Y-143033390D02*
X123690476Y-143604819D01*
X123690476Y-143604819D02*
X124309523Y-143604819D01*
X138333333Y-136709580D02*
X138285714Y-136757200D01*
X138285714Y-136757200D02*
X138142857Y-136804819D01*
X138142857Y-136804819D02*
X138047619Y-136804819D01*
X138047619Y-136804819D02*
X137904762Y-136757200D01*
X137904762Y-136757200D02*
X137809524Y-136661961D01*
X137809524Y-136661961D02*
X137761905Y-136566723D01*
X137761905Y-136566723D02*
X137714286Y-136376247D01*
X137714286Y-136376247D02*
X137714286Y-136233390D01*
X137714286Y-136233390D02*
X137761905Y-136042914D01*
X137761905Y-136042914D02*
X137809524Y-135947676D01*
X137809524Y-135947676D02*
X137904762Y-135852438D01*
X137904762Y-135852438D02*
X138047619Y-135804819D01*
X138047619Y-135804819D02*
X138142857Y-135804819D01*
X138142857Y-135804819D02*
X138285714Y-135852438D01*
X138285714Y-135852438D02*
X138333333Y-135900057D01*
X138714286Y-135900057D02*
X138761905Y-135852438D01*
X138761905Y-135852438D02*
X138857143Y-135804819D01*
X138857143Y-135804819D02*
X139095238Y-135804819D01*
X139095238Y-135804819D02*
X139190476Y-135852438D01*
X139190476Y-135852438D02*
X139238095Y-135900057D01*
X139238095Y-135900057D02*
X139285714Y-135995295D01*
X139285714Y-135995295D02*
X139285714Y-136090533D01*
X139285714Y-136090533D02*
X139238095Y-136233390D01*
X139238095Y-136233390D02*
X138666667Y-136804819D01*
X138666667Y-136804819D02*
X139285714Y-136804819D01*
X130238095Y-147806819D02*
X130809523Y-147806819D01*
X130523809Y-148806819D02*
X130523809Y-147806819D01*
X131142857Y-148806819D02*
X131142857Y-147806819D01*
X131142857Y-147806819D02*
X131523809Y-147806819D01*
X131523809Y-147806819D02*
X131619047Y-147854438D01*
X131619047Y-147854438D02*
X131666666Y-147902057D01*
X131666666Y-147902057D02*
X131714285Y-147997295D01*
X131714285Y-147997295D02*
X131714285Y-148140152D01*
X131714285Y-148140152D02*
X131666666Y-148235390D01*
X131666666Y-148235390D02*
X131619047Y-148283009D01*
X131619047Y-148283009D02*
X131523809Y-148330628D01*
X131523809Y-148330628D02*
X131142857Y-148330628D01*
X132047619Y-147806819D02*
X132666666Y-147806819D01*
X132666666Y-147806819D02*
X132333333Y-148187771D01*
X132333333Y-148187771D02*
X132476190Y-148187771D01*
X132476190Y-148187771D02*
X132571428Y-148235390D01*
X132571428Y-148235390D02*
X132619047Y-148283009D01*
X132619047Y-148283009D02*
X132666666Y-148378247D01*
X132666666Y-148378247D02*
X132666666Y-148616342D01*
X132666666Y-148616342D02*
X132619047Y-148711580D01*
X132619047Y-148711580D02*
X132571428Y-148759200D01*
X132571428Y-148759200D02*
X132476190Y-148806819D01*
X132476190Y-148806819D02*
X132190476Y-148806819D01*
X132190476Y-148806819D02*
X132095238Y-148759200D01*
X132095238Y-148759200D02*
X132047619Y-148711580D01*
X123238095Y-134354819D02*
X123238095Y-135164342D01*
X123238095Y-135164342D02*
X123285714Y-135259580D01*
X123285714Y-135259580D02*
X123333333Y-135307200D01*
X123333333Y-135307200D02*
X123428571Y-135354819D01*
X123428571Y-135354819D02*
X123619047Y-135354819D01*
X123619047Y-135354819D02*
X123714285Y-135307200D01*
X123714285Y-135307200D02*
X123761904Y-135259580D01*
X123761904Y-135259580D02*
X123809523Y-135164342D01*
X123809523Y-135164342D02*
X123809523Y-134354819D01*
X124809523Y-135354819D02*
X124238095Y-135354819D01*
X124523809Y-135354819D02*
X124523809Y-134354819D01*
X124523809Y-134354819D02*
X124428571Y-134497676D01*
X124428571Y-134497676D02*
X124333333Y-134592914D01*
X124333333Y-134592914D02*
X124238095Y-134640533D01*
X120333333Y-130804819D02*
X120000000Y-130328628D01*
X119761905Y-130804819D02*
X119761905Y-129804819D01*
X119761905Y-129804819D02*
X120142857Y-129804819D01*
X120142857Y-129804819D02*
X120238095Y-129852438D01*
X120238095Y-129852438D02*
X120285714Y-129900057D01*
X120285714Y-129900057D02*
X120333333Y-129995295D01*
X120333333Y-129995295D02*
X120333333Y-130138152D01*
X120333333Y-130138152D02*
X120285714Y-130233390D01*
X120285714Y-130233390D02*
X120238095Y-130281009D01*
X120238095Y-130281009D02*
X120142857Y-130328628D01*
X120142857Y-130328628D02*
X119761905Y-130328628D01*
X121285714Y-130804819D02*
X120714286Y-130804819D01*
X121000000Y-130804819D02*
X121000000Y-129804819D01*
X121000000Y-129804819D02*
X120904762Y-129947676D01*
X120904762Y-129947676D02*
X120809524Y-130042914D01*
X120809524Y-130042914D02*
X120714286Y-130090533D01*
X147222493Y-110654819D02*
X147222493Y-111369104D01*
X147222493Y-111369104D02*
X147174874Y-111511961D01*
X147174874Y-111511961D02*
X147079636Y-111607200D01*
X147079636Y-111607200D02*
X146936779Y-111654819D01*
X146936779Y-111654819D02*
X146841541Y-111654819D01*
X148222493Y-111654819D02*
X147651065Y-111654819D01*
X147936779Y-111654819D02*
X147936779Y-110654819D01*
X147936779Y-110654819D02*
X147841541Y-110797676D01*
X147841541Y-110797676D02*
X147746303Y-110892914D01*
X147746303Y-110892914D02*
X147651065Y-110940533D01*
X132738095Y-128806819D02*
X133309523Y-128806819D01*
X133023809Y-129806819D02*
X133023809Y-128806819D01*
X133642857Y-129806819D02*
X133642857Y-128806819D01*
X133642857Y-128806819D02*
X134023809Y-128806819D01*
X134023809Y-128806819D02*
X134119047Y-128854438D01*
X134119047Y-128854438D02*
X134166666Y-128902057D01*
X134166666Y-128902057D02*
X134214285Y-128997295D01*
X134214285Y-128997295D02*
X134214285Y-129140152D01*
X134214285Y-129140152D02*
X134166666Y-129235390D01*
X134166666Y-129235390D02*
X134119047Y-129283009D01*
X134119047Y-129283009D02*
X134023809Y-129330628D01*
X134023809Y-129330628D02*
X133642857Y-129330628D01*
X134595238Y-128902057D02*
X134642857Y-128854438D01*
X134642857Y-128854438D02*
X134738095Y-128806819D01*
X134738095Y-128806819D02*
X134976190Y-128806819D01*
X134976190Y-128806819D02*
X135071428Y-128854438D01*
X135071428Y-128854438D02*
X135119047Y-128902057D01*
X135119047Y-128902057D02*
X135166666Y-128997295D01*
X135166666Y-128997295D02*
X135166666Y-129092533D01*
X135166666Y-129092533D02*
X135119047Y-129235390D01*
X135119047Y-129235390D02*
X134547619Y-129806819D01*
X134547619Y-129806819D02*
X135166666Y-129806819D01*
X125811905Y-151254819D02*
X125811905Y-150254819D01*
X125811905Y-150254819D02*
X126050000Y-150254819D01*
X126050000Y-150254819D02*
X126192857Y-150302438D01*
X126192857Y-150302438D02*
X126288095Y-150397676D01*
X126288095Y-150397676D02*
X126335714Y-150492914D01*
X126335714Y-150492914D02*
X126383333Y-150683390D01*
X126383333Y-150683390D02*
X126383333Y-150826247D01*
X126383333Y-150826247D02*
X126335714Y-151016723D01*
X126335714Y-151016723D02*
X126288095Y-151111961D01*
X126288095Y-151111961D02*
X126192857Y-151207200D01*
X126192857Y-151207200D02*
X126050000Y-151254819D01*
X126050000Y-151254819D02*
X125811905Y-151254819D01*
X127288095Y-150254819D02*
X126811905Y-150254819D01*
X126811905Y-150254819D02*
X126764286Y-150731009D01*
X126764286Y-150731009D02*
X126811905Y-150683390D01*
X126811905Y-150683390D02*
X126907143Y-150635771D01*
X126907143Y-150635771D02*
X127145238Y-150635771D01*
X127145238Y-150635771D02*
X127240476Y-150683390D01*
X127240476Y-150683390D02*
X127288095Y-150731009D01*
X127288095Y-150731009D02*
X127335714Y-150826247D01*
X127335714Y-150826247D02*
X127335714Y-151064342D01*
X127335714Y-151064342D02*
X127288095Y-151159580D01*
X127288095Y-151159580D02*
X127240476Y-151207200D01*
X127240476Y-151207200D02*
X127145238Y-151254819D01*
X127145238Y-151254819D02*
X126907143Y-151254819D01*
X126907143Y-151254819D02*
X126811905Y-151207200D01*
X126811905Y-151207200D02*
X126764286Y-151159580D01*
X91106666Y-119904819D02*
X91106666Y-120619104D01*
X91106666Y-120619104D02*
X91059047Y-120761961D01*
X91059047Y-120761961D02*
X90963809Y-120857200D01*
X90963809Y-120857200D02*
X90820952Y-120904819D01*
X90820952Y-120904819D02*
X90725714Y-120904819D01*
X91487619Y-119904819D02*
X92106666Y-119904819D01*
X92106666Y-119904819D02*
X91773333Y-120285771D01*
X91773333Y-120285771D02*
X91916190Y-120285771D01*
X91916190Y-120285771D02*
X92011428Y-120333390D01*
X92011428Y-120333390D02*
X92059047Y-120381009D01*
X92059047Y-120381009D02*
X92106666Y-120476247D01*
X92106666Y-120476247D02*
X92106666Y-120714342D01*
X92106666Y-120714342D02*
X92059047Y-120809580D01*
X92059047Y-120809580D02*
X92011428Y-120857200D01*
X92011428Y-120857200D02*
X91916190Y-120904819D01*
X91916190Y-120904819D02*
X91630476Y-120904819D01*
X91630476Y-120904819D02*
X91535238Y-120857200D01*
X91535238Y-120857200D02*
X91487619Y-120809580D01*
X142833333Y-134804819D02*
X142500000Y-134328628D01*
X142261905Y-134804819D02*
X142261905Y-133804819D01*
X142261905Y-133804819D02*
X142642857Y-133804819D01*
X142642857Y-133804819D02*
X142738095Y-133852438D01*
X142738095Y-133852438D02*
X142785714Y-133900057D01*
X142785714Y-133900057D02*
X142833333Y-133995295D01*
X142833333Y-133995295D02*
X142833333Y-134138152D01*
X142833333Y-134138152D02*
X142785714Y-134233390D01*
X142785714Y-134233390D02*
X142738095Y-134281009D01*
X142738095Y-134281009D02*
X142642857Y-134328628D01*
X142642857Y-134328628D02*
X142261905Y-134328628D01*
X143738095Y-133804819D02*
X143261905Y-133804819D01*
X143261905Y-133804819D02*
X143214286Y-134281009D01*
X143214286Y-134281009D02*
X143261905Y-134233390D01*
X143261905Y-134233390D02*
X143357143Y-134185771D01*
X143357143Y-134185771D02*
X143595238Y-134185771D01*
X143595238Y-134185771D02*
X143690476Y-134233390D01*
X143690476Y-134233390D02*
X143738095Y-134281009D01*
X143738095Y-134281009D02*
X143785714Y-134376247D01*
X143785714Y-134376247D02*
X143785714Y-134614342D01*
X143785714Y-134614342D02*
X143738095Y-134709580D01*
X143738095Y-134709580D02*
X143690476Y-134757200D01*
X143690476Y-134757200D02*
X143595238Y-134804819D01*
X143595238Y-134804819D02*
X143357143Y-134804819D01*
X143357143Y-134804819D02*
X143261905Y-134757200D01*
X143261905Y-134757200D02*
X143214286Y-134709580D01*
X129683333Y-147654819D02*
X129350000Y-147178628D01*
X129111905Y-147654819D02*
X129111905Y-146654819D01*
X129111905Y-146654819D02*
X129492857Y-146654819D01*
X129492857Y-146654819D02*
X129588095Y-146702438D01*
X129588095Y-146702438D02*
X129635714Y-146750057D01*
X129635714Y-146750057D02*
X129683333Y-146845295D01*
X129683333Y-146845295D02*
X129683333Y-146988152D01*
X129683333Y-146988152D02*
X129635714Y-147083390D01*
X129635714Y-147083390D02*
X129588095Y-147131009D01*
X129588095Y-147131009D02*
X129492857Y-147178628D01*
X129492857Y-147178628D02*
X129111905Y-147178628D01*
X130016667Y-146654819D02*
X130683333Y-146654819D01*
X130683333Y-146654819D02*
X130254762Y-147654819D01*
X138761905Y-141104819D02*
X138761905Y-140104819D01*
X138761905Y-140104819D02*
X139000000Y-140104819D01*
X139000000Y-140104819D02*
X139142857Y-140152438D01*
X139142857Y-140152438D02*
X139238095Y-140247676D01*
X139238095Y-140247676D02*
X139285714Y-140342914D01*
X139285714Y-140342914D02*
X139333333Y-140533390D01*
X139333333Y-140533390D02*
X139333333Y-140676247D01*
X139333333Y-140676247D02*
X139285714Y-140866723D01*
X139285714Y-140866723D02*
X139238095Y-140961961D01*
X139238095Y-140961961D02*
X139142857Y-141057200D01*
X139142857Y-141057200D02*
X139000000Y-141104819D01*
X139000000Y-141104819D02*
X138761905Y-141104819D01*
X139666667Y-140104819D02*
X140285714Y-140104819D01*
X140285714Y-140104819D02*
X139952381Y-140485771D01*
X139952381Y-140485771D02*
X140095238Y-140485771D01*
X140095238Y-140485771D02*
X140190476Y-140533390D01*
X140190476Y-140533390D02*
X140238095Y-140581009D01*
X140238095Y-140581009D02*
X140285714Y-140676247D01*
X140285714Y-140676247D02*
X140285714Y-140914342D01*
X140285714Y-140914342D02*
X140238095Y-141009580D01*
X140238095Y-141009580D02*
X140190476Y-141057200D01*
X140190476Y-141057200D02*
X140095238Y-141104819D01*
X140095238Y-141104819D02*
X139809524Y-141104819D01*
X139809524Y-141104819D02*
X139714286Y-141057200D01*
X139714286Y-141057200D02*
X139666667Y-141009580D01*
X111833333Y-130914819D02*
X111500000Y-130438628D01*
X111261905Y-130914819D02*
X111261905Y-129914819D01*
X111261905Y-129914819D02*
X111642857Y-129914819D01*
X111642857Y-129914819D02*
X111738095Y-129962438D01*
X111738095Y-129962438D02*
X111785714Y-130010057D01*
X111785714Y-130010057D02*
X111833333Y-130105295D01*
X111833333Y-130105295D02*
X111833333Y-130248152D01*
X111833333Y-130248152D02*
X111785714Y-130343390D01*
X111785714Y-130343390D02*
X111738095Y-130391009D01*
X111738095Y-130391009D02*
X111642857Y-130438628D01*
X111642857Y-130438628D02*
X111261905Y-130438628D01*
X112214286Y-130010057D02*
X112261905Y-129962438D01*
X112261905Y-129962438D02*
X112357143Y-129914819D01*
X112357143Y-129914819D02*
X112595238Y-129914819D01*
X112595238Y-129914819D02*
X112690476Y-129962438D01*
X112690476Y-129962438D02*
X112738095Y-130010057D01*
X112738095Y-130010057D02*
X112785714Y-130105295D01*
X112785714Y-130105295D02*
X112785714Y-130200533D01*
X112785714Y-130200533D02*
X112738095Y-130343390D01*
X112738095Y-130343390D02*
X112166667Y-130914819D01*
X112166667Y-130914819D02*
X112785714Y-130914819D01*
X129161905Y-153454819D02*
X129161905Y-152454819D01*
X129161905Y-152454819D02*
X129400000Y-152454819D01*
X129400000Y-152454819D02*
X129542857Y-152502438D01*
X129542857Y-152502438D02*
X129638095Y-152597676D01*
X129638095Y-152597676D02*
X129685714Y-152692914D01*
X129685714Y-152692914D02*
X129733333Y-152883390D01*
X129733333Y-152883390D02*
X129733333Y-153026247D01*
X129733333Y-153026247D02*
X129685714Y-153216723D01*
X129685714Y-153216723D02*
X129638095Y-153311961D01*
X129638095Y-153311961D02*
X129542857Y-153407200D01*
X129542857Y-153407200D02*
X129400000Y-153454819D01*
X129400000Y-153454819D02*
X129161905Y-153454819D01*
X130590476Y-152788152D02*
X130590476Y-153454819D01*
X130352381Y-152407200D02*
X130114286Y-153121485D01*
X130114286Y-153121485D02*
X130733333Y-153121485D01*
X126383333Y-143754819D02*
X126050000Y-143278628D01*
X125811905Y-143754819D02*
X125811905Y-142754819D01*
X125811905Y-142754819D02*
X126192857Y-142754819D01*
X126192857Y-142754819D02*
X126288095Y-142802438D01*
X126288095Y-142802438D02*
X126335714Y-142850057D01*
X126335714Y-142850057D02*
X126383333Y-142945295D01*
X126383333Y-142945295D02*
X126383333Y-143088152D01*
X126383333Y-143088152D02*
X126335714Y-143183390D01*
X126335714Y-143183390D02*
X126288095Y-143231009D01*
X126288095Y-143231009D02*
X126192857Y-143278628D01*
X126192857Y-143278628D02*
X125811905Y-143278628D01*
X126716667Y-142754819D02*
X127335714Y-142754819D01*
X127335714Y-142754819D02*
X127002381Y-143135771D01*
X127002381Y-143135771D02*
X127145238Y-143135771D01*
X127145238Y-143135771D02*
X127240476Y-143183390D01*
X127240476Y-143183390D02*
X127288095Y-143231009D01*
X127288095Y-143231009D02*
X127335714Y-143326247D01*
X127335714Y-143326247D02*
X127335714Y-143564342D01*
X127335714Y-143564342D02*
X127288095Y-143659580D01*
X127288095Y-143659580D02*
X127240476Y-143707200D01*
X127240476Y-143707200D02*
X127145238Y-143754819D01*
X127145238Y-143754819D02*
X126859524Y-143754819D01*
X126859524Y-143754819D02*
X126764286Y-143707200D01*
X126764286Y-143707200D02*
X126716667Y-143659580D01*
X129961905Y-126954819D02*
X129961905Y-125954819D01*
X129961905Y-125954819D02*
X130200000Y-125954819D01*
X130200000Y-125954819D02*
X130342857Y-126002438D01*
X130342857Y-126002438D02*
X130438095Y-126097676D01*
X130438095Y-126097676D02*
X130485714Y-126192914D01*
X130485714Y-126192914D02*
X130533333Y-126383390D01*
X130533333Y-126383390D02*
X130533333Y-126526247D01*
X130533333Y-126526247D02*
X130485714Y-126716723D01*
X130485714Y-126716723D02*
X130438095Y-126811961D01*
X130438095Y-126811961D02*
X130342857Y-126907200D01*
X130342857Y-126907200D02*
X130200000Y-126954819D01*
X130200000Y-126954819D02*
X129961905Y-126954819D01*
X130914286Y-126050057D02*
X130961905Y-126002438D01*
X130961905Y-126002438D02*
X131057143Y-125954819D01*
X131057143Y-125954819D02*
X131295238Y-125954819D01*
X131295238Y-125954819D02*
X131390476Y-126002438D01*
X131390476Y-126002438D02*
X131438095Y-126050057D01*
X131438095Y-126050057D02*
X131485714Y-126145295D01*
X131485714Y-126145295D02*
X131485714Y-126240533D01*
X131485714Y-126240533D02*
X131438095Y-126383390D01*
X131438095Y-126383390D02*
X130866667Y-126954819D01*
X130866667Y-126954819D02*
X131485714Y-126954819D01*
X130738095Y-142806819D02*
X131309523Y-142806819D01*
X131023809Y-143806819D02*
X131023809Y-142806819D01*
X131642857Y-143806819D02*
X131642857Y-142806819D01*
X131642857Y-142806819D02*
X132023809Y-142806819D01*
X132023809Y-142806819D02*
X132119047Y-142854438D01*
X132119047Y-142854438D02*
X132166666Y-142902057D01*
X132166666Y-142902057D02*
X132214285Y-142997295D01*
X132214285Y-142997295D02*
X132214285Y-143140152D01*
X132214285Y-143140152D02*
X132166666Y-143235390D01*
X132166666Y-143235390D02*
X132119047Y-143283009D01*
X132119047Y-143283009D02*
X132023809Y-143330628D01*
X132023809Y-143330628D02*
X131642857Y-143330628D01*
X133071428Y-143140152D02*
X133071428Y-143806819D01*
X132833333Y-142759200D02*
X132595238Y-143473485D01*
X132595238Y-143473485D02*
X133214285Y-143473485D01*
X132516666Y-147954819D02*
X132516666Y-148669104D01*
X132516666Y-148669104D02*
X132469047Y-148811961D01*
X132469047Y-148811961D02*
X132373809Y-148907200D01*
X132373809Y-148907200D02*
X132230952Y-148954819D01*
X132230952Y-148954819D02*
X132135714Y-148954819D01*
X132945238Y-148050057D02*
X132992857Y-148002438D01*
X132992857Y-148002438D02*
X133088095Y-147954819D01*
X133088095Y-147954819D02*
X133326190Y-147954819D01*
X133326190Y-147954819D02*
X133421428Y-148002438D01*
X133421428Y-148002438D02*
X133469047Y-148050057D01*
X133469047Y-148050057D02*
X133516666Y-148145295D01*
X133516666Y-148145295D02*
X133516666Y-148240533D01*
X133516666Y-148240533D02*
X133469047Y-148383390D01*
X133469047Y-148383390D02*
X132897619Y-148954819D01*
X132897619Y-148954819D02*
X133516666Y-148954819D01*
X116506666Y-119904819D02*
X116506666Y-120619104D01*
X116506666Y-120619104D02*
X116459047Y-120761961D01*
X116459047Y-120761961D02*
X116363809Y-120857200D01*
X116363809Y-120857200D02*
X116220952Y-120904819D01*
X116220952Y-120904819D02*
X116125714Y-120904819D01*
X117411428Y-120238152D02*
X117411428Y-120904819D01*
X117173333Y-119857200D02*
X116935238Y-120571485D01*
X116935238Y-120571485D02*
X117554285Y-120571485D01*
X142833333Y-135104819D02*
X142500000Y-134628628D01*
X142261905Y-135104819D02*
X142261905Y-134104819D01*
X142261905Y-134104819D02*
X142642857Y-134104819D01*
X142642857Y-134104819D02*
X142738095Y-134152438D01*
X142738095Y-134152438D02*
X142785714Y-134200057D01*
X142785714Y-134200057D02*
X142833333Y-134295295D01*
X142833333Y-134295295D02*
X142833333Y-134438152D01*
X142833333Y-134438152D02*
X142785714Y-134533390D01*
X142785714Y-134533390D02*
X142738095Y-134581009D01*
X142738095Y-134581009D02*
X142642857Y-134628628D01*
X142642857Y-134628628D02*
X142261905Y-134628628D01*
X143690476Y-134438152D02*
X143690476Y-135104819D01*
X143452381Y-134057200D02*
X143214286Y-134771485D01*
X143214286Y-134771485D02*
X143833333Y-134771485D01*
X135833333Y-137804819D02*
X135500000Y-137328628D01*
X135261905Y-137804819D02*
X135261905Y-136804819D01*
X135261905Y-136804819D02*
X135642857Y-136804819D01*
X135642857Y-136804819D02*
X135738095Y-136852438D01*
X135738095Y-136852438D02*
X135785714Y-136900057D01*
X135785714Y-136900057D02*
X135833333Y-136995295D01*
X135833333Y-136995295D02*
X135833333Y-137138152D01*
X135833333Y-137138152D02*
X135785714Y-137233390D01*
X135785714Y-137233390D02*
X135738095Y-137281009D01*
X135738095Y-137281009D02*
X135642857Y-137328628D01*
X135642857Y-137328628D02*
X135261905Y-137328628D01*
X136690476Y-136804819D02*
X136500000Y-136804819D01*
X136500000Y-136804819D02*
X136404762Y-136852438D01*
X136404762Y-136852438D02*
X136357143Y-136900057D01*
X136357143Y-136900057D02*
X136261905Y-137042914D01*
X136261905Y-137042914D02*
X136214286Y-137233390D01*
X136214286Y-137233390D02*
X136214286Y-137614342D01*
X136214286Y-137614342D02*
X136261905Y-137709580D01*
X136261905Y-137709580D02*
X136309524Y-137757200D01*
X136309524Y-137757200D02*
X136404762Y-137804819D01*
X136404762Y-137804819D02*
X136595238Y-137804819D01*
X136595238Y-137804819D02*
X136690476Y-137757200D01*
X136690476Y-137757200D02*
X136738095Y-137709580D01*
X136738095Y-137709580D02*
X136785714Y-137614342D01*
X136785714Y-137614342D02*
X136785714Y-137376247D01*
X136785714Y-137376247D02*
X136738095Y-137281009D01*
X136738095Y-137281009D02*
X136690476Y-137233390D01*
X136690476Y-137233390D02*
X136595238Y-137185771D01*
X136595238Y-137185771D02*
X136404762Y-137185771D01*
X136404762Y-137185771D02*
X136309524Y-137233390D01*
X136309524Y-137233390D02*
X136261905Y-137281009D01*
X136261905Y-137281009D02*
X136214286Y-137376247D01*
X124961905Y-117954819D02*
X124961905Y-116954819D01*
X124961905Y-116954819D02*
X125200000Y-116954819D01*
X125200000Y-116954819D02*
X125342857Y-117002438D01*
X125342857Y-117002438D02*
X125438095Y-117097676D01*
X125438095Y-117097676D02*
X125485714Y-117192914D01*
X125485714Y-117192914D02*
X125533333Y-117383390D01*
X125533333Y-117383390D02*
X125533333Y-117526247D01*
X125533333Y-117526247D02*
X125485714Y-117716723D01*
X125485714Y-117716723D02*
X125438095Y-117811961D01*
X125438095Y-117811961D02*
X125342857Y-117907200D01*
X125342857Y-117907200D02*
X125200000Y-117954819D01*
X125200000Y-117954819D02*
X124961905Y-117954819D01*
X126485714Y-117954819D02*
X125914286Y-117954819D01*
X126200000Y-117954819D02*
X126200000Y-116954819D01*
X126200000Y-116954819D02*
X126104762Y-117097676D01*
X126104762Y-117097676D02*
X126009524Y-117192914D01*
X126009524Y-117192914D02*
X125914286Y-117240533D01*
D13*
%TO.C,TP5*%
X105950000Y-143000000D02*
G75*
G03*
X104050000Y-143000000I-950000J0D01*
G01*
X104050000Y-143000000D02*
G75*
G03*
X105950000Y-143000000I950000J0D01*
G01*
%TO.C,U2*%
X142850000Y-130910000D02*
X139090000Y-130910000D01*
X142850000Y-124090000D02*
X139090000Y-124090000D01*
X139090000Y-130910000D02*
X139090000Y-129650000D01*
X139090000Y-124090000D02*
X139090000Y-125350000D01*
X144370000Y-131140000D02*
X143890000Y-131140000D01*
X144130000Y-130810000D01*
X144370000Y-131140000D01*
G36*
X144370000Y-131140000D02*
G01*
X143890000Y-131140000D01*
X144130000Y-130810000D01*
X144370000Y-131140000D01*
G37*
%TO.C,F1*%
X130227064Y-112910000D02*
X128772936Y-112910000D01*
X130227064Y-111090000D02*
X128772936Y-111090000D01*
%TO.C,C1*%
X133311252Y-125410000D02*
X131888748Y-125410000D01*
X133311252Y-123590000D02*
X131888748Y-123590000D01*
%TO.C,TP1*%
X132450000Y-120000000D02*
G75*
G03*
X130550000Y-120000000I-950000J0D01*
G01*
X130550000Y-120000000D02*
G75*
G03*
X132450000Y-120000000I950000J0D01*
G01*
%TO.C,C2*%
X140960000Y-135510000D02*
X140960000Y-132490000D01*
X140960000Y-132490000D02*
X136750000Y-132490000D01*
X136750000Y-135510000D02*
X140960000Y-135510000D01*
%TO.C,TP3*%
X132450000Y-150000000D02*
G75*
G03*
X130550000Y-150000000I-950000J0D01*
G01*
X130550000Y-150000000D02*
G75*
G03*
X132450000Y-150000000I950000J0D01*
G01*
%TO.C,U1*%
X121600000Y-135600000D02*
X126400000Y-135600000D01*
X121600000Y-135750000D02*
X121600000Y-135600000D01*
X121600000Y-138400000D02*
X121600000Y-138250000D01*
X126400000Y-135600000D02*
X126400000Y-135750000D01*
X126400000Y-138250000D02*
X126400000Y-138400000D01*
X126400000Y-138400000D02*
X121600000Y-138400000D01*
X120750000Y-135750000D02*
X120510000Y-135420000D01*
X120990000Y-135420000D01*
X120750000Y-135750000D01*
G36*
X120750000Y-135750000D02*
G01*
X120510000Y-135420000D01*
X120990000Y-135420000D01*
X120750000Y-135750000D01*
G37*
%TO.C,R1*%
X120272936Y-131265000D02*
X120727064Y-131265000D01*
X120272936Y-132735000D02*
X120727064Y-132735000D01*
%TO.C,J1*%
X138400000Y-111200000D02*
X145500000Y-111200000D01*
X145500000Y-111700000D02*
X145500000Y-111200000D01*
X145500000Y-117000000D02*
X145500000Y-113300000D01*
X145500000Y-119800000D02*
X145500000Y-118600000D01*
X138400000Y-121900000D02*
X142200000Y-121900000D01*
X145800000Y-122200000D02*
X145800000Y-121200000D01*
X145800000Y-122200000D02*
X144800000Y-122200000D01*
%TO.C,TP2*%
X134950000Y-131000000D02*
G75*
G03*
X133050000Y-131000000I-950000J0D01*
G01*
X133050000Y-131000000D02*
G75*
G03*
X134950000Y-131000000I950000J0D01*
G01*
%TO.C,D5*%
X127240000Y-152485000D02*
X129160000Y-152485000D01*
X129160000Y-152485000D02*
X129160000Y-149800000D01*
X127240000Y-149800000D02*
X127240000Y-152485000D01*
%TO.C,J3*%
X90110000Y-124490000D02*
X90110000Y-147410000D01*
X90110000Y-124490000D02*
X92770000Y-124490000D01*
X90110000Y-147410000D02*
X92770000Y-147410000D01*
X91440000Y-121890000D02*
X92770000Y-121890000D01*
X92770000Y-121890000D02*
X92770000Y-123220000D01*
X92770000Y-124490000D02*
X92770000Y-147410000D01*
%TO.C,R5*%
X142772936Y-135265000D02*
X143227064Y-135265000D01*
X142772936Y-136735000D02*
X143227064Y-136735000D01*
%TO.C,R7*%
X128935000Y-146972936D02*
X128935000Y-147427064D01*
X127465000Y-146972936D02*
X127465000Y-147427064D01*
%TO.C,D3*%
X141185000Y-139960000D02*
X141185000Y-138040000D01*
X141185000Y-138040000D02*
X138500000Y-138040000D01*
X138500000Y-139960000D02*
X141185000Y-139960000D01*
%TO.C,R2*%
X111772936Y-131375000D02*
X112227064Y-131375000D01*
X111772936Y-132845000D02*
X112227064Y-132845000D01*
%TO.C,D4*%
X126240000Y-153850000D02*
X126240000Y-158150000D01*
X126240000Y-153850000D02*
X132050000Y-153850000D01*
X126240000Y-158150000D02*
X132050000Y-158150000D01*
%TO.C,R3*%
X127465000Y-143527064D02*
X127465000Y-143072936D01*
X128935000Y-143527064D02*
X128935000Y-143072936D01*
%TO.C,D2*%
X129850000Y-122990000D02*
X126550000Y-122990000D01*
X129850000Y-122990000D02*
X129850000Y-128500000D01*
X126550000Y-122990000D02*
X126550000Y-128500000D01*
%TO.C,TP4*%
X132950000Y-145000000D02*
G75*
G03*
X131050000Y-145000000I-950000J0D01*
G01*
X131050000Y-145000000D02*
G75*
G03*
X132950000Y-145000000I950000J0D01*
G01*
%TO.C,J2*%
X133950000Y-154500000D02*
X133950000Y-142500000D01*
X144950000Y-154500000D02*
X133950000Y-154500000D01*
X144950000Y-153000000D02*
X144950000Y-154500000D01*
X146150000Y-153000000D02*
X144950000Y-153000000D01*
X146150000Y-151500000D02*
X146150000Y-153000000D01*
X147950000Y-151500000D02*
X146150000Y-151500000D01*
X144950000Y-150500000D02*
X147950000Y-150500000D01*
X144950000Y-146500000D02*
X144950000Y-150500000D01*
X147950000Y-146500000D02*
X144950000Y-146500000D01*
X146150000Y-145500000D02*
X147950000Y-145500000D01*
X147950000Y-145500000D02*
X147950000Y-151500000D01*
X144950000Y-144000000D02*
X146150000Y-144000000D01*
X146150000Y-144000000D02*
X146150000Y-145500000D01*
X133950000Y-142500000D02*
X144950000Y-142500000D01*
X144950000Y-142500000D02*
X144950000Y-144000000D01*
%TO.C,J4*%
X115510000Y-124490000D02*
X115510000Y-147410000D01*
X115510000Y-124490000D02*
X118170000Y-124490000D01*
X115510000Y-147410000D02*
X118170000Y-147410000D01*
X116840000Y-121890000D02*
X118170000Y-121890000D01*
X118170000Y-121890000D02*
X118170000Y-123220000D01*
X118170000Y-124490000D02*
X118170000Y-147410000D01*
%TO.C,R4*%
X143227064Y-133735000D02*
X142772936Y-133735000D01*
X143227064Y-132265000D02*
X142772936Y-132265000D01*
%TO.C,R6*%
X135772936Y-138265000D02*
X136227064Y-138265000D01*
X135772936Y-139735000D02*
X136227064Y-139735000D01*
%TO.C,D1*%
X126550000Y-121010000D02*
X129850000Y-121010000D01*
X126550000Y-121010000D02*
X126550000Y-115500000D01*
X129850000Y-121010000D02*
X129850000Y-115500000D01*
%TD*%
M02*
