M48
; DRILL file {KiCad 7.0.11+dfsg-1build4} date Thu Aug 27 20:18:35 2026
; FORMAT={-:-/ absolute / metric / decimal}
; #@! TF.CreationDate,2026-08-27T20:18:35+00:00
; #@! TF.GenerationSoftware,Kicad,Pcbnew,7.0.11+dfsg-1build4
; #@! TF.FileFunction,MixedPlating,1,2
FMAT,2
METRIC
; #@! TA.AperFunction,Plated,PTH,ViaDrill
T1C0.450
; #@! TA.AperFunction,Plated,PTH,ComponentDrill
T2C0.700
; #@! TA.AperFunction,Plated,PTH,ComponentDrill
T3C0.800
; #@! TA.AperFunction,Plated,PTH,ComponentDrill
T4C1.000
; #@! TA.AperFunction,NonPlated,NPTH,ComponentDrill
T5C1.200
; #@! TA.AperFunction,NonPlated,NPTH,ComponentDrill
T6C2.130
; #@! TA.AperFunction,NonPlated,NPTH,ComponentDrill
T7C3.200
%
G90
G05
T1
X96.0Y-120.0
X96.0Y-150.0
X108.0Y-145.0
X112.0Y-120.0
X126.9Y-141.0
X126.9Y-152.8
X127.0Y-158.0
X127.5Y-132.0
X133.0Y-158.0
X134.0Y-118.0
X145.0Y-140.0
T4
X91.44Y-123.22
X91.44Y-125.76
X91.44Y-128.3
X91.44Y-130.84
X91.44Y-133.38
X91.44Y-135.92
X91.44Y-138.46
X91.44Y-141.0
X91.44Y-143.54
X91.44Y-146.08
X116.84Y-123.22
X116.84Y-125.76
X116.84Y-128.3
X116.84Y-130.84
X116.84Y-133.38
X116.84Y-135.92
X116.84Y-138.46
X116.84Y-141.0
X116.84Y-143.54
X116.84Y-146.08
T5
X136.65Y-148.5
X141.65Y-143.5
X141.65Y-153.5
X144.15Y-143.5
X144.15Y-153.5
T6
X137.7Y-117.8
T7
X123.0Y-118.0
X123.5Y-147.0
T2
X137.0Y-143.5G85X136.3Y-143.5
G05
X136.3Y-153.5G85X137.0Y-153.5
G05
X135.95Y-111.6G85X137.45Y-111.6
G05
X135.95Y-121.4G85X137.45Y-121.4
G05
X141.65Y-148.85G85X141.65Y-148.15
G05
T3
X143.4Y-112.5G85X144.6Y-112.5
G05
X143.4Y-117.8G85X144.6Y-117.8
G05
X143.4Y-121.0G85X144.6Y-121.0
G05
M30
