%TF.GenerationSoftware,KiCad,Pcbnew,7.0.11+dfsg-1build4*%
%TF.CreationDate,2026-08-28T19:35:06+00:00*%
%TF.ProjectId,af4-trigger-hat,6166342d-7472-4696-9767-65722d686174,D*%
%TF.SameCoordinates,Original*%
%TF.FileFunction,Copper,L1,Top*%
%TF.FilePolarity,Positive*%
%FSLAX46Y46*%
G04 Gerber Fmt 4.6, Leading zero omitted, Abs format (unit mm)*
G04 Created by KiCad (PCBNEW 7.0.11+dfsg-1build4) date 2026-08-28 19:35:06*
%MOMM*%
%LPD*%
G01*
G04 APERTURE LIST*
G04 Aperture macros list*
%AMRoundRect*
0 Rectangle with rounded corners*
0 $1 Rounding radius*
0 $2 $3 $4 $5 $6 $7 $8 $9 X,Y pos of 4 corners*
0 Add a 4 corners polygon primitive as box body*
4,1,4,$2,$3,$4,$5,$6,$7,$8,$9,$2,$3,0*
0 Add four circle primitives for the rounded corners*
1,1,$1+$1,$2,$3*
1,1,$1+$1,$4,$5*
1,1,$1+$1,$6,$7*
1,1,$1+$1,$8,$9*
0 Add four rect primitives between the rounded corners*
20,1,$1+$1,$2,$3,$4,$5,0*
20,1,$1+$1,$4,$5,$6,$7,0*
20,1,$1+$1,$6,$7,$8,$9,0*
20,1,$1+$1,$8,$9,$2,$3,0*%
G04 Aperture macros list end*
%TA.AperFunction,SMDPad,CuDef*%
%ADD10RoundRect,0.250000X0.650000X-1.000000X0.650000X1.000000X-0.650000X1.000000X-0.650000X-1.000000X0*%
%TD*%
%TA.AperFunction,ComponentPad*%
%ADD11R,1.700000X1.700000*%
%TD*%
%TA.AperFunction,ComponentPad*%
%ADD12O,1.700000X1.700000*%
%TD*%
%TA.AperFunction,SMDPad,CuDef*%
%ADD13C,1.500000*%
%TD*%
%TA.AperFunction,SMDPad,CuDef*%
%ADD14RoundRect,0.250000X-0.262500X-0.450000X0.262500X-0.450000X0.262500X0.450000X-0.262500X0.450000X0*%
%TD*%
%TA.AperFunction,SMDPad,CuDef*%
%ADD15RoundRect,0.250000X-1.000000X-0.900000X1.000000X-0.900000X1.000000X0.900000X-1.000000X0.900000X0*%
%TD*%
%TA.AperFunction,SMDPad,CuDef*%
%ADD16RoundRect,0.250000X0.412500X0.925000X-0.412500X0.925000X-0.412500X-0.925000X0.412500X-0.925000X0*%
%TD*%
%TA.AperFunction,SMDPad,CuDef*%
%ADD17RoundRect,0.250000X-0.450000X0.262500X-0.450000X-0.262500X0.450000X-0.262500X0.450000X0.262500X0*%
%TD*%
%TA.AperFunction,ComponentPad*%
%ADD18O,2.200000X1.200000*%
%TD*%
%TA.AperFunction,ComponentPad*%
%ADD19O,1.200000X2.200000*%
%TD*%
%TA.AperFunction,SMDPad,CuDef*%
%ADD20RoundRect,0.250000X0.312500X0.625000X-0.312500X0.625000X-0.312500X-0.625000X0.312500X-0.625000X0*%
%TD*%
%TA.AperFunction,SMDPad,CuDef*%
%ADD21RoundRect,0.250000X0.450000X-0.262500X0.450000X0.262500X-0.450000X0.262500X-0.450000X-0.262500X0*%
%TD*%
%TA.AperFunction,SMDPad,CuDef*%
%ADD22RoundRect,0.250000X0.325000X0.650000X-0.325000X0.650000X-0.325000X-0.650000X0.325000X-0.650000X0*%
%TD*%
%TA.AperFunction,SMDPad,CuDef*%
%ADD23RoundRect,0.243750X0.456250X-0.243750X0.456250X0.243750X-0.456250X0.243750X-0.456250X-0.243750X0*%
%TD*%
%TA.AperFunction,ComponentPad*%
%ADD24R,3.000000X1.800000*%
%TD*%
%TA.AperFunction,ComponentPad*%
%ADD25O,3.000000X1.800000*%
%TD*%
%TA.AperFunction,ComponentPad*%
%ADD26O,3.000000X1.600000*%
%TD*%
%TA.AperFunction,SMDPad,CuDef*%
%ADD27RoundRect,0.375000X0.625000X0.375000X-0.625000X0.375000X-0.625000X-0.375000X0.625000X-0.375000X0*%
%TD*%
%TA.AperFunction,SMDPad,CuDef*%
%ADD28RoundRect,0.500000X0.500000X1.400000X-0.500000X1.400000X-0.500000X-1.400000X0.500000X-1.400000X0*%
%TD*%
%TA.AperFunction,SMDPad,CuDef*%
%ADD29RoundRect,0.243750X0.243750X0.456250X-0.243750X0.456250X-0.243750X-0.456250X0.243750X-0.456250X0*%
%TD*%
%TA.AperFunction,SMDPad,CuDef*%
%ADD30R,1.200000X0.800000*%
%TD*%
%TA.AperFunction,SMDPad,CuDef*%
%ADD31RoundRect,0.250000X-0.650000X1.000000X-0.650000X-1.000000X0.650000X-1.000000X0.650000X1.000000X0*%
%TD*%
%TA.AperFunction,SMDPad,CuDef*%
%ADD32RoundRect,0.250000X0.262500X0.450000X-0.262500X0.450000X-0.262500X-0.450000X0.262500X-0.450000X0*%
%TD*%
%TA.AperFunction,ViaPad*%
%ADD33C,0.900000*%
%TD*%
%TA.AperFunction,Conductor*%
%ADD34C,0.350000*%
%TD*%
%TA.AperFunction,Conductor*%
%ADD35C,0.500000*%
%TD*%
%TA.AperFunction,Conductor*%
%ADD36C,0.600000*%
%TD*%
G04 APERTURE END LIST*
D10*
%TO.P,D1,1*%
%TO.N,+12V*%
X128200000Y-119500000D03*
%TO.P,D1,2*%
%TO.N,+12V_F*%
X128200000Y-115500000D03*
%TD*%
D11*
%TO.P,J3,1*%
%TO.N,N/C*%
X91440000Y-123220000D03*
D12*
%TO.P,J3,2*%
X91440000Y-125760000D03*
%TO.P,J3,3*%
%TO.N,GNDL*%
X91440000Y-128300000D03*
%TO.P,J3,4*%
%TO.N,N/C*%
X91440000Y-130840000D03*
%TO.P,J3,5*%
X91440000Y-133380000D03*
%TO.P,J3,6*%
X91440000Y-135920000D03*
%TO.P,J3,7*%
X91440000Y-138460000D03*
%TO.P,J3,8*%
X91440000Y-141000000D03*
%TO.P,J3,9*%
X91440000Y-143540000D03*
%TO.P,J3,10*%
X91440000Y-146080000D03*
%TD*%
D13*
%TO.P,TP1,1*%
%TO.N,+12V*%
X131500000Y-120000000D03*
%TD*%
D14*
%TO.P,R2,1*%
%TO.N,GNDL*%
X111087500Y-132110000D03*
%TO.P,R2,2*%
%TO.N,GPIO32*%
X112912500Y-132110000D03*
%TD*%
D15*
%TO.P,D4,1*%
%TO.N,TIP*%
X127750000Y-156000000D03*
%TO.P,D4,2*%
%TO.N,GNDP*%
X132050000Y-156000000D03*
%TD*%
D16*
%TO.P,C2,1*%
%TO.N,+10V4*%
X140037500Y-134000000D03*
%TO.P,C2,2*%
%TO.N,GNDP*%
X136962500Y-134000000D03*
%TD*%
D11*
%TO.P,J4,1*%
%TO.N,N/C*%
X116840000Y-123220000D03*
D12*
%TO.P,J4,2*%
X116840000Y-125760000D03*
%TO.P,J4,3*%
X116840000Y-128300000D03*
%TO.P,J4,4*%
X116840000Y-130840000D03*
%TO.P,J4,5*%
X116840000Y-133380000D03*
%TO.P,J4,6*%
%TO.N,GPIO32*%
X116840000Y-135920000D03*
%TO.P,J4,7*%
%TO.N,N/C*%
X116840000Y-138460000D03*
%TO.P,J4,8*%
X116840000Y-141000000D03*
%TO.P,J4,9*%
X116840000Y-143540000D03*
%TO.P,J4,10*%
X116840000Y-146080000D03*
%TD*%
D13*
%TO.P,TP5,1*%
%TO.N,GNDL*%
X105000000Y-143000000D03*
%TD*%
D17*
%TO.P,R7,1*%
%TO.N,TIP*%
X128200000Y-146287500D03*
%TO.P,R7,2*%
%TO.N,FEEDLED*%
X128200000Y-148112500D03*
%TD*%
D18*
%TO.P,J2,R*%
%TO.N,GNDP*%
X136650000Y-153500000D03*
D19*
%TO.P,J2,S*%
X141650000Y-148500000D03*
D18*
%TO.P,J2,T*%
%TO.N,TIP*%
X136650000Y-143500000D03*
%TD*%
D20*
%TO.P,F1,1*%
%TO.N,+12V_RAW*%
X130962500Y-112000000D03*
%TO.P,F1,2*%
%TO.N,+12V_F*%
X128037500Y-112000000D03*
%TD*%
D21*
%TO.P,R3,1*%
%TO.N,TIP*%
X128200000Y-144212500D03*
%TO.P,R3,2*%
%TO.N,GNDP*%
X128200000Y-142387500D03*
%TD*%
D14*
%TO.P,R6,1*%
%TO.N,+10V4*%
X135087500Y-139000000D03*
%TO.P,R6,2*%
%TO.N,PWRLED*%
X136912500Y-139000000D03*
%TD*%
%TO.P,R1,1*%
%TO.N,GPIO32*%
X119587500Y-132000000D03*
%TO.P,R1,2*%
%TO.N,LED_A*%
X121412500Y-132000000D03*
%TD*%
D13*
%TO.P,TP4,1*%
%TO.N,GNDP*%
X132000000Y-145000000D03*
%TD*%
D22*
%TO.P,C1,1*%
%TO.N,+12V*%
X134075000Y-124500000D03*
%TO.P,C1,2*%
%TO.N,GNDP*%
X131125000Y-124500000D03*
%TD*%
D14*
%TO.P,R5,1*%
%TO.N,ADJ*%
X142087500Y-136000000D03*
%TO.P,R5,2*%
%TO.N,GNDP*%
X143912500Y-136000000D03*
%TD*%
D13*
%TO.P,TP3,1*%
%TO.N,TIP*%
X131500000Y-150000000D03*
%TD*%
%TO.P,TP2,1*%
%TO.N,+10V4*%
X134000000Y-131000000D03*
%TD*%
D23*
%TO.P,D5,1*%
%TO.N,GNDP*%
X128200000Y-151737500D03*
%TO.P,D5,2*%
%TO.N,FEEDLED*%
X128200000Y-149862500D03*
%TD*%
D24*
%TO.P,J1,1*%
%TO.N,+12V_RAW*%
X144000000Y-121000000D03*
D25*
%TO.P,J1,2*%
%TO.N,GNDP*%
X144000000Y-112500000D03*
%TO.P,J1,3*%
%TO.N,N/C*%
X144000000Y-117800000D03*
D26*
%TO.P,J1,SH*%
X136700000Y-111600000D03*
X136700000Y-121400000D03*
%TD*%
D27*
%TO.P,U2,1*%
%TO.N,ADJ*%
X144150000Y-129800000D03*
%TO.P,U2,2*%
%TO.N,+10V4*%
X144150000Y-127500000D03*
D28*
X137850000Y-127500000D03*
D27*
%TO.P,U2,3*%
%TO.N,+12V*%
X144150000Y-125200000D03*
%TD*%
D29*
%TO.P,D3,1*%
%TO.N,GNDP*%
X140437500Y-139000000D03*
%TO.P,D3,2*%
%TO.N,PWRLED*%
X138562500Y-139000000D03*
%TD*%
D30*
%TO.P,U1,1*%
%TO.N,LED_A*%
X121000000Y-135730000D03*
%TO.P,U1,2*%
%TO.N,GNDL*%
X121000000Y-138270000D03*
%TO.P,U1,3*%
%TO.N,TIP*%
X127000000Y-138270000D03*
%TO.P,U1,4*%
%TO.N,+10V4*%
X127000000Y-135730000D03*
%TD*%
D31*
%TO.P,D2,1*%
%TO.N,+12V*%
X128200000Y-124500000D03*
%TO.P,D2,2*%
%TO.N,GNDP*%
X128200000Y-128500000D03*
%TD*%
D32*
%TO.P,R4,1*%
%TO.N,+10V4*%
X143912500Y-133000000D03*
%TO.P,R4,2*%
%TO.N,ADJ*%
X142087500Y-133000000D03*
%TD*%
D33*
%TO.N,GNDL*%
X108000000Y-145000000D03*
X96000000Y-150000000D03*
X96000000Y-120000000D03*
X112000000Y-120000000D03*
%TO.N,GNDP*%
X145000000Y-140000000D03*
X134000000Y-118000000D03*
X127000000Y-158000000D03*
X126900000Y-152800000D03*
X126900000Y-141000000D03*
X127500000Y-132000000D03*
X133000000Y-158000000D03*
%TD*%
D34*
%TO.N,GPIO32*%
X118600000Y-135920000D02*
X118600000Y-132000000D01*
X118600000Y-132110000D02*
X112912500Y-132110000D01*
X118600000Y-132000000D02*
X119587500Y-132000000D01*
X116840000Y-135920000D02*
X118600000Y-135920000D01*
%TO.N,LED_A*%
X121600000Y-132000000D02*
X121600000Y-135730000D01*
X121600000Y-135730000D02*
X121000000Y-135730000D01*
X121412500Y-132000000D02*
X121600000Y-132000000D01*
D35*
%TO.N,TIP*%
X128200000Y-144212500D02*
X128200000Y-146287500D01*
X130000000Y-150000000D02*
X131500000Y-150000000D01*
X130000000Y-154000000D02*
X127600000Y-154000000D01*
X127000000Y-138270000D02*
X130000000Y-138270000D01*
X130000000Y-143500000D02*
X136650000Y-143500000D01*
X130000000Y-138270000D02*
X130000000Y-144212500D01*
X127600000Y-154000000D02*
X127750000Y-156000000D01*
X130000000Y-144212500D02*
X130000000Y-154000000D01*
X130000000Y-144212500D02*
X128200000Y-144212500D01*
%TO.N,+10V4*%
X134000000Y-139000000D02*
X135087500Y-139000000D01*
D36*
X129500000Y-134000000D02*
X129500000Y-135730000D01*
X134000000Y-131600000D02*
X134000000Y-131000000D01*
X137850000Y-127500000D02*
X144150000Y-127500000D01*
X140250000Y-131600000D02*
X143912500Y-131600000D01*
X134000000Y-134000000D02*
X129500000Y-134000000D01*
X129500000Y-135730000D02*
X127000000Y-135730000D01*
X137850000Y-131600000D02*
X140250000Y-131600000D01*
X137850000Y-131600000D02*
X134000000Y-131600000D01*
D35*
X134000000Y-134000000D02*
X134000000Y-139000000D01*
D36*
X140250000Y-131600000D02*
X140250000Y-134000000D01*
X134000000Y-131000000D02*
X134000000Y-134000000D01*
X137850000Y-127500000D02*
X137850000Y-131600000D01*
X143912500Y-131600000D02*
X143912500Y-133000000D01*
X140250000Y-134000000D02*
X140037500Y-134000000D01*
%TO.N,+12V_RAW*%
X130962500Y-114000000D02*
X130962500Y-112000000D01*
X141600000Y-114000000D02*
X130962500Y-114000000D01*
X144000000Y-121000000D02*
X141600000Y-121000000D01*
X141600000Y-121000000D02*
X141600000Y-114000000D01*
%TO.N,+12V_F*%
X128200000Y-112000000D02*
X128200000Y-115500000D01*
X128037500Y-112000000D02*
X128200000Y-112000000D01*
%TO.N,+12V*%
X131500000Y-122600000D02*
X134075000Y-122600000D01*
X134075000Y-123200000D02*
X145000000Y-123200000D01*
X128200000Y-122600000D02*
X131500000Y-122600000D01*
X145000000Y-125200000D02*
X144150000Y-125200000D01*
X128200000Y-124500000D02*
X128200000Y-122600000D01*
X134075000Y-122600000D02*
X134075000Y-124500000D01*
X145000000Y-123200000D02*
X145000000Y-125200000D01*
X128200000Y-119500000D02*
X128200000Y-124500000D01*
X131500000Y-122600000D02*
X131500000Y-120000000D01*
D34*
%TO.N,ADJ*%
X144150000Y-129800000D02*
X145000000Y-129800000D01*
X142087500Y-134500000D02*
X142087500Y-136000000D01*
X145000000Y-134500000D02*
X142087500Y-134500000D01*
X145000000Y-129800000D02*
X145000000Y-134500000D01*
X142087500Y-134500000D02*
X142087500Y-133000000D01*
%TO.N,PWRLED*%
X136912500Y-139000000D02*
X138562500Y-139000000D01*
%TO.N,FEEDLED*%
X128200000Y-148112500D02*
X128200000Y-149862500D01*
%TD*%
%TA.AperFunction,Conductor*%
%TO.N,GNDL*%
G36*
X121609191Y-110519407D02*
G01*
X121645155Y-110568907D01*
X121650000Y-110599500D01*
X121650000Y-116694145D01*
X121631093Y-116752336D01*
X121622271Y-116762857D01*
X121573817Y-116813115D01*
X121416199Y-117033422D01*
X121292342Y-117274328D01*
X121204884Y-117530687D01*
X121204881Y-117530698D01*
X121155680Y-117797069D01*
X121145788Y-118067765D01*
X121175414Y-118337020D01*
X121209998Y-118469305D01*
X121243928Y-118599088D01*
X121349870Y-118848390D01*
X121490982Y-119079610D01*
X121627097Y-119243170D01*
X121649786Y-119299990D01*
X121650000Y-119306495D01*
X121650000Y-130950500D01*
X121631093Y-131008691D01*
X121581593Y-131044655D01*
X121551000Y-131049500D01*
X121102133Y-131049500D01*
X121102129Y-131049500D01*
X121102128Y-131049501D01*
X121094949Y-131050272D01*
X121042519Y-131055908D01*
X121042514Y-131055909D01*
X120907670Y-131106202D01*
X120792458Y-131192450D01*
X120792450Y-131192458D01*
X120706202Y-131307670D01*
X120655910Y-131442511D01*
X120655908Y-131442522D01*
X120649500Y-131502129D01*
X120649500Y-132497866D01*
X120649501Y-132497870D01*
X120655908Y-132557480D01*
X120655909Y-132557485D01*
X120706202Y-132692329D01*
X120788550Y-132802331D01*
X120792454Y-132807546D01*
X120792457Y-132807548D01*
X120792458Y-132807549D01*
X120907670Y-132893797D01*
X121042511Y-132944089D01*
X121042512Y-132944089D01*
X121042517Y-132944091D01*
X121086083Y-132948775D01*
X121141918Y-132973793D01*
X121172385Y-133026853D01*
X121174500Y-133047207D01*
X121174500Y-134980500D01*
X121155593Y-135038691D01*
X121106093Y-135074655D01*
X121075500Y-135079500D01*
X120375326Y-135079500D01*
X120375325Y-135079500D01*
X120375315Y-135079501D01*
X120302263Y-135094033D01*
X120302257Y-135094035D01*
X120219400Y-135149397D01*
X120219397Y-135149400D01*
X120164035Y-135232257D01*
X120164033Y-135232263D01*
X120149501Y-135305315D01*
X120149500Y-135305327D01*
X120149500Y-136154672D01*
X120149501Y-136154684D01*
X120164033Y-136227736D01*
X120164035Y-136227742D01*
X120219397Y-136310599D01*
X120219400Y-136310602D01*
X120271630Y-136345500D01*
X120302260Y-136365966D01*
X120357808Y-136377015D01*
X120375315Y-136380498D01*
X120375320Y-136380498D01*
X120375326Y-136380500D01*
X120375327Y-136380500D01*
X121551000Y-136380500D01*
X121609191Y-136399407D01*
X121645155Y-136448907D01*
X121650000Y-136479500D01*
X121650000Y-137421000D01*
X121631093Y-137479191D01*
X121581593Y-137515155D01*
X121551000Y-137520000D01*
X121250001Y-137520000D01*
X121250000Y-137520001D01*
X121250000Y-139019998D01*
X121250001Y-139019999D01*
X121551000Y-139019999D01*
X121609191Y-139038906D01*
X121645155Y-139088406D01*
X121650000Y-139118999D01*
X121650000Y-146950703D01*
X121649934Y-146954319D01*
X121645788Y-147067765D01*
X121645787Y-147067765D01*
X121649406Y-147100646D01*
X121650000Y-147111474D01*
X121650000Y-159400500D01*
X121631093Y-159458691D01*
X121581593Y-159494655D01*
X121551000Y-159499500D01*
X89749500Y-159499500D01*
X89691309Y-159480593D01*
X89655345Y-159431093D01*
X89650500Y-159400500D01*
X89650500Y-146080000D01*
X90334785Y-146080000D01*
X90353603Y-146283083D01*
X90409418Y-146479250D01*
X90500327Y-146661821D01*
X90623236Y-146824579D01*
X90773959Y-146961981D01*
X90947363Y-147069348D01*
X91137544Y-147143024D01*
X91338024Y-147180500D01*
X91541976Y-147180500D01*
X91742456Y-147143024D01*
X91932637Y-147069348D01*
X92106041Y-146961981D01*
X92256764Y-146824579D01*
X92379673Y-146661821D01*
X92470582Y-146479250D01*
X92526397Y-146283083D01*
X92545215Y-146080000D01*
X115734785Y-146080000D01*
X115753603Y-146283083D01*
X115809418Y-146479250D01*
X115900327Y-146661821D01*
X116023236Y-146824579D01*
X116173959Y-146961981D01*
X116347363Y-147069348D01*
X116537544Y-147143024D01*
X116738024Y-147180500D01*
X116941976Y-147180500D01*
X117142456Y-147143024D01*
X117332637Y-147069348D01*
X117506041Y-146961981D01*
X117656764Y-146824579D01*
X117779673Y-146661821D01*
X117870582Y-146479250D01*
X117926397Y-146283083D01*
X117945215Y-146080000D01*
X117926397Y-145876917D01*
X117870582Y-145680750D01*
X117779673Y-145498179D01*
X117656764Y-145335421D01*
X117506041Y-145198019D01*
X117332637Y-145090652D01*
X117142456Y-145016976D01*
X117142455Y-145016975D01*
X117142453Y-145016975D01*
X116941976Y-144979500D01*
X116738024Y-144979500D01*
X116537546Y-145016975D01*
X116467632Y-145044059D01*
X116347363Y-145090652D01*
X116252320Y-145149500D01*
X116173959Y-145198019D01*
X116023237Y-145335420D01*
X115900328Y-145498177D01*
X115900323Y-145498186D01*
X115809419Y-145680747D01*
X115809418Y-145680750D01*
X115753603Y-145876917D01*
X115734785Y-146080000D01*
X92545215Y-146080000D01*
X92526397Y-145876917D01*
X92470582Y-145680750D01*
X92379673Y-145498179D01*
X92256764Y-145335421D01*
X92106041Y-145198019D01*
X91932637Y-145090652D01*
X91742456Y-145016976D01*
X91742455Y-145016975D01*
X91742453Y-145016975D01*
X91541976Y-144979500D01*
X91338024Y-144979500D01*
X91137546Y-145016975D01*
X91067632Y-145044059D01*
X90947363Y-145090652D01*
X90852320Y-145149500D01*
X90773959Y-145198019D01*
X90623237Y-145335420D01*
X90500328Y-145498177D01*
X90500323Y-145498186D01*
X90409419Y-145680747D01*
X90409418Y-145680750D01*
X90353603Y-145876917D01*
X90334785Y-146080000D01*
X89650500Y-146080000D01*
X89650500Y-143540000D01*
X90334785Y-143540000D01*
X90353603Y-143743083D01*
X90409418Y-143939250D01*
X90500327Y-144121821D01*
X90623236Y-144284579D01*
X90773959Y-144421981D01*
X90947363Y-144529348D01*
X91137544Y-144603024D01*
X91338024Y-144640500D01*
X91541976Y-144640500D01*
X91742456Y-144603024D01*
X91932637Y-144529348D01*
X92106041Y-144421981D01*
X92256764Y-144284579D01*
X92379673Y-144121821D01*
X92470582Y-143939250D01*
X92472007Y-143934241D01*
X104419312Y-143934241D01*
X104507581Y-143988895D01*
X104507586Y-143988898D01*
X104697683Y-144062541D01*
X104898070Y-144100000D01*
X105101930Y-144100000D01*
X105302316Y-144062541D01*
X105492415Y-143988897D01*
X105492416Y-143988897D01*
X105580686Y-143934241D01*
X104999999Y-143353554D01*
X104419312Y-143934241D01*
X92472007Y-143934241D01*
X92526397Y-143743083D01*
X92545215Y-143540000D01*
X92526397Y-143336917D01*
X92470582Y-143140750D01*
X92400497Y-143000000D01*
X103895287Y-143000000D01*
X103914097Y-143202989D01*
X103969887Y-143399070D01*
X104060751Y-143581551D01*
X104062532Y-143583911D01*
X104646444Y-142999999D01*
X105353554Y-142999999D01*
X105937466Y-143583911D01*
X105939245Y-143581556D01*
X105939249Y-143581549D01*
X105959938Y-143540000D01*
X115734785Y-143540000D01*
X115753603Y-143743083D01*
X115809418Y-143939250D01*
X115900327Y-144121821D01*
X116023236Y-144284579D01*
X116173959Y-144421981D01*
X116347363Y-144529348D01*
X116537544Y-144603024D01*
X116738024Y-144640500D01*
X116941976Y-144640500D01*
X117142456Y-144603024D01*
X117332637Y-144529348D01*
X117506041Y-144421981D01*
X117656764Y-144284579D01*
X117779673Y-144121821D01*
X117870582Y-143939250D01*
X117926397Y-143743083D01*
X117945215Y-143540000D01*
X117926397Y-143336917D01*
X117870582Y-143140750D01*
X117779673Y-142958179D01*
X117656764Y-142795421D01*
X117506041Y-142658019D01*
X117332637Y-142550652D01*
X117142456Y-142476976D01*
X117142455Y-142476975D01*
X117142453Y-142476975D01*
X116941976Y-142439500D01*
X116738024Y-142439500D01*
X116537546Y-142476975D01*
X116467632Y-142504059D01*
X116347363Y-142550652D01*
X116266163Y-142600929D01*
X116173959Y-142658019D01*
X116023237Y-142795420D01*
X115900328Y-142958177D01*
X115900323Y-142958186D01*
X115809419Y-143140747D01*
X115809418Y-143140750D01*
X115753603Y-143336917D01*
X115734785Y-143540000D01*
X105959938Y-143540000D01*
X106030112Y-143399070D01*
X106085902Y-143202989D01*
X106104712Y-143000000D01*
X106085902Y-142797010D01*
X106030112Y-142600929D01*
X105939249Y-142418450D01*
X105939244Y-142418441D01*
X105937466Y-142416087D01*
X105353554Y-142999999D01*
X104646444Y-142999999D01*
X104062533Y-142416087D01*
X104060753Y-142418445D01*
X104060750Y-142418449D01*
X103969887Y-142600929D01*
X103914097Y-142797010D01*
X103895287Y-143000000D01*
X92400497Y-143000000D01*
X92379673Y-142958179D01*
X92256764Y-142795421D01*
X92106041Y-142658019D01*
X91932637Y-142550652D01*
X91742456Y-142476976D01*
X91742455Y-142476975D01*
X91742453Y-142476975D01*
X91541976Y-142439500D01*
X91338024Y-142439500D01*
X91137546Y-142476975D01*
X91067632Y-142504059D01*
X90947363Y-142550652D01*
X90866163Y-142600929D01*
X90773959Y-142658019D01*
X90623237Y-142795420D01*
X90500328Y-142958177D01*
X90500323Y-142958186D01*
X90409419Y-143140747D01*
X90409418Y-143140750D01*
X90353603Y-143336917D01*
X90334785Y-143540000D01*
X89650500Y-143540000D01*
X89650500Y-141000000D01*
X90334785Y-141000000D01*
X90353603Y-141203083D01*
X90409418Y-141399250D01*
X90500327Y-141581821D01*
X90623236Y-141744579D01*
X90773959Y-141881981D01*
X90947363Y-141989348D01*
X91137544Y-142063024D01*
X91338024Y-142100500D01*
X91541976Y-142100500D01*
X91727836Y-142065757D01*
X104419312Y-142065757D01*
X104999999Y-142646444D01*
X105580686Y-142065757D01*
X105492418Y-142011104D01*
X105492413Y-142011101D01*
X105302316Y-141937458D01*
X105101930Y-141900000D01*
X104898070Y-141900000D01*
X104697683Y-141937458D01*
X104507586Y-142011101D01*
X104507584Y-142011102D01*
X104419312Y-142065757D01*
X91727836Y-142065757D01*
X91742456Y-142063024D01*
X91932637Y-141989348D01*
X92106041Y-141881981D01*
X92256764Y-141744579D01*
X92379673Y-141581821D01*
X92470582Y-141399250D01*
X92526397Y-141203083D01*
X92545215Y-141000000D01*
X115734785Y-141000000D01*
X115753603Y-141203083D01*
X115809418Y-141399250D01*
X115900327Y-141581821D01*
X116023236Y-141744579D01*
X116173959Y-141881981D01*
X116347363Y-141989348D01*
X116537544Y-142063024D01*
X116738024Y-142100500D01*
X116941976Y-142100500D01*
X117142456Y-142063024D01*
X117332637Y-141989348D01*
X117506041Y-141881981D01*
X117656764Y-141744579D01*
X117779673Y-141581821D01*
X117870582Y-141399250D01*
X117926397Y-141203083D01*
X117945215Y-141000000D01*
X117926397Y-140796917D01*
X117870582Y-140600750D01*
X117779673Y-140418179D01*
X117656764Y-140255421D01*
X117506041Y-140118019D01*
X117332637Y-140010652D01*
X117142456Y-139936976D01*
X117142455Y-139936975D01*
X117142453Y-139936975D01*
X116941976Y-139899500D01*
X116738024Y-139899500D01*
X116537546Y-139936975D01*
X116467632Y-139964059D01*
X116347363Y-140010652D01*
X116173959Y-140118019D01*
X116023237Y-140255420D01*
X115900328Y-140418177D01*
X115900323Y-140418186D01*
X115809419Y-140600747D01*
X115809418Y-140600750D01*
X115753603Y-140796917D01*
X115734785Y-141000000D01*
X92545215Y-141000000D01*
X92526397Y-140796917D01*
X92470582Y-140600750D01*
X92379673Y-140418179D01*
X92256764Y-140255421D01*
X92106041Y-140118019D01*
X91932637Y-140010652D01*
X91742456Y-139936976D01*
X91742455Y-139936975D01*
X91742453Y-139936975D01*
X91541976Y-139899500D01*
X91338024Y-139899500D01*
X91137546Y-139936975D01*
X91067632Y-139964059D01*
X90947363Y-140010652D01*
X90773959Y-140118019D01*
X90623237Y-140255420D01*
X90500328Y-140418177D01*
X90500323Y-140418186D01*
X90409419Y-140600747D01*
X90409418Y-140600750D01*
X90353603Y-140796917D01*
X90334785Y-141000000D01*
X89650500Y-141000000D01*
X89650500Y-138460000D01*
X90334785Y-138460000D01*
X90353603Y-138663082D01*
X90409419Y-138859252D01*
X90498875Y-139038906D01*
X90500327Y-139041821D01*
X90623236Y-139204579D01*
X90773959Y-139341981D01*
X90947363Y-139449348D01*
X91137544Y-139523024D01*
X91338024Y-139560500D01*
X91541976Y-139560500D01*
X91742456Y-139523024D01*
X91932637Y-139449348D01*
X92106041Y-139341981D01*
X92256764Y-139204579D01*
X92379673Y-139041821D01*
X92470582Y-138859250D01*
X92526397Y-138663083D01*
X92545215Y-138460000D01*
X115734785Y-138460000D01*
X115753603Y-138663082D01*
X115809419Y-138859252D01*
X115898875Y-139038906D01*
X115900327Y-139041821D01*
X116023236Y-139204579D01*
X116173959Y-139341981D01*
X116347363Y-139449348D01*
X116537544Y-139523024D01*
X116738024Y-139560500D01*
X116941976Y-139560500D01*
X117142456Y-139523024D01*
X117332637Y-139449348D01*
X117506041Y-139341981D01*
X117656764Y-139204579D01*
X117779673Y-139041821D01*
X117870582Y-138859250D01*
X117914978Y-138703216D01*
X120050001Y-138703216D01*
X120059912Y-138771250D01*
X120111214Y-138876188D01*
X120193812Y-138958786D01*
X120298751Y-139010087D01*
X120366784Y-139019999D01*
X120749998Y-139019999D01*
X120750000Y-139019998D01*
X120750000Y-138520001D01*
X120749999Y-138520000D01*
X120050002Y-138520000D01*
X120050001Y-138520001D01*
X120050001Y-138703216D01*
X117914978Y-138703216D01*
X117926397Y-138663083D01*
X117945215Y-138460000D01*
X117926397Y-138256917D01*
X117870582Y-138060750D01*
X117850291Y-138019999D01*
X120050000Y-138019999D01*
X120050001Y-138020000D01*
X120749999Y-138020000D01*
X120750000Y-138019999D01*
X120750000Y-137520001D01*
X120749999Y-137520000D01*
X120366786Y-137520000D01*
X120366783Y-137520001D01*
X120298749Y-137529912D01*
X120193811Y-137581214D01*
X120111213Y-137663812D01*
X120059912Y-137768751D01*
X120050000Y-137836784D01*
X120050000Y-138019999D01*
X117850291Y-138019999D01*
X117779673Y-137878179D01*
X117656764Y-137715421D01*
X117506041Y-137578019D01*
X117332637Y-137470652D01*
X117142456Y-137396976D01*
X117142455Y-137396975D01*
X117142453Y-137396975D01*
X116941976Y-137359500D01*
X116738024Y-137359500D01*
X116537546Y-137396975D01*
X116475530Y-137421000D01*
X116347363Y-137470652D01*
X116251655Y-137529912D01*
X116173959Y-137578019D01*
X116023237Y-137715420D01*
X115900328Y-137878177D01*
X115900323Y-137878186D01*
X115809419Y-138060747D01*
X115753603Y-138256917D01*
X115734785Y-138460000D01*
X92545215Y-138460000D01*
X92526397Y-138256917D01*
X92470582Y-138060750D01*
X92379673Y-137878179D01*
X92256764Y-137715421D01*
X92106041Y-137578019D01*
X91932637Y-137470652D01*
X91742456Y-137396976D01*
X91742455Y-137396975D01*
X91742453Y-137396975D01*
X91541976Y-137359500D01*
X91338024Y-137359500D01*
X91137546Y-137396975D01*
X91075530Y-137421000D01*
X90947363Y-137470652D01*
X90851655Y-137529912D01*
X90773959Y-137578019D01*
X90623237Y-137715420D01*
X90500328Y-137878177D01*
X90500323Y-137878186D01*
X90409419Y-138060747D01*
X90353603Y-138256917D01*
X90334785Y-138460000D01*
X89650500Y-138460000D01*
X89650500Y-135920000D01*
X90334785Y-135920000D01*
X90353603Y-136123083D01*
X90409418Y-136319250D01*
X90500327Y-136501821D01*
X90623236Y-136664579D01*
X90773959Y-136801981D01*
X90947363Y-136909348D01*
X91137544Y-136983024D01*
X91338024Y-137020500D01*
X91541976Y-137020500D01*
X91742456Y-136983024D01*
X91932637Y-136909348D01*
X92106041Y-136801981D01*
X92256764Y-136664579D01*
X92379673Y-136501821D01*
X92470582Y-136319250D01*
X92526397Y-136123083D01*
X92545215Y-135920000D01*
X92526397Y-135716917D01*
X92470582Y-135520750D01*
X92379673Y-135338179D01*
X92256764Y-135175421D01*
X92106041Y-135038019D01*
X91932637Y-134930652D01*
X91742456Y-134856976D01*
X91742455Y-134856975D01*
X91742453Y-134856975D01*
X91541976Y-134819500D01*
X91338024Y-134819500D01*
X91137546Y-134856975D01*
X91067632Y-134884059D01*
X90947363Y-134930652D01*
X90866856Y-134980500D01*
X90773959Y-135038019D01*
X90623237Y-135175420D01*
X90500328Y-135338177D01*
X90500323Y-135338186D01*
X90409419Y-135520747D01*
X90409418Y-135520750D01*
X90353603Y-135716917D01*
X90334785Y-135920000D01*
X89650500Y-135920000D01*
X89650500Y-133380000D01*
X90334785Y-133380000D01*
X90353603Y-133583083D01*
X90409418Y-133779250D01*
X90500327Y-133961821D01*
X90623236Y-134124579D01*
X90773959Y-134261981D01*
X90947363Y-134369348D01*
X91137544Y-134443024D01*
X91338024Y-134480500D01*
X91541976Y-134480500D01*
X91742456Y-134443024D01*
X91932637Y-134369348D01*
X92106041Y-134261981D01*
X92256764Y-134124579D01*
X92379673Y-133961821D01*
X92470582Y-133779250D01*
X92526397Y-133583083D01*
X92545215Y-133380000D01*
X92526397Y-133176917D01*
X92470582Y-132980750D01*
X92379673Y-132798179D01*
X92256764Y-132635421D01*
X92217167Y-132599324D01*
X110225001Y-132599324D01*
X110240443Y-132716629D01*
X110240444Y-132716631D01*
X110300899Y-132862585D01*
X110300901Y-132862589D01*
X110397070Y-132987919D01*
X110397080Y-132987929D01*
X110522410Y-133084098D01*
X110522414Y-133084100D01*
X110668368Y-133144555D01*
X110668369Y-133144556D01*
X110785677Y-133159999D01*
X110837499Y-133159998D01*
X110837500Y-133159998D01*
X111337500Y-133159998D01*
X111337501Y-133159999D01*
X111389320Y-133159999D01*
X111389324Y-133159998D01*
X111506629Y-133144556D01*
X111506631Y-133144555D01*
X111652585Y-133084100D01*
X111652589Y-133084098D01*
X111777919Y-132987929D01*
X111777929Y-132987919D01*
X111874098Y-132862589D01*
X111874100Y-132862585D01*
X111934555Y-132716631D01*
X111934556Y-132716630D01*
X111948874Y-132607866D01*
X112149500Y-132607866D01*
X112149501Y-132607870D01*
X112155908Y-132667480D01*
X112155909Y-132667485D01*
X112206202Y-132802329D01*
X112274675Y-132893797D01*
X112292454Y-132917546D01*
X112292457Y-132917548D01*
X112292458Y-132917549D01*
X112407670Y-133003797D01*
X112542511Y-133054089D01*
X112542512Y-133054089D01*
X112542517Y-133054091D01*
X112602127Y-133060500D01*
X113222872Y-133060499D01*
X113282483Y-133054091D01*
X113355512Y-133026853D01*
X113417329Y-133003797D01*
X113417329Y-133003796D01*
X113417331Y-133003796D01*
X113532546Y-132917546D01*
X113618796Y-132802331D01*
X113620346Y-132798177D01*
X113669089Y-132667488D01*
X113669090Y-132667485D01*
X113669091Y-132667483D01*
X113673775Y-132623916D01*
X113698795Y-132568081D01*
X113751856Y-132537615D01*
X113772208Y-132535500D01*
X115899875Y-132535500D01*
X115958066Y-132554407D01*
X115994030Y-132603907D01*
X115994030Y-132665093D01*
X115978878Y-132694161D01*
X115900333Y-132798170D01*
X115900323Y-132798186D01*
X115812882Y-132973793D01*
X115809418Y-132980750D01*
X115753603Y-133176917D01*
X115734785Y-133380000D01*
X115753603Y-133583083D01*
X115809418Y-133779250D01*
X115900327Y-133961821D01*
X116023236Y-134124579D01*
X116173959Y-134261981D01*
X116347363Y-134369348D01*
X116537544Y-134443024D01*
X116738024Y-134480500D01*
X116941976Y-134480500D01*
X117142456Y-134443024D01*
X117332637Y-134369348D01*
X117506041Y-134261981D01*
X117656764Y-134124579D01*
X117779673Y-133961821D01*
X117870582Y-133779250D01*
X117926397Y-133583083D01*
X117945215Y-133380000D01*
X117926397Y-133176917D01*
X117870582Y-132980750D01*
X117779673Y-132798179D01*
X117701121Y-132694160D01*
X117681142Y-132636330D01*
X117698970Y-132577800D01*
X117747797Y-132540927D01*
X117780125Y-132535500D01*
X118075500Y-132535500D01*
X118133691Y-132554407D01*
X118169655Y-132603907D01*
X118174500Y-132634500D01*
X118174500Y-135395500D01*
X118155593Y-135453691D01*
X118106093Y-135489655D01*
X118075500Y-135494500D01*
X117918809Y-135494500D01*
X117860618Y-135475593D01*
X117830188Y-135439628D01*
X117779676Y-135338185D01*
X117779675Y-135338184D01*
X117779673Y-135338179D01*
X117656764Y-135175421D01*
X117506041Y-135038019D01*
X117332637Y-134930652D01*
X117142456Y-134856976D01*
X117142455Y-134856975D01*
X117142453Y-134856975D01*
X116941976Y-134819500D01*
X116738024Y-134819500D01*
X116537546Y-134856975D01*
X116467632Y-134884059D01*
X116347363Y-134930652D01*
X116266856Y-134980500D01*
X116173959Y-135038019D01*
X116023237Y-135175420D01*
X115900328Y-135338177D01*
X115900323Y-135338186D01*
X115809419Y-135520747D01*
X115809418Y-135520750D01*
X115753603Y-135716917D01*
X115734785Y-135920000D01*
X115753603Y-136123083D01*
X115809418Y-136319250D01*
X115900327Y-136501821D01*
X116023236Y-136664579D01*
X116173959Y-136801981D01*
X116347363Y-136909348D01*
X116537544Y-136983024D01*
X116738024Y-137020500D01*
X116941976Y-137020500D01*
X117142456Y-136983024D01*
X117332637Y-136909348D01*
X117506041Y-136801981D01*
X117656764Y-136664579D01*
X117779673Y-136501821D01*
X117830188Y-136400371D01*
X117873050Y-136356710D01*
X117918809Y-136345500D01*
X118558721Y-136345500D01*
X118574207Y-136346718D01*
X118600000Y-136350804D01*
X118733126Y-136329719D01*
X118853220Y-136268528D01*
X118948528Y-136173220D01*
X119009719Y-136053126D01*
X119025500Y-135953488D01*
X119030804Y-135920000D01*
X119026719Y-135894207D01*
X119025500Y-135878720D01*
X119025500Y-133015059D01*
X119044407Y-132956868D01*
X119093907Y-132920904D01*
X119155093Y-132920904D01*
X119159064Y-132922289D01*
X119217517Y-132944091D01*
X119277127Y-132950500D01*
X119897872Y-132950499D01*
X119957483Y-132944091D01*
X120028667Y-132917541D01*
X120092329Y-132893797D01*
X120092329Y-132893796D01*
X120092331Y-132893796D01*
X120207546Y-132807546D01*
X120293796Y-132692331D01*
X120344091Y-132557483D01*
X120350500Y-132497873D01*
X120350499Y-131502128D01*
X120344091Y-131442517D01*
X120334824Y-131417670D01*
X120293797Y-131307670D01*
X120207549Y-131192458D01*
X120207548Y-131192457D01*
X120207546Y-131192454D01*
X120172088Y-131165910D01*
X120092329Y-131106202D01*
X119957488Y-131055910D01*
X119957483Y-131055909D01*
X119957481Y-131055908D01*
X119957477Y-131055908D01*
X119926249Y-131052550D01*
X119897873Y-131049500D01*
X119897870Y-131049500D01*
X119277133Y-131049500D01*
X119277129Y-131049500D01*
X119277128Y-131049501D01*
X119269949Y-131050272D01*
X119217519Y-131055908D01*
X119217514Y-131055909D01*
X119082670Y-131106202D01*
X118967458Y-131192450D01*
X118967450Y-131192458D01*
X118881202Y-131307670D01*
X118830910Y-131442511D01*
X118830908Y-131442522D01*
X118826225Y-131486083D01*
X118801205Y-131541919D01*
X118748144Y-131572385D01*
X118727792Y-131574500D01*
X118641279Y-131574500D01*
X118625792Y-131573281D01*
X118600000Y-131569196D01*
X118566512Y-131574500D01*
X118466874Y-131590281D01*
X118466867Y-131590283D01*
X118346782Y-131651470D01*
X118346780Y-131651471D01*
X118346780Y-131651472D01*
X118342746Y-131655505D01*
X118288232Y-131683281D01*
X118272745Y-131684500D01*
X117780125Y-131684500D01*
X117721934Y-131665593D01*
X117685970Y-131616093D01*
X117685970Y-131554907D01*
X117701122Y-131525839D01*
X117718090Y-131503370D01*
X117779673Y-131421821D01*
X117870582Y-131239250D01*
X117926397Y-131043083D01*
X117945215Y-130840000D01*
X117926397Y-130636917D01*
X117870582Y-130440750D01*
X117779673Y-130258179D01*
X117656764Y-130095421D01*
X117506041Y-129958019D01*
X117332637Y-129850652D01*
X117142456Y-129776976D01*
X117142455Y-129776975D01*
X117142453Y-129776975D01*
X116941976Y-129739500D01*
X116738024Y-129739500D01*
X116537546Y-129776975D01*
X116467632Y-129804059D01*
X116347363Y-129850652D01*
X116173959Y-129958019D01*
X116023237Y-130095420D01*
X115900328Y-130258177D01*
X115900323Y-130258186D01*
X115809419Y-130440747D01*
X115809418Y-130440750D01*
X115753603Y-130636917D01*
X115734785Y-130840000D01*
X115753603Y-131043083D01*
X115809418Y-131239250D01*
X115900327Y-131421821D01*
X115961908Y-131503368D01*
X115978878Y-131525839D01*
X115998858Y-131583670D01*
X115981030Y-131642200D01*
X115932203Y-131679073D01*
X115899875Y-131684500D01*
X113772207Y-131684500D01*
X113714016Y-131665593D01*
X113678052Y-131616093D01*
X113673774Y-131596081D01*
X113673151Y-131590283D01*
X113669091Y-131552517D01*
X113659141Y-131525839D01*
X113618797Y-131417670D01*
X113532549Y-131302458D01*
X113532548Y-131302457D01*
X113532546Y-131302454D01*
X113532541Y-131302450D01*
X113417329Y-131216202D01*
X113282488Y-131165910D01*
X113282483Y-131165909D01*
X113282481Y-131165908D01*
X113282477Y-131165908D01*
X113251249Y-131162550D01*
X113222873Y-131159500D01*
X113222870Y-131159500D01*
X112602133Y-131159500D01*
X112602129Y-131159500D01*
X112602128Y-131159501D01*
X112594949Y-131160272D01*
X112542519Y-131165908D01*
X112542514Y-131165909D01*
X112407670Y-131216202D01*
X112292458Y-131302450D01*
X112292450Y-131302458D01*
X112206202Y-131417670D01*
X112155910Y-131552511D01*
X112155908Y-131552522D01*
X112149500Y-131612129D01*
X112149500Y-132607866D01*
X111948874Y-132607866D01*
X111949999Y-132599323D01*
X111950000Y-132599322D01*
X111950000Y-132360001D01*
X111949999Y-132360000D01*
X111337501Y-132360000D01*
X111337500Y-132360001D01*
X111337500Y-133159998D01*
X110837500Y-133159998D01*
X110837500Y-132360001D01*
X110837499Y-132360000D01*
X110225002Y-132360000D01*
X110225001Y-132360001D01*
X110225001Y-132599324D01*
X92217167Y-132599324D01*
X92106041Y-132498019D01*
X91932637Y-132390652D01*
X91742456Y-132316976D01*
X91742455Y-132316975D01*
X91742453Y-132316975D01*
X91541976Y-132279500D01*
X91338024Y-132279500D01*
X91137546Y-132316975D01*
X91067632Y-132344059D01*
X90947363Y-132390652D01*
X90774206Y-132497866D01*
X90773959Y-132498019D01*
X90708725Y-132557488D01*
X90623236Y-132635421D01*
X90599020Y-132667488D01*
X90500328Y-132798177D01*
X90500323Y-132798186D01*
X90412882Y-132973793D01*
X90409418Y-132980750D01*
X90353603Y-133176917D01*
X90334785Y-133380000D01*
X89650500Y-133380000D01*
X89650500Y-130840000D01*
X90334785Y-130840000D01*
X90353603Y-131043083D01*
X90409418Y-131239250D01*
X90500327Y-131421821D01*
X90623236Y-131584579D01*
X90773959Y-131721981D01*
X90947363Y-131829348D01*
X91137544Y-131903024D01*
X91338024Y-131940500D01*
X91541976Y-131940500D01*
X91742456Y-131903024D01*
X91853517Y-131859999D01*
X110225000Y-131859999D01*
X110225001Y-131860000D01*
X110837499Y-131860000D01*
X110837500Y-131859999D01*
X111337500Y-131859999D01*
X111337501Y-131860000D01*
X111949998Y-131860000D01*
X111949999Y-131859999D01*
X111949999Y-131620680D01*
X111949998Y-131620675D01*
X111934556Y-131503370D01*
X111934555Y-131503368D01*
X111874100Y-131357414D01*
X111874098Y-131357410D01*
X111777929Y-131232080D01*
X111777919Y-131232070D01*
X111652589Y-131135901D01*
X111652585Y-131135899D01*
X111506631Y-131075444D01*
X111506630Y-131075443D01*
X111389323Y-131060000D01*
X111337501Y-131060000D01*
X111337500Y-131060001D01*
X111337500Y-131859999D01*
X110837500Y-131859999D01*
X110837500Y-131059999D01*
X110785680Y-131060000D01*
X110785674Y-131060001D01*
X110668370Y-131075443D01*
X110668368Y-131075444D01*
X110522414Y-131135899D01*
X110522410Y-131135901D01*
X110397080Y-131232070D01*
X110397070Y-131232080D01*
X110300901Y-131357410D01*
X110300899Y-131357414D01*
X110240444Y-131503368D01*
X110240443Y-131503369D01*
X110225000Y-131620676D01*
X110225000Y-131859999D01*
X91853517Y-131859999D01*
X91932637Y-131829348D01*
X92106041Y-131721981D01*
X92256764Y-131584579D01*
X92379673Y-131421821D01*
X92470582Y-131239250D01*
X92526397Y-131043083D01*
X92545215Y-130840000D01*
X92526397Y-130636917D01*
X92470582Y-130440750D01*
X92379673Y-130258179D01*
X92256764Y-130095421D01*
X92106041Y-129958019D01*
X91932637Y-129850652D01*
X91742456Y-129776976D01*
X91742455Y-129776975D01*
X91742453Y-129776975D01*
X91541976Y-129739500D01*
X91338024Y-129739500D01*
X91137546Y-129776975D01*
X91067632Y-129804059D01*
X90947363Y-129850652D01*
X90773959Y-129958019D01*
X90623237Y-130095420D01*
X90500328Y-130258177D01*
X90500323Y-130258186D01*
X90409419Y-130440747D01*
X90409418Y-130440750D01*
X90353603Y-130636917D01*
X90334785Y-130840000D01*
X89650500Y-130840000D01*
X89650500Y-128550000D01*
X90263504Y-128550000D01*
X90316239Y-128735347D01*
X90415364Y-128934417D01*
X90415369Y-128934426D01*
X90549387Y-129111893D01*
X90549391Y-129111898D01*
X90713744Y-129261725D01*
X90902816Y-129378794D01*
X90902821Y-129378797D01*
X91110200Y-129459136D01*
X91189999Y-129474053D01*
X91190000Y-129474053D01*
X91190000Y-128735501D01*
X91297685Y-128784680D01*
X91404237Y-128800000D01*
X91475763Y-128800000D01*
X91582315Y-128784680D01*
X91690000Y-128735501D01*
X91690000Y-129474053D01*
X91769799Y-129459136D01*
X91977178Y-129378797D01*
X91977183Y-129378794D01*
X92166255Y-129261725D01*
X92330608Y-129111898D01*
X92330612Y-129111893D01*
X92464630Y-128934426D01*
X92464635Y-128934417D01*
X92563760Y-128735347D01*
X92616495Y-128550000D01*
X91873686Y-128550000D01*
X91899493Y-128509844D01*
X91940000Y-128371889D01*
X91940000Y-128300000D01*
X115734785Y-128300000D01*
X115753603Y-128503083D01*
X115809418Y-128699250D01*
X115900327Y-128881821D01*
X116023236Y-129044579D01*
X116173959Y-129181981D01*
X116347363Y-129289348D01*
X116537544Y-129363024D01*
X116738024Y-129400500D01*
X116941976Y-129400500D01*
X117142456Y-129363024D01*
X117332637Y-129289348D01*
X117506041Y-129181981D01*
X117656764Y-129044579D01*
X117779673Y-128881821D01*
X117870582Y-128699250D01*
X117926397Y-128503083D01*
X117945215Y-128300000D01*
X117926397Y-128096917D01*
X117870582Y-127900750D01*
X117779673Y-127718179D01*
X117656764Y-127555421D01*
X117506041Y-127418019D01*
X117332637Y-127310652D01*
X117142456Y-127236976D01*
X117142455Y-127236975D01*
X117142453Y-127236975D01*
X116941976Y-127199500D01*
X116738024Y-127199500D01*
X116537546Y-127236975D01*
X116467632Y-127264059D01*
X116347363Y-127310652D01*
X116173959Y-127418019D01*
X116023237Y-127555420D01*
X115900328Y-127718177D01*
X115900323Y-127718186D01*
X115822216Y-127875048D01*
X115809418Y-127900750D01*
X115753603Y-128096917D01*
X115734785Y-128300000D01*
X91940000Y-128300000D01*
X91940000Y-128228111D01*
X91899493Y-128090156D01*
X91873686Y-128050000D01*
X92616496Y-128050000D01*
X92616495Y-128049999D01*
X92563760Y-127864652D01*
X92464635Y-127665582D01*
X92464630Y-127665573D01*
X92330612Y-127488106D01*
X92330608Y-127488101D01*
X92166255Y-127338274D01*
X91977183Y-127221205D01*
X91977178Y-127221202D01*
X91769802Y-127140864D01*
X91769796Y-127140862D01*
X91690000Y-127125946D01*
X91690000Y-127864498D01*
X91582315Y-127815320D01*
X91475763Y-127800000D01*
X91404237Y-127800000D01*
X91297685Y-127815320D01*
X91190000Y-127864498D01*
X91190000Y-127125946D01*
X91189999Y-127125946D01*
X91110203Y-127140862D01*
X91110197Y-127140864D01*
X90902821Y-127221202D01*
X90902816Y-127221205D01*
X90713744Y-127338274D01*
X90549391Y-127488101D01*
X90549387Y-127488106D01*
X90415369Y-127665573D01*
X90415364Y-127665582D01*
X90316239Y-127864652D01*
X90263504Y-128049999D01*
X90263504Y-128050000D01*
X91006314Y-128050000D01*
X90980507Y-128090156D01*
X90940000Y-128228111D01*
X90940000Y-128371889D01*
X90980507Y-128509844D01*
X91006314Y-128550000D01*
X90263504Y-128550000D01*
X89650500Y-128550000D01*
X89650500Y-125760000D01*
X90334785Y-125760000D01*
X90353603Y-125963083D01*
X90409418Y-126159250D01*
X90500327Y-126341821D01*
X90623236Y-126504579D01*
X90773959Y-126641981D01*
X90947363Y-126749348D01*
X91137544Y-126823024D01*
X91338024Y-126860500D01*
X91541976Y-126860500D01*
X91742456Y-126823024D01*
X91932637Y-126749348D01*
X92106041Y-126641981D01*
X92256764Y-126504579D01*
X92379673Y-126341821D01*
X92470582Y-126159250D01*
X92526397Y-125963083D01*
X92545215Y-125760000D01*
X115734785Y-125760000D01*
X115753603Y-125963083D01*
X115809418Y-126159250D01*
X115900327Y-126341821D01*
X116023236Y-126504579D01*
X116173959Y-126641981D01*
X116347363Y-126749348D01*
X116537544Y-126823024D01*
X116738024Y-126860500D01*
X116941976Y-126860500D01*
X117142456Y-126823024D01*
X117332637Y-126749348D01*
X117506041Y-126641981D01*
X117656764Y-126504579D01*
X117779673Y-126341821D01*
X117870582Y-126159250D01*
X117926397Y-125963083D01*
X117945215Y-125760000D01*
X117926397Y-125556917D01*
X117870582Y-125360750D01*
X117779673Y-125178179D01*
X117656764Y-125015421D01*
X117506041Y-124878019D01*
X117332637Y-124770652D01*
X117142456Y-124696976D01*
X117142455Y-124696975D01*
X117142453Y-124696975D01*
X116941976Y-124659500D01*
X116738024Y-124659500D01*
X116537546Y-124696975D01*
X116467632Y-124724059D01*
X116347363Y-124770652D01*
X116173959Y-124878019D01*
X116023237Y-125015420D01*
X115900328Y-125178177D01*
X115900323Y-125178186D01*
X115809419Y-125360747D01*
X115809418Y-125360750D01*
X115753603Y-125556917D01*
X115734785Y-125760000D01*
X92545215Y-125760000D01*
X92526397Y-125556917D01*
X92470582Y-125360750D01*
X92379673Y-125178179D01*
X92256764Y-125015421D01*
X92106041Y-124878019D01*
X91932637Y-124770652D01*
X91742456Y-124696976D01*
X91742455Y-124696975D01*
X91742453Y-124696975D01*
X91541976Y-124659500D01*
X91338024Y-124659500D01*
X91137546Y-124696975D01*
X91067632Y-124724059D01*
X90947363Y-124770652D01*
X90773959Y-124878019D01*
X90623237Y-125015420D01*
X90500328Y-125178177D01*
X90500323Y-125178186D01*
X90409419Y-125360747D01*
X90409418Y-125360750D01*
X90353603Y-125556917D01*
X90334785Y-125760000D01*
X89650500Y-125760000D01*
X89650500Y-124094672D01*
X90339500Y-124094672D01*
X90339501Y-124094684D01*
X90354033Y-124167736D01*
X90354035Y-124167742D01*
X90409397Y-124250599D01*
X90409399Y-124250601D01*
X90492260Y-124305966D01*
X90547808Y-124317015D01*
X90565315Y-124320498D01*
X90565320Y-124320498D01*
X90565326Y-124320500D01*
X90565327Y-124320500D01*
X92314673Y-124320500D01*
X92314674Y-124320500D01*
X92387740Y-124305966D01*
X92470601Y-124250601D01*
X92525966Y-124167740D01*
X92540500Y-124094674D01*
X92540500Y-124094672D01*
X115739500Y-124094672D01*
X115739501Y-124094684D01*
X115754033Y-124167736D01*
X115754035Y-124167742D01*
X115809397Y-124250599D01*
X115809399Y-124250601D01*
X115892260Y-124305966D01*
X115947808Y-124317015D01*
X115965315Y-124320498D01*
X115965320Y-124320498D01*
X115965326Y-124320500D01*
X115965327Y-124320500D01*
X117714673Y-124320500D01*
X117714674Y-124320500D01*
X117787740Y-124305966D01*
X117870601Y-124250601D01*
X117925966Y-124167740D01*
X117940500Y-124094674D01*
X117940500Y-122345326D01*
X117925966Y-122272260D01*
X117870601Y-122189399D01*
X117870599Y-122189397D01*
X117787742Y-122134035D01*
X117787740Y-122134034D01*
X117787737Y-122134033D01*
X117787736Y-122134033D01*
X117714684Y-122119501D01*
X117714674Y-122119500D01*
X115965326Y-122119500D01*
X115965325Y-122119500D01*
X115965315Y-122119501D01*
X115892263Y-122134033D01*
X115892257Y-122134035D01*
X115809400Y-122189397D01*
X115809397Y-122189400D01*
X115754035Y-122272257D01*
X115754033Y-122272263D01*
X115739501Y-122345315D01*
X115739500Y-122345327D01*
X115739500Y-124094672D01*
X92540500Y-124094672D01*
X92540500Y-122345326D01*
X92525966Y-122272260D01*
X92470601Y-122189399D01*
X92470599Y-122189397D01*
X92387742Y-122134035D01*
X92387740Y-122134034D01*
X92387737Y-122134033D01*
X92387736Y-122134033D01*
X92314684Y-122119501D01*
X92314674Y-122119500D01*
X90565326Y-122119500D01*
X90565325Y-122119500D01*
X90565315Y-122119501D01*
X90492263Y-122134033D01*
X90492257Y-122134035D01*
X90409400Y-122189397D01*
X90409397Y-122189400D01*
X90354035Y-122272257D01*
X90354033Y-122272263D01*
X90339501Y-122345315D01*
X90339500Y-122345327D01*
X90339500Y-124094672D01*
X89650500Y-124094672D01*
X89650500Y-110599500D01*
X89669407Y-110541309D01*
X89718907Y-110505345D01*
X89749500Y-110500500D01*
X121551000Y-110500500D01*
X121609191Y-110519407D01*
G37*
%TD.AperFunction*%
%TD*%
%TA.AperFunction,Conductor*%
%TO.N,GNDP*%
G36*
X135491497Y-110519407D02*
G01*
X135527461Y-110568907D01*
X135527461Y-110630093D01*
X135491497Y-110679593D01*
X135479975Y-110686810D01*
X135413547Y-110722316D01*
X135253595Y-110853585D01*
X135253585Y-110853595D01*
X135122316Y-111013547D01*
X135024768Y-111196045D01*
X134964699Y-111394065D01*
X134964698Y-111394070D01*
X134944417Y-111599996D01*
X134944417Y-111600003D01*
X134964698Y-111805929D01*
X134964699Y-111805934D01*
X135024768Y-112003954D01*
X135122316Y-112186452D01*
X135184280Y-112261955D01*
X135253590Y-112346410D01*
X135253595Y-112346414D01*
X135413547Y-112477683D01*
X135413548Y-112477683D01*
X135413550Y-112477685D01*
X135596046Y-112575232D01*
X135733997Y-112617078D01*
X135794065Y-112635300D01*
X135794071Y-112635301D01*
X135923312Y-112648029D01*
X135948392Y-112650500D01*
X135948393Y-112650500D01*
X137451607Y-112650500D01*
X137451608Y-112650500D01*
X137481554Y-112647550D01*
X137605928Y-112635301D01*
X137605934Y-112635300D01*
X137803954Y-112575232D01*
X137986450Y-112477685D01*
X138146410Y-112346410D01*
X138277685Y-112186450D01*
X138375232Y-112003954D01*
X138435300Y-111805934D01*
X138435301Y-111805929D01*
X138455583Y-111600003D01*
X138455583Y-111599996D01*
X138435301Y-111394070D01*
X138435300Y-111394065D01*
X138414995Y-111327128D01*
X138375232Y-111196046D01*
X138277685Y-111013550D01*
X138146410Y-110853590D01*
X138146404Y-110853585D01*
X137986452Y-110722316D01*
X137920025Y-110686810D01*
X137877619Y-110642704D01*
X137869236Y-110582096D01*
X137898079Y-110528135D01*
X137953130Y-110501434D01*
X137966694Y-110500500D01*
X145550500Y-110500500D01*
X145608691Y-110519407D01*
X145644655Y-110568907D01*
X145649500Y-110599500D01*
X145649500Y-111539096D01*
X145630593Y-111597287D01*
X145581093Y-111633251D01*
X145519907Y-111633251D01*
X145485364Y-111613650D01*
X145337700Y-111484641D01*
X145337696Y-111484638D01*
X145144556Y-111369241D01*
X145144542Y-111369234D01*
X144933898Y-111290179D01*
X144933881Y-111290174D01*
X144712508Y-111250001D01*
X144712496Y-111250000D01*
X144250001Y-111250000D01*
X144250000Y-111250001D01*
X144250000Y-112100000D01*
X143750000Y-112100000D01*
X143750000Y-111250001D01*
X143749999Y-111250000D01*
X143343871Y-111250000D01*
X143343845Y-111250001D01*
X143175909Y-111265115D01*
X143175898Y-111265117D01*
X142959007Y-111324976D01*
X142959000Y-111324979D01*
X142756287Y-111422600D01*
X142574251Y-111554857D01*
X142418764Y-111717483D01*
X142418764Y-111717484D01*
X142294805Y-111905273D01*
X142294802Y-111905277D01*
X142206375Y-112112166D01*
X142206374Y-112112167D01*
X142174915Y-112249999D01*
X142174916Y-112250000D01*
X143084314Y-112250000D01*
X143072359Y-112261955D01*
X143014835Y-112374852D01*
X142995014Y-112500000D01*
X143014835Y-112625148D01*
X143072359Y-112738045D01*
X143084314Y-112750000D01*
X142172449Y-112750000D01*
X142176414Y-112779272D01*
X142245945Y-112993267D01*
X142352565Y-113191401D01*
X142492855Y-113367320D01*
X142662299Y-113515358D01*
X142662303Y-113515361D01*
X142855443Y-113630758D01*
X142855457Y-113630765D01*
X143066101Y-113709820D01*
X143066118Y-113709825D01*
X143287491Y-113749998D01*
X143287504Y-113750000D01*
X143749999Y-113750000D01*
X143750000Y-113749999D01*
X143750000Y-112900000D01*
X144250000Y-112900000D01*
X144250000Y-113749999D01*
X144250001Y-113750000D01*
X144656129Y-113750000D01*
X144656154Y-113749998D01*
X144824090Y-113734884D01*
X144824101Y-113734882D01*
X145040992Y-113675023D01*
X145040999Y-113675020D01*
X145243712Y-113577399D01*
X145425748Y-113445142D01*
X145478943Y-113389505D01*
X145532823Y-113360511D01*
X145593454Y-113368724D01*
X145637679Y-113411007D01*
X145649500Y-113457920D01*
X145649500Y-116987953D01*
X145630593Y-117046144D01*
X145581093Y-117082108D01*
X145519907Y-117082108D01*
X145477339Y-117054650D01*
X145422130Y-116994090D01*
X145378407Y-116946128D01*
X145208255Y-116817634D01*
X145017389Y-116722595D01*
X144812310Y-116664244D01*
X144812312Y-116664244D01*
X144653196Y-116649500D01*
X144653194Y-116649500D01*
X143346806Y-116649500D01*
X143346803Y-116649500D01*
X143187688Y-116664244D01*
X143024574Y-116710655D01*
X142982611Y-116722595D01*
X142982610Y-116722595D01*
X142982608Y-116722596D01*
X142791752Y-116817630D01*
X142791743Y-116817635D01*
X142738900Y-116857541D01*
X142621593Y-116946128D01*
X142621589Y-116946131D01*
X142621586Y-116946135D01*
X142477952Y-117103692D01*
X142477946Y-117103699D01*
X142365705Y-117284975D01*
X142365702Y-117284980D01*
X142341815Y-117346642D01*
X142303163Y-117394073D01*
X142244014Y-117409727D01*
X142186961Y-117387624D01*
X142153795Y-117336207D01*
X142150500Y-117310879D01*
X142150500Y-114022195D01*
X142150731Y-114015439D01*
X142151821Y-113999500D01*
X142154381Y-113962079D01*
X142143494Y-113909692D01*
X142142350Y-113903052D01*
X142141999Y-113900500D01*
X142135070Y-113850080D01*
X142131526Y-113841923D01*
X142125401Y-113822622D01*
X142123592Y-113813917D01*
X142123592Y-113813916D01*
X142123592Y-113813915D01*
X142098982Y-113766420D01*
X142096079Y-113760315D01*
X142074782Y-113711284D01*
X142074781Y-113711283D01*
X142074780Y-113711280D01*
X142069162Y-113704374D01*
X142058062Y-113687449D01*
X142053971Y-113679553D01*
X142017463Y-113640463D01*
X142013027Y-113635375D01*
X141979277Y-113593891D01*
X141972009Y-113588761D01*
X141956749Y-113575454D01*
X141950682Y-113568958D01*
X141950675Y-113568952D01*
X141904994Y-113541173D01*
X141899342Y-113537466D01*
X141855646Y-113506622D01*
X141847259Y-113503641D01*
X141828979Y-113494947D01*
X141821387Y-113490330D01*
X141821385Y-113490329D01*
X141821382Y-113490328D01*
X141814051Y-113488274D01*
X141769886Y-113475898D01*
X141763448Y-113473854D01*
X141713060Y-113455946D01*
X141713054Y-113455945D01*
X141704175Y-113455338D01*
X141684228Y-113451899D01*
X141675665Y-113449500D01*
X141675664Y-113449500D01*
X141622197Y-113449500D01*
X141615441Y-113449269D01*
X141608586Y-113448800D01*
X141562079Y-113445619D01*
X141562078Y-113445619D01*
X141553369Y-113447429D01*
X141533226Y-113449500D01*
X131612000Y-113449500D01*
X131553809Y-113430593D01*
X131517845Y-113381093D01*
X131513000Y-113350500D01*
X131513000Y-113121593D01*
X131531907Y-113063402D01*
X131552669Y-113042341D01*
X131632546Y-112982546D01*
X131718796Y-112867331D01*
X131733600Y-112827641D01*
X131762558Y-112750000D01*
X131769091Y-112732483D01*
X131775500Y-112672873D01*
X131775499Y-111327128D01*
X131769091Y-111267517D01*
X131742434Y-111196045D01*
X131718797Y-111132670D01*
X131632549Y-111017458D01*
X131632548Y-111017457D01*
X131632546Y-111017454D01*
X131627327Y-111013547D01*
X131517329Y-110931202D01*
X131382488Y-110880910D01*
X131382483Y-110880909D01*
X131382481Y-110880908D01*
X131382477Y-110880908D01*
X131351249Y-110877550D01*
X131322873Y-110874500D01*
X131322870Y-110874500D01*
X130602133Y-110874500D01*
X130602129Y-110874500D01*
X130602128Y-110874501D01*
X130594949Y-110875272D01*
X130542519Y-110880908D01*
X130542514Y-110880909D01*
X130407670Y-110931202D01*
X130292458Y-111017450D01*
X130292450Y-111017458D01*
X130206202Y-111132670D01*
X130155910Y-111267511D01*
X130155908Y-111267522D01*
X130149500Y-111327129D01*
X130149500Y-112672866D01*
X130149501Y-112672870D01*
X130155908Y-112732480D01*
X130155909Y-112732485D01*
X130206202Y-112867329D01*
X130230660Y-112900000D01*
X130292454Y-112982546D01*
X130372329Y-113042340D01*
X130407582Y-113092348D01*
X130412000Y-113121593D01*
X130412000Y-113977803D01*
X130411769Y-113984559D01*
X130408119Y-114037921D01*
X130408118Y-114037921D01*
X130418998Y-114090274D01*
X130420147Y-114096935D01*
X130427429Y-114149919D01*
X130427429Y-114149920D01*
X130430973Y-114158077D01*
X130437098Y-114177374D01*
X130438908Y-114186086D01*
X130463517Y-114233579D01*
X130466420Y-114239683D01*
X130487718Y-114288717D01*
X130487723Y-114288724D01*
X130493332Y-114295619D01*
X130504432Y-114312542D01*
X130508525Y-114320441D01*
X130508530Y-114320448D01*
X130545028Y-114359527D01*
X130549472Y-114364623D01*
X130583220Y-114406107D01*
X130590487Y-114411236D01*
X130605748Y-114424542D01*
X130611820Y-114431044D01*
X130646491Y-114452128D01*
X130657506Y-114458826D01*
X130663144Y-114462523D01*
X130706853Y-114493377D01*
X130715236Y-114496356D01*
X130733524Y-114505054D01*
X130741114Y-114509670D01*
X130741116Y-114509671D01*
X130741118Y-114509672D01*
X130741119Y-114509672D01*
X130741123Y-114509674D01*
X130781746Y-114521055D01*
X130792603Y-114524097D01*
X130799035Y-114526138D01*
X130849444Y-114544054D01*
X130858317Y-114544660D01*
X130878271Y-114548100D01*
X130886835Y-114550500D01*
X130940303Y-114550500D01*
X130947059Y-114550731D01*
X131000421Y-114554381D01*
X131009131Y-114552570D01*
X131029274Y-114550500D01*
X140950500Y-114550500D01*
X141008691Y-114569407D01*
X141044655Y-114618907D01*
X141049500Y-114649500D01*
X141049500Y-120977803D01*
X141049269Y-120984559D01*
X141045619Y-121037921D01*
X141045618Y-121037921D01*
X141056498Y-121090274D01*
X141057647Y-121096935D01*
X141064929Y-121149919D01*
X141064929Y-121149920D01*
X141068473Y-121158077D01*
X141074598Y-121177374D01*
X141076408Y-121186086D01*
X141101017Y-121233579D01*
X141103920Y-121239683D01*
X141125218Y-121288717D01*
X141125223Y-121288724D01*
X141130832Y-121295619D01*
X141141932Y-121312542D01*
X141146025Y-121320441D01*
X141146030Y-121320448D01*
X141182528Y-121359527D01*
X141186972Y-121364623D01*
X141220720Y-121406107D01*
X141227987Y-121411236D01*
X141243248Y-121424542D01*
X141249320Y-121431044D01*
X141295006Y-121458826D01*
X141300644Y-121462523D01*
X141344353Y-121493377D01*
X141352736Y-121496356D01*
X141371024Y-121505054D01*
X141378614Y-121509670D01*
X141378616Y-121509671D01*
X141378618Y-121509672D01*
X141378619Y-121509672D01*
X141378623Y-121509674D01*
X141419246Y-121521055D01*
X141430103Y-121524097D01*
X141436535Y-121526138D01*
X141486944Y-121544054D01*
X141495817Y-121544660D01*
X141515771Y-121548100D01*
X141524335Y-121550500D01*
X141577803Y-121550500D01*
X141584559Y-121550731D01*
X141637921Y-121554381D01*
X141646631Y-121552570D01*
X141666774Y-121550500D01*
X142150500Y-121550500D01*
X142208691Y-121569407D01*
X142244655Y-121618907D01*
X142249500Y-121649500D01*
X142249500Y-121924672D01*
X142249501Y-121924684D01*
X142264033Y-121997736D01*
X142264035Y-121997742D01*
X142319397Y-122080599D01*
X142319400Y-122080602D01*
X142348784Y-122100235D01*
X142402260Y-122135966D01*
X142454765Y-122146410D01*
X142475315Y-122150498D01*
X142475320Y-122150498D01*
X142475326Y-122150500D01*
X142475327Y-122150500D01*
X145524673Y-122150500D01*
X145524674Y-122150500D01*
X145531179Y-122149206D01*
X145591941Y-122156393D01*
X145636874Y-122197922D01*
X145649500Y-122246302D01*
X145649500Y-122847480D01*
X145630593Y-122905671D01*
X145581093Y-122941635D01*
X145519907Y-122941635D01*
X145473713Y-122909968D01*
X145472389Y-122908341D01*
X145469173Y-122904388D01*
X145458062Y-122887449D01*
X145453971Y-122879553D01*
X145417463Y-122840463D01*
X145413027Y-122835375D01*
X145379277Y-122793891D01*
X145372009Y-122788761D01*
X145356749Y-122775454D01*
X145350682Y-122768958D01*
X145350675Y-122768952D01*
X145304994Y-122741173D01*
X145299342Y-122737466D01*
X145255646Y-122706622D01*
X145247259Y-122703641D01*
X145228979Y-122694947D01*
X145221387Y-122690330D01*
X145221385Y-122690329D01*
X145221382Y-122690328D01*
X145214051Y-122688274D01*
X145169886Y-122675898D01*
X145163448Y-122673854D01*
X145113060Y-122655946D01*
X145113054Y-122655945D01*
X145104175Y-122655338D01*
X145084228Y-122651899D01*
X145075665Y-122649500D01*
X145075664Y-122649500D01*
X145022197Y-122649500D01*
X145015441Y-122649269D01*
X145008586Y-122648800D01*
X144962079Y-122645619D01*
X144962078Y-122645619D01*
X144953369Y-122647429D01*
X144933226Y-122649500D01*
X134727820Y-122649500D01*
X134669629Y-122630593D01*
X134633665Y-122581093D01*
X134631249Y-122568609D01*
X134630759Y-122568711D01*
X134621537Y-122524335D01*
X134618494Y-122509692D01*
X134617350Y-122503052D01*
X134610127Y-122450500D01*
X134610070Y-122450080D01*
X134606526Y-122441923D01*
X134600401Y-122422622D01*
X134598592Y-122413917D01*
X134598592Y-122413916D01*
X134598592Y-122413915D01*
X134573982Y-122366420D01*
X134571079Y-122360315D01*
X134549782Y-122311284D01*
X134549781Y-122311283D01*
X134549780Y-122311280D01*
X134544162Y-122304374D01*
X134533062Y-122287449D01*
X134528971Y-122279553D01*
X134492463Y-122240463D01*
X134488027Y-122235375D01*
X134463427Y-122205138D01*
X134454278Y-122193892D01*
X134447008Y-122188760D01*
X134431749Y-122175454D01*
X134425682Y-122168958D01*
X134425675Y-122168952D01*
X134379994Y-122141173D01*
X134374342Y-122137466D01*
X134330646Y-122106622D01*
X134322259Y-122103641D01*
X134303979Y-122094947D01*
X134296387Y-122090330D01*
X134296385Y-122090329D01*
X134296382Y-122090328D01*
X134289051Y-122088274D01*
X134244886Y-122075898D01*
X134238448Y-122073854D01*
X134188060Y-122055946D01*
X134188054Y-122055945D01*
X134179175Y-122055338D01*
X134159228Y-122051899D01*
X134150665Y-122049500D01*
X134150664Y-122049500D01*
X134097197Y-122049500D01*
X134090441Y-122049269D01*
X134083586Y-122048800D01*
X134037079Y-122045619D01*
X134037078Y-122045619D01*
X134028369Y-122047429D01*
X134008226Y-122049500D01*
X132149500Y-122049500D01*
X132091309Y-122030593D01*
X132055345Y-121981093D01*
X132050500Y-121950500D01*
X132050500Y-121400003D01*
X134944417Y-121400003D01*
X134964698Y-121605929D01*
X134964699Y-121605934D01*
X135024768Y-121803954D01*
X135122316Y-121986452D01*
X135220937Y-122106622D01*
X135253590Y-122146410D01*
X135258574Y-122150500D01*
X135413547Y-122277683D01*
X135413548Y-122277683D01*
X135413550Y-122277685D01*
X135596046Y-122375232D01*
X135723568Y-122413915D01*
X135794065Y-122435300D01*
X135794071Y-122435301D01*
X135923312Y-122448029D01*
X135948392Y-122450500D01*
X135948393Y-122450500D01*
X137451607Y-122450500D01*
X137451608Y-122450500D01*
X137481554Y-122447550D01*
X137605928Y-122435301D01*
X137605934Y-122435300D01*
X137647728Y-122422622D01*
X137803954Y-122375232D01*
X137986450Y-122277685D01*
X138146410Y-122146410D01*
X138277685Y-121986450D01*
X138375232Y-121803954D01*
X138435300Y-121605934D01*
X138435301Y-121605929D01*
X138455583Y-121400003D01*
X138455583Y-121399996D01*
X138435301Y-121194070D01*
X138435300Y-121194065D01*
X138397333Y-121068904D01*
X138375232Y-120996046D01*
X138277685Y-120813550D01*
X138277071Y-120812802D01*
X138146414Y-120653595D01*
X138146410Y-120653590D01*
X138146404Y-120653585D01*
X137986452Y-120522316D01*
X137803954Y-120424768D01*
X137605934Y-120364699D01*
X137605928Y-120364698D01*
X137461689Y-120350492D01*
X137451608Y-120349500D01*
X135948392Y-120349500D01*
X135938928Y-120350432D01*
X135794071Y-120364698D01*
X135794065Y-120364699D01*
X135596045Y-120424768D01*
X135413547Y-120522316D01*
X135253595Y-120653585D01*
X135253585Y-120653595D01*
X135122316Y-120813547D01*
X135024768Y-120996045D01*
X134964699Y-121194065D01*
X134964698Y-121194070D01*
X134944417Y-121399996D01*
X134944417Y-121400003D01*
X132050500Y-121400003D01*
X132050500Y-120889330D01*
X132069407Y-120831139D01*
X132086695Y-120812802D01*
X132210878Y-120710887D01*
X132210877Y-120710887D01*
X132210883Y-120710883D01*
X132335910Y-120558538D01*
X132428814Y-120384727D01*
X132486024Y-120196132D01*
X132505119Y-120002260D01*
X132505341Y-120000003D01*
X132505341Y-119999996D01*
X132486025Y-119803873D01*
X132486024Y-119803870D01*
X132486024Y-119803868D01*
X132428814Y-119615273D01*
X132335910Y-119441462D01*
X132335906Y-119441457D01*
X132210887Y-119289121D01*
X132210878Y-119289112D01*
X132058542Y-119164093D01*
X132058540Y-119164092D01*
X132058538Y-119164090D01*
X131967633Y-119115500D01*
X131884732Y-119071188D01*
X131884730Y-119071187D01*
X131696129Y-119013975D01*
X131696126Y-119013974D01*
X131500003Y-118994659D01*
X131499997Y-118994659D01*
X131303873Y-119013974D01*
X131303870Y-119013975D01*
X131115269Y-119071187D01*
X131115267Y-119071188D01*
X130941467Y-119164087D01*
X130941457Y-119164093D01*
X130789121Y-119289112D01*
X130789112Y-119289121D01*
X130664093Y-119441457D01*
X130664087Y-119441467D01*
X130571188Y-119615267D01*
X130571187Y-119615269D01*
X130513975Y-119803870D01*
X130513974Y-119803873D01*
X130494659Y-119999996D01*
X130494659Y-120000003D01*
X130513974Y-120196126D01*
X130513975Y-120196129D01*
X130571187Y-120384730D01*
X130571188Y-120384732D01*
X130592588Y-120424768D01*
X130664090Y-120558538D01*
X130664092Y-120558540D01*
X130664093Y-120558542D01*
X130789112Y-120710878D01*
X130789121Y-120710887D01*
X130913305Y-120812802D01*
X130946292Y-120864333D01*
X130949500Y-120889330D01*
X130949500Y-121950500D01*
X130930593Y-122008691D01*
X130881093Y-122044655D01*
X130850500Y-122049500D01*
X128849500Y-122049500D01*
X128791309Y-122030593D01*
X128755345Y-121981093D01*
X128750500Y-121950500D01*
X128750500Y-121099499D01*
X128769407Y-121041308D01*
X128818907Y-121005344D01*
X128849500Y-121000499D01*
X128897867Y-121000499D01*
X128897872Y-121000499D01*
X128957483Y-120994091D01*
X129024907Y-120968943D01*
X129092329Y-120943797D01*
X129092329Y-120943796D01*
X129092331Y-120943796D01*
X129207546Y-120857546D01*
X129293796Y-120742331D01*
X129344091Y-120607483D01*
X129350500Y-120547873D01*
X129350499Y-118452128D01*
X129344091Y-118392517D01*
X129315188Y-118315024D01*
X129293797Y-118257670D01*
X129207549Y-118142458D01*
X129207548Y-118142457D01*
X129207546Y-118142454D01*
X129172473Y-118116198D01*
X129092329Y-118056202D01*
X128957488Y-118005910D01*
X128957483Y-118005909D01*
X128957481Y-118005908D01*
X128957477Y-118005908D01*
X128926249Y-118002550D01*
X128897873Y-117999500D01*
X128897870Y-117999500D01*
X127502133Y-117999500D01*
X127502129Y-117999500D01*
X127502128Y-117999501D01*
X127494949Y-118000272D01*
X127442519Y-118005908D01*
X127442514Y-118005909D01*
X127307670Y-118056202D01*
X127192458Y-118142450D01*
X127192450Y-118142458D01*
X127106202Y-118257670D01*
X127055910Y-118392511D01*
X127055908Y-118392522D01*
X127049500Y-118452129D01*
X127049500Y-120547866D01*
X127049501Y-120547870D01*
X127055908Y-120607480D01*
X127055909Y-120607485D01*
X127106202Y-120742329D01*
X127176257Y-120835910D01*
X127192454Y-120857546D01*
X127192457Y-120857548D01*
X127192458Y-120857549D01*
X127307670Y-120943797D01*
X127442511Y-120994089D01*
X127442512Y-120994089D01*
X127442517Y-120994091D01*
X127502127Y-121000500D01*
X127550500Y-121000499D01*
X127608689Y-121019405D01*
X127644654Y-121068904D01*
X127649500Y-121099499D01*
X127649500Y-122577803D01*
X127649269Y-122584559D01*
X127645619Y-122637921D01*
X127647429Y-122646631D01*
X127649500Y-122666774D01*
X127649500Y-122900500D01*
X127630593Y-122958691D01*
X127581093Y-122994655D01*
X127550502Y-122999500D01*
X127502132Y-122999500D01*
X127502128Y-122999501D01*
X127442519Y-123005908D01*
X127442514Y-123005909D01*
X127307670Y-123056202D01*
X127192458Y-123142450D01*
X127192450Y-123142458D01*
X127106202Y-123257670D01*
X127055910Y-123392511D01*
X127055908Y-123392522D01*
X127049500Y-123452129D01*
X127049500Y-125547866D01*
X127049501Y-125547870D01*
X127055908Y-125607480D01*
X127055909Y-125607485D01*
X127106202Y-125742329D01*
X127168384Y-125825393D01*
X127192454Y-125857546D01*
X127192457Y-125857548D01*
X127192458Y-125857549D01*
X127307670Y-125943797D01*
X127442511Y-125994089D01*
X127442512Y-125994089D01*
X127442517Y-125994091D01*
X127502127Y-126000500D01*
X128897872Y-126000499D01*
X128957483Y-125994091D01*
X129083175Y-125947211D01*
X129092329Y-125943797D01*
X129092329Y-125943796D01*
X129092331Y-125943796D01*
X129207546Y-125857546D01*
X129293796Y-125742331D01*
X129319245Y-125674100D01*
X129344089Y-125607488D01*
X129344090Y-125607485D01*
X129344091Y-125607483D01*
X129350500Y-125547873D01*
X129350500Y-125189324D01*
X130200001Y-125189324D01*
X130215443Y-125306629D01*
X130215444Y-125306631D01*
X130275899Y-125452585D01*
X130275901Y-125452589D01*
X130372070Y-125577919D01*
X130372080Y-125577929D01*
X130497410Y-125674098D01*
X130497414Y-125674100D01*
X130643368Y-125734555D01*
X130643369Y-125734556D01*
X130760676Y-125749999D01*
X130875000Y-125749999D01*
X130875000Y-125749998D01*
X131375000Y-125749998D01*
X131375001Y-125749999D01*
X131489320Y-125749999D01*
X131489324Y-125749998D01*
X131606629Y-125734556D01*
X131606631Y-125734555D01*
X131752585Y-125674100D01*
X131752589Y-125674098D01*
X131877919Y-125577929D01*
X131877929Y-125577919D01*
X131974098Y-125452589D01*
X131974100Y-125452585D01*
X132034555Y-125306631D01*
X132034556Y-125306630D01*
X132049999Y-125189323D01*
X132050000Y-125189322D01*
X132050000Y-124750001D01*
X132049999Y-124750000D01*
X131375001Y-124750000D01*
X131375000Y-124750001D01*
X131375000Y-125749998D01*
X130875000Y-125749998D01*
X130875000Y-124750001D01*
X130874999Y-124750000D01*
X130200002Y-124750000D01*
X130200001Y-124750001D01*
X130200001Y-125189324D01*
X129350500Y-125189324D01*
X129350499Y-123452128D01*
X129344091Y-123392517D01*
X129326014Y-123344049D01*
X129303653Y-123284096D01*
X129301033Y-123222967D01*
X129334844Y-123171972D01*
X129392172Y-123150591D01*
X129396411Y-123150500D01*
X130434354Y-123150500D01*
X130492545Y-123169407D01*
X130528509Y-123218907D01*
X130528509Y-123280093D01*
X130494621Y-123328042D01*
X130372080Y-123422070D01*
X130372070Y-123422080D01*
X130275901Y-123547410D01*
X130275899Y-123547414D01*
X130215444Y-123693368D01*
X130215443Y-123693369D01*
X130200000Y-123810676D01*
X130200000Y-124249999D01*
X130200001Y-124250000D01*
X132049998Y-124250000D01*
X132049999Y-124249999D01*
X132049999Y-123810680D01*
X132049998Y-123810675D01*
X132034556Y-123693370D01*
X132034555Y-123693368D01*
X131974100Y-123547414D01*
X131974098Y-123547410D01*
X131877929Y-123422080D01*
X131877919Y-123422070D01*
X131755379Y-123328042D01*
X131720723Y-123277618D01*
X131722324Y-123216453D01*
X131759572Y-123167912D01*
X131815646Y-123150500D01*
X133422180Y-123150500D01*
X133480371Y-123169407D01*
X133516335Y-123218907D01*
X133518751Y-123231391D01*
X133519241Y-123231290D01*
X133522429Y-123246631D01*
X133524500Y-123266774D01*
X133524500Y-123344049D01*
X133505593Y-123402240D01*
X133484829Y-123423302D01*
X133392458Y-123492450D01*
X133392450Y-123492458D01*
X133306202Y-123607670D01*
X133255910Y-123742511D01*
X133255908Y-123742522D01*
X133249500Y-123802129D01*
X133249500Y-125197866D01*
X133249501Y-125197870D01*
X133255908Y-125257480D01*
X133255909Y-125257485D01*
X133306202Y-125392329D01*
X133392261Y-125507288D01*
X133392454Y-125507546D01*
X133392457Y-125507548D01*
X133392458Y-125507549D01*
X133507670Y-125593797D01*
X133642511Y-125644089D01*
X133642512Y-125644089D01*
X133642517Y-125644091D01*
X133702127Y-125650500D01*
X134447872Y-125650499D01*
X134507483Y-125644091D01*
X134605629Y-125607485D01*
X134642329Y-125593797D01*
X134642329Y-125593796D01*
X134642331Y-125593796D01*
X134757546Y-125507546D01*
X134843796Y-125392331D01*
X134853378Y-125366642D01*
X134880462Y-125294025D01*
X134894091Y-125257483D01*
X134900500Y-125197873D01*
X134900499Y-123849499D01*
X134919406Y-123791309D01*
X134968906Y-123755345D01*
X134999499Y-123750500D01*
X144350500Y-123750500D01*
X144408691Y-123769407D01*
X144444655Y-123818907D01*
X144449500Y-123849500D01*
X144449500Y-124100500D01*
X144430593Y-124158691D01*
X144381093Y-124194655D01*
X144350500Y-124199500D01*
X143461842Y-124199500D01*
X143426373Y-124202291D01*
X143426368Y-124202292D01*
X143274606Y-124246383D01*
X143138583Y-124326827D01*
X143026827Y-124438583D01*
X142946383Y-124574606D01*
X142946383Y-124574607D01*
X142902290Y-124726374D01*
X142899500Y-124761842D01*
X142899500Y-125638157D01*
X142902291Y-125673626D01*
X142902292Y-125673631D01*
X142946383Y-125825393D01*
X143026827Y-125961416D01*
X143026828Y-125961417D01*
X143026830Y-125961420D01*
X143138580Y-126073170D01*
X143274610Y-126153618D01*
X143426373Y-126197709D01*
X143461837Y-126200500D01*
X144838162Y-126200499D01*
X144873627Y-126197709D01*
X145025390Y-126153618D01*
X145161420Y-126073170D01*
X145273170Y-125961420D01*
X145353618Y-125825390D01*
X145397709Y-125673627D01*
X145400500Y-125638163D01*
X145400499Y-125622211D01*
X145419403Y-125564022D01*
X145429259Y-125552873D01*
X145431041Y-125550683D01*
X145431041Y-125550682D01*
X145431044Y-125550680D01*
X145458841Y-125504967D01*
X145462523Y-125499354D01*
X145469624Y-125489295D01*
X145518630Y-125452663D01*
X145579810Y-125451831D01*
X145629794Y-125487119D01*
X145649491Y-125545047D01*
X145649500Y-125546393D01*
X145649500Y-159400500D01*
X145630593Y-159458691D01*
X145581093Y-159494655D01*
X145550500Y-159499500D01*
X126449000Y-159499500D01*
X126390809Y-159480593D01*
X126354845Y-159431093D01*
X126350000Y-159400500D01*
X126350000Y-157423543D01*
X126368907Y-157365352D01*
X126418407Y-157329388D01*
X126479593Y-157329388D01*
X126501318Y-157340655D01*
X126501456Y-157340404D01*
X126507668Y-157343796D01*
X126642511Y-157394089D01*
X126642512Y-157394089D01*
X126642517Y-157394091D01*
X126702127Y-157400500D01*
X128797872Y-157400499D01*
X128857483Y-157394091D01*
X128934536Y-157365352D01*
X128992329Y-157343797D01*
X128992329Y-157343796D01*
X128992331Y-157343796D01*
X129107546Y-157257546D01*
X129193796Y-157142331D01*
X129244091Y-157007483D01*
X129250500Y-156947873D01*
X129250500Y-156939324D01*
X130450001Y-156939324D01*
X130465443Y-157056629D01*
X130465444Y-157056631D01*
X130525899Y-157202585D01*
X130525901Y-157202589D01*
X130622070Y-157327919D01*
X130622080Y-157327929D01*
X130747410Y-157424098D01*
X130747414Y-157424100D01*
X130893368Y-157484555D01*
X130893369Y-157484556D01*
X131010677Y-157499999D01*
X131799998Y-157499999D01*
X131800000Y-157499998D01*
X132300000Y-157499998D01*
X132300001Y-157499999D01*
X133089320Y-157499999D01*
X133089324Y-157499998D01*
X133206629Y-157484556D01*
X133206631Y-157484555D01*
X133352585Y-157424100D01*
X133352589Y-157424098D01*
X133477919Y-157327929D01*
X133477929Y-157327919D01*
X133574098Y-157202589D01*
X133574100Y-157202585D01*
X133634555Y-157056631D01*
X133634556Y-157056630D01*
X133649999Y-156939323D01*
X133650000Y-156939322D01*
X133650000Y-156250001D01*
X133649999Y-156250000D01*
X132300001Y-156250000D01*
X132300000Y-156250001D01*
X132300000Y-157499998D01*
X131800000Y-157499998D01*
X131800000Y-156250001D01*
X131799999Y-156250000D01*
X130450002Y-156250000D01*
X130450001Y-156250001D01*
X130450001Y-156939324D01*
X129250500Y-156939324D01*
X129250499Y-155749999D01*
X130450000Y-155749999D01*
X130450001Y-155750000D01*
X131799999Y-155750000D01*
X131800000Y-155749999D01*
X132300000Y-155749999D01*
X132300001Y-155750000D01*
X133649998Y-155750000D01*
X133649999Y-155749999D01*
X133649999Y-155060680D01*
X133649998Y-155060675D01*
X133634556Y-154943370D01*
X133634555Y-154943368D01*
X133574100Y-154797414D01*
X133574098Y-154797410D01*
X133477929Y-154672080D01*
X133477919Y-154672070D01*
X133352589Y-154575901D01*
X133352585Y-154575899D01*
X133206631Y-154515444D01*
X133206630Y-154515443D01*
X133089323Y-154500000D01*
X132300001Y-154500000D01*
X132300000Y-154500001D01*
X132300000Y-155749999D01*
X131800000Y-155749999D01*
X131800000Y-154500001D01*
X131799999Y-154500000D01*
X131010680Y-154500000D01*
X131010675Y-154500001D01*
X130893370Y-154515443D01*
X130893368Y-154515444D01*
X130747414Y-154575899D01*
X130747410Y-154575901D01*
X130622080Y-154672070D01*
X130622070Y-154672080D01*
X130525901Y-154797410D01*
X130525899Y-154797414D01*
X130465444Y-154943368D01*
X130465443Y-154943369D01*
X130450000Y-155060676D01*
X130450000Y-155749999D01*
X129250499Y-155749999D01*
X129250499Y-155052128D01*
X129244091Y-154992517D01*
X129244090Y-154992514D01*
X129193797Y-154857670D01*
X129107549Y-154742458D01*
X129107548Y-154742457D01*
X129107546Y-154742454D01*
X129022453Y-154678753D01*
X128987200Y-154628744D01*
X128988074Y-154567565D01*
X129024742Y-154518584D01*
X129081782Y-154500500D01*
X130071960Y-154500500D01*
X130071961Y-154500500D01*
X130099873Y-154492304D01*
X130113656Y-154489305D01*
X130142457Y-154485165D01*
X130168920Y-154473078D01*
X130182135Y-154468149D01*
X130210053Y-154459953D01*
X130234527Y-154444224D01*
X130246914Y-154437460D01*
X130273373Y-154425377D01*
X130295353Y-154406330D01*
X130306659Y-154397867D01*
X130331128Y-154382143D01*
X130350176Y-154360159D01*
X130360159Y-154350176D01*
X130382143Y-154331128D01*
X130397868Y-154306656D01*
X130406330Y-154295353D01*
X130425377Y-154273373D01*
X130437460Y-154246914D01*
X130444224Y-154234527D01*
X130459953Y-154210053D01*
X130468149Y-154182135D01*
X130473078Y-154168920D01*
X130485165Y-154142457D01*
X130489305Y-154113656D01*
X130492304Y-154099873D01*
X130500500Y-154071961D01*
X130500500Y-153928039D01*
X130500500Y-153750000D01*
X135229528Y-153750000D01*
X135292682Y-153920522D01*
X135292685Y-153920528D01*
X135394890Y-154084500D01*
X135394895Y-154084506D01*
X135528003Y-154224535D01*
X135686578Y-154334908D01*
X135686586Y-154334912D01*
X135864137Y-154411106D01*
X136053396Y-154450000D01*
X136399999Y-154450000D01*
X136400000Y-154449999D01*
X136400000Y-153850000D01*
X136900000Y-153850000D01*
X136900000Y-154449999D01*
X136900001Y-154450000D01*
X137198177Y-154450000D01*
X137342218Y-154435352D01*
X137342220Y-154435351D01*
X137526571Y-154377511D01*
X137526572Y-154377510D01*
X137695501Y-154283747D01*
X137842102Y-154157894D01*
X137842109Y-154157887D01*
X137960370Y-154005106D01*
X138045457Y-153831642D01*
X138066597Y-153750000D01*
X137245581Y-153750000D01*
X137297060Y-153694079D01*
X137343982Y-153587108D01*
X137353628Y-153470698D01*
X137349319Y-153453683D01*
X140795740Y-153453683D01*
X140805755Y-153638407D01*
X140855246Y-153816659D01*
X140855247Y-153816661D01*
X140855250Y-153816667D01*
X140941899Y-153980103D01*
X140941900Y-153980104D01*
X141061661Y-154121098D01*
X141061666Y-154121103D01*
X141208932Y-154233052D01*
X141208934Y-154233053D01*
X141208935Y-154233053D01*
X141208936Y-154233054D01*
X141376833Y-154310732D01*
X141557503Y-154350500D01*
X141557507Y-154350500D01*
X141696112Y-154350500D01*
X141696113Y-154350500D01*
X141833910Y-154335514D01*
X142009221Y-154276444D01*
X142167736Y-154181070D01*
X142302041Y-154053849D01*
X142387342Y-153928039D01*
X142405857Y-153900732D01*
X142408449Y-153894226D01*
X142474331Y-153728875D01*
X142504260Y-153546317D01*
X142499238Y-153453683D01*
X143295740Y-153453683D01*
X143305755Y-153638407D01*
X143355246Y-153816659D01*
X143355247Y-153816661D01*
X143355250Y-153816667D01*
X143441899Y-153980103D01*
X143441900Y-153980104D01*
X143561661Y-154121098D01*
X143561666Y-154121103D01*
X143708932Y-154233052D01*
X143708934Y-154233053D01*
X143708935Y-154233053D01*
X143708936Y-154233054D01*
X143876833Y-154310732D01*
X144057503Y-154350500D01*
X144057507Y-154350500D01*
X144196112Y-154350500D01*
X144196113Y-154350500D01*
X144333910Y-154335514D01*
X144509221Y-154276444D01*
X144667736Y-154181070D01*
X144802041Y-154053849D01*
X144887342Y-153928039D01*
X144905857Y-153900732D01*
X144908449Y-153894226D01*
X144974331Y-153728875D01*
X145004260Y-153546317D01*
X144994245Y-153361593D01*
X144944754Y-153183341D01*
X144858100Y-153019896D01*
X144795459Y-152946149D01*
X144738338Y-152878901D01*
X144738333Y-152878896D01*
X144591067Y-152766947D01*
X144591065Y-152766946D01*
X144423170Y-152689269D01*
X144423168Y-152689268D01*
X144387033Y-152681314D01*
X144242497Y-152649500D01*
X144103887Y-152649500D01*
X143966090Y-152664486D01*
X143907021Y-152684388D01*
X143790780Y-152723555D01*
X143790777Y-152723556D01*
X143632266Y-152818927D01*
X143632262Y-152818931D01*
X143497960Y-152946149D01*
X143394142Y-153099267D01*
X143325669Y-153271124D01*
X143325669Y-153271125D01*
X143295740Y-153453683D01*
X142499238Y-153453683D01*
X142494245Y-153361593D01*
X142444754Y-153183341D01*
X142358100Y-153019896D01*
X142295459Y-152946149D01*
X142238338Y-152878901D01*
X142238333Y-152878896D01*
X142091067Y-152766947D01*
X142091065Y-152766946D01*
X141923170Y-152689269D01*
X141923168Y-152689268D01*
X141887033Y-152681314D01*
X141742497Y-152649500D01*
X141603887Y-152649500D01*
X141466090Y-152664486D01*
X141407021Y-152684388D01*
X141290780Y-152723555D01*
X141290777Y-152723556D01*
X141132266Y-152818927D01*
X141132262Y-152818931D01*
X140997960Y-152946149D01*
X140894142Y-153099267D01*
X140825669Y-153271124D01*
X140825669Y-153271125D01*
X140795740Y-153453683D01*
X137349319Y-153453683D01*
X137324953Y-153357462D01*
X137261064Y-153259673D01*
X137248636Y-153250000D01*
X138070471Y-153250000D01*
X138070471Y-153249999D01*
X138007317Y-153079477D01*
X138007314Y-153079471D01*
X137905109Y-152915499D01*
X137905104Y-152915493D01*
X137771996Y-152775464D01*
X137613421Y-152665091D01*
X137613413Y-152665087D01*
X137435862Y-152588893D01*
X137246604Y-152550000D01*
X136900001Y-152550000D01*
X136900000Y-152550001D01*
X136900000Y-153150000D01*
X136400000Y-153150000D01*
X136400000Y-152550001D01*
X136399999Y-152550000D01*
X136101823Y-152550000D01*
X135957781Y-152564647D01*
X135957779Y-152564648D01*
X135773428Y-152622488D01*
X135773427Y-152622489D01*
X135604498Y-152716252D01*
X135457897Y-152842105D01*
X135457890Y-152842112D01*
X135339629Y-152994893D01*
X135254542Y-153168357D01*
X135233403Y-153249999D01*
X135233403Y-153250000D01*
X136054419Y-153250000D01*
X136002940Y-153305921D01*
X135956018Y-153412892D01*
X135946372Y-153529302D01*
X135975047Y-153642538D01*
X136038936Y-153740327D01*
X136051364Y-153750000D01*
X135229528Y-153750000D01*
X130500500Y-153750000D01*
X130500500Y-150635889D01*
X130519407Y-150577698D01*
X130568907Y-150541734D01*
X130630093Y-150541734D01*
X130676027Y-150573083D01*
X130698526Y-150600498D01*
X130789112Y-150710878D01*
X130789121Y-150710887D01*
X130941457Y-150835906D01*
X130941462Y-150835910D01*
X131115273Y-150928814D01*
X131303868Y-150986024D01*
X131303870Y-150986024D01*
X131303873Y-150986025D01*
X131499997Y-151005341D01*
X131500000Y-151005341D01*
X131500003Y-151005341D01*
X131696126Y-150986025D01*
X131696127Y-150986024D01*
X131696132Y-150986024D01*
X131884727Y-150928814D01*
X132058538Y-150835910D01*
X132210883Y-150710883D01*
X132335910Y-150558538D01*
X132428814Y-150384727D01*
X132486024Y-150196132D01*
X132490222Y-150153517D01*
X132505341Y-150000003D01*
X132505341Y-149999996D01*
X132486025Y-149803873D01*
X132486024Y-149803870D01*
X132486024Y-149803868D01*
X132428814Y-149615273D01*
X132335910Y-149441462D01*
X132323972Y-149426915D01*
X132210887Y-149289121D01*
X132210878Y-149289112D01*
X132058542Y-149164093D01*
X132058540Y-149164092D01*
X132058538Y-149164090D01*
X131986562Y-149125618D01*
X131884732Y-149071188D01*
X131884730Y-149071187D01*
X131874049Y-149067947D01*
X131696132Y-149013976D01*
X131696129Y-149013975D01*
X131696126Y-149013974D01*
X131500003Y-148994659D01*
X131499997Y-148994659D01*
X131303873Y-149013974D01*
X131303870Y-149013975D01*
X131115269Y-149071187D01*
X131115267Y-149071188D01*
X130941467Y-149164087D01*
X130941457Y-149164093D01*
X130789121Y-149289112D01*
X130789112Y-149289121D01*
X130676028Y-149426915D01*
X130624497Y-149459902D01*
X130563417Y-149456300D01*
X130516120Y-149417485D01*
X130500500Y-149364110D01*
X130500500Y-148453683D01*
X135795740Y-148453683D01*
X135805755Y-148638407D01*
X135836739Y-148750001D01*
X135855247Y-148816661D01*
X135855250Y-148816667D01*
X135941899Y-148980103D01*
X135941900Y-148980104D01*
X136061661Y-149121098D01*
X136061666Y-149121103D01*
X136208932Y-149233052D01*
X136208934Y-149233053D01*
X136208935Y-149233053D01*
X136208936Y-149233054D01*
X136376833Y-149310732D01*
X136557503Y-149350500D01*
X136557507Y-149350500D01*
X136696112Y-149350500D01*
X136696113Y-149350500D01*
X136833910Y-149335514D01*
X137009221Y-149276444D01*
X137146276Y-149193982D01*
X137167733Y-149181072D01*
X137167733Y-149181071D01*
X137167736Y-149181070D01*
X137302041Y-149053849D01*
X137305887Y-149048176D01*
X140700000Y-149048176D01*
X140714647Y-149192218D01*
X140714648Y-149192220D01*
X140772488Y-149376571D01*
X140772489Y-149376572D01*
X140866252Y-149545501D01*
X140992105Y-149692102D01*
X140992112Y-149692109D01*
X141144893Y-149810370D01*
X141318362Y-149895460D01*
X141399999Y-149916596D01*
X141400000Y-149916596D01*
X141400000Y-149095581D01*
X141455921Y-149147060D01*
X141562892Y-149193982D01*
X141679302Y-149203628D01*
X141792538Y-149174953D01*
X141890327Y-149111064D01*
X141900000Y-149098635D01*
X141900000Y-149920469D01*
X142070534Y-149857311D01*
X142070540Y-149857308D01*
X142234493Y-149755114D01*
X142234506Y-149755104D01*
X142374535Y-149621996D01*
X142484908Y-149463421D01*
X142484912Y-149463413D01*
X142561106Y-149285862D01*
X142600000Y-149096603D01*
X142600000Y-148750001D01*
X142599999Y-148750000D01*
X142000000Y-148750000D01*
X142000000Y-148250000D01*
X142599999Y-148250000D01*
X142600000Y-148249999D01*
X142600000Y-147951823D01*
X142585352Y-147807781D01*
X142585351Y-147807779D01*
X142527511Y-147623428D01*
X142527510Y-147623427D01*
X142433747Y-147454498D01*
X142307894Y-147307897D01*
X142307887Y-147307890D01*
X142155106Y-147189629D01*
X141981642Y-147104542D01*
X141900000Y-147083403D01*
X141900000Y-147904418D01*
X141844079Y-147852940D01*
X141737108Y-147806018D01*
X141620698Y-147796372D01*
X141507462Y-147825047D01*
X141409673Y-147888936D01*
X141400000Y-147901364D01*
X141400000Y-147079528D01*
X141399999Y-147079528D01*
X141229477Y-147142682D01*
X141229471Y-147142685D01*
X141065499Y-147244890D01*
X141065493Y-147244895D01*
X140925464Y-147378003D01*
X140815091Y-147536578D01*
X140815087Y-147536586D01*
X140738893Y-147714137D01*
X140700000Y-147903396D01*
X140700000Y-148249999D01*
X140700001Y-148250000D01*
X141300000Y-148250000D01*
X141300000Y-148750000D01*
X140700001Y-148750000D01*
X140700000Y-148750001D01*
X140700000Y-149048176D01*
X137305887Y-149048176D01*
X137396851Y-148914015D01*
X137405857Y-148900732D01*
X137414894Y-148878051D01*
X137474331Y-148728875D01*
X137504260Y-148546317D01*
X137494245Y-148361593D01*
X137444754Y-148183341D01*
X137358100Y-148019896D01*
X137238337Y-147878900D01*
X137238333Y-147878896D01*
X137091067Y-147766947D01*
X137091065Y-147766946D01*
X136923170Y-147689269D01*
X136923168Y-147689268D01*
X136887033Y-147681314D01*
X136742497Y-147649500D01*
X136603887Y-147649500D01*
X136466090Y-147664486D01*
X136407021Y-147684388D01*
X136290780Y-147723555D01*
X136290777Y-147723556D01*
X136132266Y-147818927D01*
X136132262Y-147818931D01*
X135997960Y-147946149D01*
X135894142Y-148099267D01*
X135825669Y-148271124D01*
X135800792Y-148422870D01*
X135795740Y-148453683D01*
X130500500Y-148453683D01*
X130500500Y-145934241D01*
X131419312Y-145934241D01*
X131507581Y-145988895D01*
X131507586Y-145988898D01*
X131697683Y-146062541D01*
X131898070Y-146100000D01*
X132101930Y-146100000D01*
X132302316Y-146062541D01*
X132492415Y-145988897D01*
X132492416Y-145988897D01*
X132580686Y-145934241D01*
X131999999Y-145353554D01*
X131419312Y-145934241D01*
X130500500Y-145934241D01*
X130500500Y-145000000D01*
X130895287Y-145000000D01*
X130914097Y-145202989D01*
X130969887Y-145399070D01*
X131060751Y-145581551D01*
X131062532Y-145583911D01*
X131646444Y-144999999D01*
X132353554Y-144999999D01*
X132937466Y-145583911D01*
X132939245Y-145581556D01*
X132939249Y-145581549D01*
X133030112Y-145399070D01*
X133085902Y-145202989D01*
X133104712Y-145000000D01*
X133085902Y-144797010D01*
X133030112Y-144600929D01*
X132939249Y-144418450D01*
X132939244Y-144418441D01*
X132937466Y-144416087D01*
X132353554Y-144999999D01*
X131646444Y-144999999D01*
X131062533Y-144416087D01*
X131060753Y-144418445D01*
X131060750Y-144418449D01*
X130969887Y-144600929D01*
X130914097Y-144797010D01*
X130895287Y-145000000D01*
X130500500Y-145000000D01*
X130500500Y-144099500D01*
X130519407Y-144041309D01*
X130568907Y-144005345D01*
X130599500Y-144000500D01*
X131315733Y-144000500D01*
X131373924Y-144019407D01*
X131384036Y-144033324D01*
X131385458Y-144031903D01*
X131999999Y-144646444D01*
X132614541Y-144031903D01*
X132616522Y-144033884D01*
X132643036Y-144009494D01*
X132684266Y-144000500D01*
X135413423Y-144000500D01*
X135471614Y-144019407D01*
X135488877Y-144035409D01*
X135561661Y-144121098D01*
X135561666Y-144121103D01*
X135708932Y-144233052D01*
X135708934Y-144233053D01*
X135708935Y-144233053D01*
X135708936Y-144233054D01*
X135876833Y-144310732D01*
X136057503Y-144350500D01*
X136057507Y-144350500D01*
X137196112Y-144350500D01*
X137196113Y-144350500D01*
X137333910Y-144335514D01*
X137509221Y-144276444D01*
X137667736Y-144181070D01*
X137802041Y-144053849D01*
X137883829Y-143933219D01*
X137905857Y-143900732D01*
X137929054Y-143842511D01*
X137974331Y-143728875D01*
X138004260Y-143546317D01*
X137999238Y-143453683D01*
X140795740Y-143453683D01*
X140805755Y-143638407D01*
X140855246Y-143816659D01*
X140855247Y-143816661D01*
X140855250Y-143816667D01*
X140941899Y-143980103D01*
X140941900Y-143980104D01*
X141061661Y-144121098D01*
X141061666Y-144121103D01*
X141208932Y-144233052D01*
X141208934Y-144233053D01*
X141208935Y-144233053D01*
X141208936Y-144233054D01*
X141376833Y-144310732D01*
X141557503Y-144350500D01*
X141557507Y-144350500D01*
X141696112Y-144350500D01*
X141696113Y-144350500D01*
X141833910Y-144335514D01*
X142009221Y-144276444D01*
X142167736Y-144181070D01*
X142302041Y-144053849D01*
X142383829Y-143933219D01*
X142405857Y-143900732D01*
X142429054Y-143842511D01*
X142474331Y-143728875D01*
X142504260Y-143546317D01*
X142499238Y-143453683D01*
X143295740Y-143453683D01*
X143305755Y-143638407D01*
X143355246Y-143816659D01*
X143355247Y-143816661D01*
X143355250Y-143816667D01*
X143441899Y-143980103D01*
X143441900Y-143980104D01*
X143561661Y-144121098D01*
X143561666Y-144121103D01*
X143708932Y-144233052D01*
X143708934Y-144233053D01*
X143708935Y-144233053D01*
X143708936Y-144233054D01*
X143876833Y-144310732D01*
X144057503Y-144350500D01*
X144057507Y-144350500D01*
X144196112Y-144350500D01*
X144196113Y-144350500D01*
X144333910Y-144335514D01*
X144509221Y-144276444D01*
X144667736Y-144181070D01*
X144802041Y-144053849D01*
X144883829Y-143933219D01*
X144905857Y-143900732D01*
X144929054Y-143842511D01*
X144974331Y-143728875D01*
X145004260Y-143546317D01*
X144994245Y-143361593D01*
X144944754Y-143183341D01*
X144858100Y-143019896D01*
X144738337Y-142878900D01*
X144738333Y-142878896D01*
X144591067Y-142766947D01*
X144591065Y-142766946D01*
X144423170Y-142689269D01*
X144423168Y-142689268D01*
X144387033Y-142681314D01*
X144242497Y-142649500D01*
X144103887Y-142649500D01*
X143966090Y-142664486D01*
X143907021Y-142684388D01*
X143790780Y-142723555D01*
X143790777Y-142723556D01*
X143632266Y-142818927D01*
X143632262Y-142818931D01*
X143497960Y-142946149D01*
X143394142Y-143099267D01*
X143325669Y-143271124D01*
X143296426Y-143449501D01*
X143295740Y-143453683D01*
X142499238Y-143453683D01*
X142494245Y-143361593D01*
X142444754Y-143183341D01*
X142358100Y-143019896D01*
X142238337Y-142878900D01*
X142238333Y-142878896D01*
X142091067Y-142766947D01*
X142091065Y-142766946D01*
X141923170Y-142689269D01*
X141923168Y-142689268D01*
X141887033Y-142681314D01*
X141742497Y-142649500D01*
X141603887Y-142649500D01*
X141466090Y-142664486D01*
X141407021Y-142684388D01*
X141290780Y-142723555D01*
X141290777Y-142723556D01*
X141132266Y-142818927D01*
X141132262Y-142818931D01*
X140997960Y-142946149D01*
X140894142Y-143099267D01*
X140825669Y-143271124D01*
X140796426Y-143449501D01*
X140795740Y-143453683D01*
X137999238Y-143453683D01*
X137994245Y-143361593D01*
X137944754Y-143183341D01*
X137858100Y-143019896D01*
X137738337Y-142878900D01*
X137738333Y-142878896D01*
X137591067Y-142766947D01*
X137591065Y-142766946D01*
X137423170Y-142689269D01*
X137423168Y-142689268D01*
X137387033Y-142681314D01*
X137242497Y-142649500D01*
X136103887Y-142649500D01*
X135966090Y-142664486D01*
X135907021Y-142684388D01*
X135790780Y-142723555D01*
X135790777Y-142723556D01*
X135632266Y-142818927D01*
X135632262Y-142818931D01*
X135497960Y-142946149D01*
X135491242Y-142956058D01*
X135442936Y-142993611D01*
X135409301Y-142999500D01*
X130599500Y-142999500D01*
X130541309Y-142980593D01*
X130505345Y-142931093D01*
X130500500Y-142900500D01*
X130500500Y-138198040D01*
X130500499Y-138198036D01*
X130492306Y-138170132D01*
X130489304Y-138156337D01*
X130485165Y-138127543D01*
X130473079Y-138101079D01*
X130468145Y-138087849D01*
X130459953Y-138059947D01*
X130444225Y-138035474D01*
X130437458Y-138023080D01*
X130426233Y-137998502D01*
X130425377Y-137996627D01*
X130425375Y-137996625D01*
X130425375Y-137996624D01*
X130406332Y-137974647D01*
X130397865Y-137963336D01*
X130382147Y-137938877D01*
X130382144Y-137938874D01*
X130382143Y-137938872D01*
X130360160Y-137919823D01*
X130350182Y-137909846D01*
X130331128Y-137887857D01*
X130306651Y-137872126D01*
X130295353Y-137863669D01*
X130273373Y-137844623D01*
X130257836Y-137837527D01*
X130246915Y-137832539D01*
X130234523Y-137825772D01*
X130210054Y-137810047D01*
X130210051Y-137810046D01*
X130182146Y-137801852D01*
X130168913Y-137796917D01*
X130142457Y-137784835D01*
X130142459Y-137784835D01*
X130113663Y-137780694D01*
X130099872Y-137777693D01*
X130071968Y-137769501D01*
X130071962Y-137769500D01*
X130071961Y-137769500D01*
X130071958Y-137769500D01*
X127887039Y-137769500D01*
X127828848Y-137750593D01*
X127804723Y-137725501D01*
X127780601Y-137689399D01*
X127780599Y-137689397D01*
X127697742Y-137634035D01*
X127697740Y-137634034D01*
X127697737Y-137634033D01*
X127697736Y-137634033D01*
X127624684Y-137619501D01*
X127624674Y-137619500D01*
X126449000Y-137619500D01*
X126390809Y-137600593D01*
X126354845Y-137551093D01*
X126350000Y-137520500D01*
X126350000Y-136479500D01*
X126368907Y-136421309D01*
X126418407Y-136385345D01*
X126449000Y-136380500D01*
X127624673Y-136380500D01*
X127624674Y-136380500D01*
X127697740Y-136365966D01*
X127780601Y-136310601D01*
X127780605Y-136310594D01*
X127781705Y-136309496D01*
X127784019Y-136308316D01*
X127788708Y-136305184D01*
X127789078Y-136305738D01*
X127836222Y-136281719D01*
X127851709Y-136280500D01*
X129477803Y-136280500D01*
X129484559Y-136280731D01*
X129537921Y-136284381D01*
X129590316Y-136273492D01*
X129596929Y-136272352D01*
X129649920Y-136265070D01*
X129658073Y-136261527D01*
X129677371Y-136255402D01*
X129686085Y-136253592D01*
X129733595Y-136228973D01*
X129739649Y-136226093D01*
X129788720Y-136204780D01*
X129795618Y-136199167D01*
X129812553Y-136188061D01*
X129820443Y-136183973D01*
X129820442Y-136183973D01*
X129820447Y-136183971D01*
X129859558Y-136147441D01*
X129864599Y-136143046D01*
X129906108Y-136109278D01*
X129911233Y-136102016D01*
X129924550Y-136086744D01*
X129931044Y-136080680D01*
X129958841Y-136034967D01*
X129962518Y-136029362D01*
X129993377Y-135985647D01*
X129996355Y-135977263D01*
X130005049Y-135958982D01*
X130009672Y-135951382D01*
X130024095Y-135899901D01*
X130026140Y-135893461D01*
X130044053Y-135843058D01*
X130044054Y-135843056D01*
X130044660Y-135834182D01*
X130048099Y-135814230D01*
X130050500Y-135805665D01*
X130050500Y-135752195D01*
X130050731Y-135745439D01*
X130054381Y-135692077D01*
X130052571Y-135683367D01*
X130050500Y-135663225D01*
X130050500Y-134649500D01*
X130069407Y-134591309D01*
X130118907Y-134555345D01*
X130149500Y-134550500D01*
X133400500Y-134550500D01*
X133458691Y-134569407D01*
X133494655Y-134618907D01*
X133499500Y-134649500D01*
X133499500Y-139071957D01*
X133499501Y-139071968D01*
X133507693Y-139099872D01*
X133510694Y-139113663D01*
X133514835Y-139142458D01*
X133526917Y-139168913D01*
X133531852Y-139182146D01*
X133540046Y-139210051D01*
X133540047Y-139210054D01*
X133555772Y-139234523D01*
X133562539Y-139246915D01*
X133574623Y-139273373D01*
X133593669Y-139295353D01*
X133602126Y-139306651D01*
X133617857Y-139331128D01*
X133639846Y-139350182D01*
X133649823Y-139360160D01*
X133668872Y-139382143D01*
X133668874Y-139382144D01*
X133668877Y-139382147D01*
X133693336Y-139397865D01*
X133704647Y-139406332D01*
X133726624Y-139425375D01*
X133726625Y-139425375D01*
X133726627Y-139425377D01*
X133749381Y-139435768D01*
X133753080Y-139437458D01*
X133765474Y-139444225D01*
X133789947Y-139459953D01*
X133817853Y-139468146D01*
X133831079Y-139473079D01*
X133857543Y-139485165D01*
X133886337Y-139489304D01*
X133900132Y-139492306D01*
X133928039Y-139500500D01*
X133964201Y-139500500D01*
X134240918Y-139500500D01*
X134299109Y-139519407D01*
X134333676Y-139564903D01*
X134381203Y-139692330D01*
X134383616Y-139695554D01*
X134467454Y-139807546D01*
X134467457Y-139807548D01*
X134467458Y-139807549D01*
X134582670Y-139893797D01*
X134717511Y-139944089D01*
X134717512Y-139944089D01*
X134717517Y-139944091D01*
X134777127Y-139950500D01*
X135397872Y-139950499D01*
X135457483Y-139944091D01*
X135524907Y-139918943D01*
X135592329Y-139893797D01*
X135592329Y-139893796D01*
X135592331Y-139893796D01*
X135707546Y-139807546D01*
X135793796Y-139692331D01*
X135824037Y-139611252D01*
X135831287Y-139591811D01*
X135844091Y-139557483D01*
X135850500Y-139497873D01*
X135850500Y-139497869D01*
X136149500Y-139497869D01*
X136149501Y-139497872D01*
X136149784Y-139500500D01*
X136155908Y-139557480D01*
X136155909Y-139557485D01*
X136206202Y-139692329D01*
X136292450Y-139807541D01*
X136292454Y-139807546D01*
X136292457Y-139807548D01*
X136292458Y-139807549D01*
X136407670Y-139893797D01*
X136542511Y-139944089D01*
X136542512Y-139944089D01*
X136542517Y-139944091D01*
X136602127Y-139950500D01*
X137222872Y-139950499D01*
X137282483Y-139944091D01*
X137349907Y-139918943D01*
X137417329Y-139893797D01*
X137417329Y-139893796D01*
X137417331Y-139893796D01*
X137532546Y-139807546D01*
X137618796Y-139692331D01*
X137656287Y-139591811D01*
X137694337Y-139543897D01*
X137753284Y-139527499D01*
X137810612Y-139548880D01*
X137841801Y-139591808D01*
X137880497Y-139695554D01*
X137965669Y-139809331D01*
X138041807Y-139866327D01*
X138078501Y-139893796D01*
X138079446Y-139894503D01*
X138212609Y-139944171D01*
X138271479Y-139950500D01*
X138853520Y-139950499D01*
X138912391Y-139944171D01*
X139045554Y-139894503D01*
X139159331Y-139809331D01*
X139244503Y-139695554D01*
X139294171Y-139562391D01*
X139300500Y-139503521D01*
X139300500Y-139495165D01*
X139600001Y-139495165D01*
X139615282Y-139611246D01*
X139615284Y-139611252D01*
X139675110Y-139755685D01*
X139770282Y-139879715D01*
X139770284Y-139879717D01*
X139894314Y-139974889D01*
X140038747Y-140034715D01*
X140038753Y-140034717D01*
X140154837Y-140049999D01*
X140187499Y-140049999D01*
X140187500Y-140049998D01*
X140687500Y-140049998D01*
X140687501Y-140049999D01*
X140720160Y-140049999D01*
X140720165Y-140049998D01*
X140836246Y-140034717D01*
X140836252Y-140034715D01*
X140980685Y-139974889D01*
X141104715Y-139879717D01*
X141104717Y-139879715D01*
X141199889Y-139755685D01*
X141259715Y-139611252D01*
X141259717Y-139611246D01*
X141274999Y-139495164D01*
X141275000Y-139495162D01*
X141275000Y-139250001D01*
X141274999Y-139250000D01*
X140687501Y-139250000D01*
X140687500Y-139250001D01*
X140687500Y-140049998D01*
X140187500Y-140049998D01*
X140187500Y-139250001D01*
X140187499Y-139250000D01*
X139600002Y-139250000D01*
X139600001Y-139250001D01*
X139600001Y-139495165D01*
X139300500Y-139495165D01*
X139300499Y-138749999D01*
X139600000Y-138749999D01*
X139600001Y-138750000D01*
X140187499Y-138750000D01*
X140187500Y-138749999D01*
X140687500Y-138749999D01*
X140687501Y-138750000D01*
X141274998Y-138750000D01*
X141274999Y-138749999D01*
X141274999Y-138504840D01*
X141274998Y-138504834D01*
X141259717Y-138388753D01*
X141259715Y-138388747D01*
X141199889Y-138244314D01*
X141104717Y-138120284D01*
X141104715Y-138120282D01*
X140980685Y-138025110D01*
X140836252Y-137965284D01*
X140836246Y-137965282D01*
X140720164Y-137950000D01*
X140687501Y-137950000D01*
X140687500Y-137950001D01*
X140687500Y-138749999D01*
X140187500Y-138749999D01*
X140187500Y-137950000D01*
X140154841Y-137950000D01*
X140154833Y-137950001D01*
X140038753Y-137965282D01*
X140038747Y-137965284D01*
X139894314Y-138025110D01*
X139770284Y-138120282D01*
X139770282Y-138120284D01*
X139675110Y-138244314D01*
X139615284Y-138388747D01*
X139615282Y-138388753D01*
X139600000Y-138504835D01*
X139600000Y-138749999D01*
X139300499Y-138749999D01*
X139300499Y-138496480D01*
X139294171Y-138437609D01*
X139244503Y-138304446D01*
X139159331Y-138190669D01*
X139113457Y-138156328D01*
X139045556Y-138105498D01*
X139045554Y-138105497D01*
X138912391Y-138055829D01*
X138912390Y-138055828D01*
X138872660Y-138051557D01*
X138853521Y-138049500D01*
X138853517Y-138049500D01*
X138271485Y-138049500D01*
X138271479Y-138049501D01*
X138212612Y-138055828D01*
X138212609Y-138055828D01*
X138212609Y-138055829D01*
X138146027Y-138080663D01*
X138079443Y-138105498D01*
X137965671Y-138190667D01*
X137965667Y-138190671D01*
X137880497Y-138304445D01*
X137841801Y-138408189D01*
X137803750Y-138456102D01*
X137744802Y-138472499D01*
X137687475Y-138451116D01*
X137656286Y-138408186D01*
X137618797Y-138307670D01*
X137532549Y-138192458D01*
X137532548Y-138192457D01*
X137532546Y-138192454D01*
X137532541Y-138192450D01*
X137417329Y-138106202D01*
X137282488Y-138055910D01*
X137282483Y-138055909D01*
X137282481Y-138055908D01*
X137282477Y-138055908D01*
X137251249Y-138052550D01*
X137222873Y-138049500D01*
X137222870Y-138049500D01*
X136602133Y-138049500D01*
X136602129Y-138049500D01*
X136602128Y-138049501D01*
X136594949Y-138050272D01*
X136542519Y-138055908D01*
X136542514Y-138055909D01*
X136407670Y-138106202D01*
X136292458Y-138192450D01*
X136292450Y-138192458D01*
X136206202Y-138307670D01*
X136155910Y-138442511D01*
X136155908Y-138442522D01*
X136149500Y-138502129D01*
X136149500Y-139497866D01*
X136149500Y-139497869D01*
X135850500Y-139497869D01*
X135850499Y-138502128D01*
X135844091Y-138442517D01*
X135842262Y-138437612D01*
X135793797Y-138307670D01*
X135707549Y-138192458D01*
X135707548Y-138192457D01*
X135707546Y-138192454D01*
X135707541Y-138192450D01*
X135592329Y-138106202D01*
X135457488Y-138055910D01*
X135457483Y-138055909D01*
X135457481Y-138055908D01*
X135457477Y-138055908D01*
X135426249Y-138052550D01*
X135397873Y-138049500D01*
X135397870Y-138049500D01*
X134777133Y-138049500D01*
X134777129Y-138049500D01*
X134777128Y-138049501D01*
X134768966Y-138050378D01*
X134717520Y-138055908D01*
X134717517Y-138055908D01*
X134717517Y-138055909D01*
X134706691Y-138059947D01*
X134634096Y-138087023D01*
X134572966Y-138089642D01*
X134521972Y-138055830D01*
X134500591Y-137998502D01*
X134500500Y-137994264D01*
X134500500Y-134964324D01*
X135950001Y-134964324D01*
X135965443Y-135081629D01*
X135965444Y-135081631D01*
X136025899Y-135227585D01*
X136025901Y-135227589D01*
X136122070Y-135352919D01*
X136122080Y-135352929D01*
X136247410Y-135449098D01*
X136247414Y-135449100D01*
X136393368Y-135509555D01*
X136393369Y-135509556D01*
X136510676Y-135524999D01*
X136712498Y-135524999D01*
X136712500Y-135524998D01*
X137212500Y-135524998D01*
X137212501Y-135524999D01*
X137414320Y-135524999D01*
X137414324Y-135524998D01*
X137531629Y-135509556D01*
X137531631Y-135509555D01*
X137677585Y-135449100D01*
X137677589Y-135449098D01*
X137802919Y-135352929D01*
X137802929Y-135352919D01*
X137899098Y-135227589D01*
X137899100Y-135227585D01*
X137959555Y-135081631D01*
X137959556Y-135081630D01*
X137974999Y-134964323D01*
X137975000Y-134964322D01*
X137975000Y-134250001D01*
X137974999Y-134250000D01*
X137212501Y-134250000D01*
X137212500Y-134250001D01*
X137212500Y-135524998D01*
X136712500Y-135524998D01*
X136712500Y-134250001D01*
X136712499Y-134250000D01*
X135950002Y-134250000D01*
X135950001Y-134250001D01*
X135950001Y-134964324D01*
X134500500Y-134964324D01*
X134500500Y-134263069D01*
X134508700Y-134223618D01*
X134509668Y-134221387D01*
X134509672Y-134221382D01*
X134524095Y-134169901D01*
X134526140Y-134163461D01*
X134544053Y-134113058D01*
X134544054Y-134113056D01*
X134544660Y-134104182D01*
X134548099Y-134084230D01*
X134550500Y-134075665D01*
X134550500Y-134022195D01*
X134550731Y-134015439D01*
X134554381Y-133962079D01*
X134552571Y-133953367D01*
X134550500Y-133933225D01*
X134550500Y-133749999D01*
X135950000Y-133749999D01*
X135950001Y-133750000D01*
X136712499Y-133750000D01*
X136712500Y-133749999D01*
X137212500Y-133749999D01*
X137212501Y-133750000D01*
X137974998Y-133750000D01*
X137974999Y-133749999D01*
X137974999Y-133035680D01*
X137974998Y-133035675D01*
X137959556Y-132918370D01*
X137959555Y-132918368D01*
X137899100Y-132772414D01*
X137899098Y-132772410D01*
X137802929Y-132647080D01*
X137802919Y-132647070D01*
X137677589Y-132550901D01*
X137677585Y-132550899D01*
X137531631Y-132490444D01*
X137531630Y-132490443D01*
X137414323Y-132475000D01*
X137212501Y-132475000D01*
X137212500Y-132475001D01*
X137212500Y-133749999D01*
X136712500Y-133749999D01*
X136712500Y-132475001D01*
X136712499Y-132475000D01*
X136510680Y-132475000D01*
X136510675Y-132475001D01*
X136393370Y-132490443D01*
X136393368Y-132490444D01*
X136247414Y-132550899D01*
X136247410Y-132550901D01*
X136122080Y-132647070D01*
X136122070Y-132647080D01*
X136025901Y-132772410D01*
X136025899Y-132772414D01*
X135965444Y-132918368D01*
X135965443Y-132918369D01*
X135950000Y-133035676D01*
X135950000Y-133749999D01*
X134550500Y-133749999D01*
X134550500Y-132249500D01*
X134569407Y-132191309D01*
X134618907Y-132155345D01*
X134649500Y-132150500D01*
X137774335Y-132150500D01*
X137827803Y-132150500D01*
X137834559Y-132150731D01*
X137887921Y-132154381D01*
X137896631Y-132152570D01*
X137916774Y-132150500D01*
X139600500Y-132150500D01*
X139658691Y-132169407D01*
X139694655Y-132218907D01*
X139699500Y-132249500D01*
X139699500Y-132475500D01*
X139680593Y-132533691D01*
X139631093Y-132569655D01*
X139600504Y-132574500D01*
X139577133Y-132574500D01*
X139577128Y-132574501D01*
X139517519Y-132580908D01*
X139517514Y-132580909D01*
X139382670Y-132631202D01*
X139267458Y-132717450D01*
X139267450Y-132717458D01*
X139181202Y-132832670D01*
X139130910Y-132967511D01*
X139130908Y-132967522D01*
X139124500Y-133027129D01*
X139124500Y-134972866D01*
X139124501Y-134972870D01*
X139130908Y-135032480D01*
X139130909Y-135032485D01*
X139181202Y-135167329D01*
X139200008Y-135192450D01*
X139267454Y-135282546D01*
X139267457Y-135282548D01*
X139267458Y-135282549D01*
X139382670Y-135368797D01*
X139517511Y-135419089D01*
X139517512Y-135419089D01*
X139517517Y-135419091D01*
X139577127Y-135425500D01*
X140497872Y-135425499D01*
X140557483Y-135419091D01*
X140626450Y-135393368D01*
X140692329Y-135368797D01*
X140692329Y-135368796D01*
X140692331Y-135368796D01*
X140807546Y-135282546D01*
X140893796Y-135167331D01*
X140944091Y-135032483D01*
X140950500Y-134972873D01*
X140950499Y-133027128D01*
X140944091Y-132967517D01*
X140944089Y-132967511D01*
X140893798Y-132832672D01*
X140820246Y-132734419D01*
X140800510Y-132676504D01*
X140800500Y-132675090D01*
X140800500Y-132249500D01*
X140819407Y-132191309D01*
X140868907Y-132155345D01*
X140899500Y-132150500D01*
X141301082Y-132150500D01*
X141359273Y-132169407D01*
X141395237Y-132218907D01*
X141395237Y-132280093D01*
X141384255Y-132301270D01*
X141384596Y-132301456D01*
X141381203Y-132307668D01*
X141330910Y-132442511D01*
X141330908Y-132442522D01*
X141324500Y-132502129D01*
X141324500Y-133497866D01*
X141324501Y-133497870D01*
X141330908Y-133557480D01*
X141330909Y-133557485D01*
X141381202Y-133692329D01*
X141467450Y-133807541D01*
X141467454Y-133807546D01*
X141582669Y-133893796D01*
X141597593Y-133899362D01*
X141645509Y-133937410D01*
X141662000Y-133992121D01*
X141662000Y-134458720D01*
X141660781Y-134474207D01*
X141656696Y-134499999D01*
X141660781Y-134525790D01*
X141662000Y-134541278D01*
X141662000Y-135007877D01*
X141643093Y-135066068D01*
X141597600Y-135100634D01*
X141582668Y-135106203D01*
X141582667Y-135106204D01*
X141467458Y-135192450D01*
X141467450Y-135192458D01*
X141381202Y-135307670D01*
X141330910Y-135442511D01*
X141330908Y-135442522D01*
X141324500Y-135502129D01*
X141324500Y-136497866D01*
X141324501Y-136497870D01*
X141330908Y-136557480D01*
X141330909Y-136557485D01*
X141381202Y-136692329D01*
X141426310Y-136752585D01*
X141467454Y-136807546D01*
X141467457Y-136807548D01*
X141467458Y-136807549D01*
X141582670Y-136893797D01*
X141717511Y-136944089D01*
X141717512Y-136944089D01*
X141717517Y-136944091D01*
X141777127Y-136950500D01*
X142397872Y-136950499D01*
X142457483Y-136944091D01*
X142524907Y-136918943D01*
X142592329Y-136893797D01*
X142592329Y-136893796D01*
X142592331Y-136893796D01*
X142707546Y-136807546D01*
X142793796Y-136692331D01*
X142844091Y-136557483D01*
X142850500Y-136497873D01*
X142850500Y-136489324D01*
X143050001Y-136489324D01*
X143065443Y-136606629D01*
X143065444Y-136606631D01*
X143125899Y-136752585D01*
X143125901Y-136752589D01*
X143222070Y-136877919D01*
X143222080Y-136877929D01*
X143347410Y-136974098D01*
X143347414Y-136974100D01*
X143493368Y-137034555D01*
X143493369Y-137034556D01*
X143610677Y-137049999D01*
X143662499Y-137049998D01*
X143662500Y-137049998D01*
X144162500Y-137049998D01*
X144162501Y-137049999D01*
X144214320Y-137049999D01*
X144214324Y-137049998D01*
X144331629Y-137034556D01*
X144331631Y-137034555D01*
X144477585Y-136974100D01*
X144477589Y-136974098D01*
X144602919Y-136877929D01*
X144602929Y-136877919D01*
X144699098Y-136752589D01*
X144699100Y-136752585D01*
X144759555Y-136606631D01*
X144759556Y-136606630D01*
X144774999Y-136489323D01*
X144775000Y-136489322D01*
X144775000Y-136250001D01*
X144774999Y-136250000D01*
X144162501Y-136250000D01*
X144162500Y-136250001D01*
X144162500Y-137049998D01*
X143662500Y-137049998D01*
X143662500Y-136250001D01*
X143662499Y-136250000D01*
X143050002Y-136250000D01*
X143050001Y-136250001D01*
X143050001Y-136489324D01*
X142850500Y-136489324D01*
X142850499Y-135502128D01*
X142844091Y-135442517D01*
X142837744Y-135425499D01*
X142793797Y-135307670D01*
X142707549Y-135192458D01*
X142707548Y-135192457D01*
X142707546Y-135192454D01*
X142683770Y-135174655D01*
X142589058Y-135103753D01*
X142553805Y-135053744D01*
X142554679Y-134992565D01*
X142591347Y-134943584D01*
X142648387Y-134925500D01*
X143186612Y-134925500D01*
X143244803Y-134944407D01*
X143280767Y-134993907D01*
X143280767Y-135055093D01*
X143246879Y-135103042D01*
X143222080Y-135122070D01*
X143222070Y-135122080D01*
X143125901Y-135247410D01*
X143125899Y-135247414D01*
X143065444Y-135393368D01*
X143065443Y-135393369D01*
X143050000Y-135510676D01*
X143050000Y-135749999D01*
X143050001Y-135750000D01*
X144774998Y-135750000D01*
X144774999Y-135749999D01*
X144774999Y-135510680D01*
X144774998Y-135510675D01*
X144759556Y-135393370D01*
X144759555Y-135393368D01*
X144699100Y-135247414D01*
X144699098Y-135247410D01*
X144602929Y-135122080D01*
X144602919Y-135122070D01*
X144578121Y-135103042D01*
X144543465Y-135052617D01*
X144545067Y-134991453D01*
X144582314Y-134942911D01*
X144638388Y-134925500D01*
X144958721Y-134925500D01*
X144974207Y-134926718D01*
X145000000Y-134930804D01*
X145133126Y-134909719D01*
X145253220Y-134848528D01*
X145348528Y-134753220D01*
X145409719Y-134633126D01*
X145425500Y-134533488D01*
X145430804Y-134500000D01*
X145426719Y-134474207D01*
X145425500Y-134458720D01*
X145425500Y-129841278D01*
X145426719Y-129825790D01*
X145430395Y-129802585D01*
X145430804Y-129800000D01*
X145409719Y-129666874D01*
X145409718Y-129666872D01*
X145407311Y-129659462D01*
X145408663Y-129659022D01*
X145400499Y-129625010D01*
X145400499Y-129361842D01*
X145400499Y-129361837D01*
X145397709Y-129326373D01*
X145353618Y-129174610D01*
X145273170Y-129038580D01*
X145161420Y-128926830D01*
X145161417Y-128926828D01*
X145161416Y-128926827D01*
X145025392Y-128846383D01*
X145025391Y-128846382D01*
X145025390Y-128846382D01*
X144949508Y-128824336D01*
X144873625Y-128802290D01*
X144850894Y-128800502D01*
X144838163Y-128799500D01*
X144838157Y-128799500D01*
X143461842Y-128799500D01*
X143426373Y-128802291D01*
X143426368Y-128802292D01*
X143274606Y-128846383D01*
X143138583Y-128926827D01*
X143026827Y-129038583D01*
X142946383Y-129174606D01*
X142946383Y-129174607D01*
X142902290Y-129326374D01*
X142899500Y-129361842D01*
X142899500Y-130238157D01*
X142902291Y-130273626D01*
X142902292Y-130273631D01*
X142946383Y-130425393D01*
X143026827Y-130561416D01*
X143026828Y-130561417D01*
X143026830Y-130561420D01*
X143138580Y-130673170D01*
X143274610Y-130753618D01*
X143426373Y-130797709D01*
X143461837Y-130800500D01*
X144475500Y-130800499D01*
X144533691Y-130819406D01*
X144569655Y-130868906D01*
X144574500Y-130899499D01*
X144574500Y-131265889D01*
X144555593Y-131324080D01*
X144506093Y-131360044D01*
X144444907Y-131360044D01*
X144395407Y-131324080D01*
X144391244Y-131316798D01*
X144390800Y-131317069D01*
X144387281Y-131311283D01*
X144387280Y-131311280D01*
X144381662Y-131304374D01*
X144370562Y-131287449D01*
X144366471Y-131279553D01*
X144329963Y-131240463D01*
X144325527Y-131235375D01*
X144291777Y-131193891D01*
X144284509Y-131188761D01*
X144269249Y-131175454D01*
X144263182Y-131168958D01*
X144263175Y-131168952D01*
X144217494Y-131141173D01*
X144211842Y-131137466D01*
X144168146Y-131106622D01*
X144159759Y-131103641D01*
X144141479Y-131094947D01*
X144133887Y-131090330D01*
X144133885Y-131090329D01*
X144133882Y-131090328D01*
X144126551Y-131088274D01*
X144082386Y-131075898D01*
X144075948Y-131073854D01*
X144025560Y-131055946D01*
X144025554Y-131055945D01*
X144016675Y-131055338D01*
X143996728Y-131051899D01*
X143988165Y-131049500D01*
X143988164Y-131049500D01*
X143934697Y-131049500D01*
X143927941Y-131049269D01*
X143921086Y-131048800D01*
X143874579Y-131045619D01*
X143874578Y-131045619D01*
X143865869Y-131047429D01*
X143845726Y-131049500D01*
X140272197Y-131049500D01*
X140265441Y-131049269D01*
X140258586Y-131048800D01*
X140212079Y-131045619D01*
X140212078Y-131045619D01*
X140203369Y-131047429D01*
X140183226Y-131049500D01*
X138499500Y-131049500D01*
X138441309Y-131030593D01*
X138405345Y-130981093D01*
X138400500Y-130950500D01*
X138400500Y-129739850D01*
X138419407Y-129681659D01*
X138468907Y-129645695D01*
X138489433Y-129641363D01*
X138502797Y-129639999D01*
X138669334Y-129584814D01*
X138818656Y-129492712D01*
X138942712Y-129368656D01*
X139034814Y-129219334D01*
X139089999Y-129052797D01*
X139093149Y-129021960D01*
X139100500Y-128950016D01*
X139100500Y-128149500D01*
X139119407Y-128091309D01*
X139168907Y-128055345D01*
X139199500Y-128050500D01*
X142850293Y-128050500D01*
X142908484Y-128069407D01*
X142944448Y-128118907D01*
X142945363Y-128121883D01*
X142946381Y-128125390D01*
X143026827Y-128261416D01*
X143026828Y-128261417D01*
X143026830Y-128261420D01*
X143138580Y-128373170D01*
X143274610Y-128453618D01*
X143426373Y-128497709D01*
X143461837Y-128500500D01*
X144838162Y-128500499D01*
X144873627Y-128497709D01*
X145025390Y-128453618D01*
X145161420Y-128373170D01*
X145273170Y-128261420D01*
X145353618Y-128125390D01*
X145397709Y-127973627D01*
X145400500Y-127938163D01*
X145400499Y-127061838D01*
X145397709Y-127026373D01*
X145353618Y-126874610D01*
X145339359Y-126850500D01*
X145273172Y-126738583D01*
X145273171Y-126738582D01*
X145273170Y-126738580D01*
X145161420Y-126626830D01*
X145161417Y-126626828D01*
X145161416Y-126626827D01*
X145025392Y-126546383D01*
X145025391Y-126546382D01*
X145025390Y-126546382D01*
X144949508Y-126524336D01*
X144873625Y-126502290D01*
X144850894Y-126500502D01*
X144838163Y-126499500D01*
X144838157Y-126499500D01*
X143461842Y-126499500D01*
X143426373Y-126502291D01*
X143426368Y-126502292D01*
X143274606Y-126546383D01*
X143138583Y-126626827D01*
X143026827Y-126738583D01*
X142946381Y-126874609D01*
X142945363Y-126878117D01*
X142943988Y-126880140D01*
X142943906Y-126880330D01*
X142943869Y-126880314D01*
X142910974Y-126928723D01*
X142853406Y-126949451D01*
X142850293Y-126949500D01*
X139199499Y-126949500D01*
X139141308Y-126930593D01*
X139105344Y-126881093D01*
X139100499Y-126850500D01*
X139100499Y-126049983D01*
X139090000Y-125947211D01*
X139089999Y-125947209D01*
X139089999Y-125947203D01*
X139034814Y-125780666D01*
X138968791Y-125673625D01*
X138942714Y-125631347D01*
X138942713Y-125631346D01*
X138942712Y-125631344D01*
X138818656Y-125507288D01*
X138818653Y-125507286D01*
X138818652Y-125507285D01*
X138669336Y-125415187D01*
X138669335Y-125415186D01*
X138669334Y-125415186D01*
X138502797Y-125360001D01*
X138502794Y-125360000D01*
X138400016Y-125349500D01*
X137299983Y-125349500D01*
X137197211Y-125359999D01*
X137197199Y-125360002D01*
X137030663Y-125415187D01*
X136881347Y-125507285D01*
X136757285Y-125631347D01*
X136665187Y-125780663D01*
X136610000Y-125947205D01*
X136599500Y-126049983D01*
X136599500Y-128950016D01*
X136609999Y-129052788D01*
X136610002Y-129052800D01*
X136665187Y-129219336D01*
X136757285Y-129368652D01*
X136757286Y-129368653D01*
X136757288Y-129368656D01*
X136881344Y-129492712D01*
X137030666Y-129584814D01*
X137197203Y-129639999D01*
X137210559Y-129641363D01*
X137266526Y-129666083D01*
X137297275Y-129718980D01*
X137299500Y-129739850D01*
X137299500Y-130950500D01*
X137280593Y-131008691D01*
X137231093Y-131044655D01*
X137200500Y-131049500D01*
X135099945Y-131049500D01*
X135041754Y-131030593D01*
X135005790Y-130981093D01*
X135001422Y-130960203D01*
X134986025Y-130803873D01*
X134986024Y-130803870D01*
X134986024Y-130803868D01*
X134928814Y-130615273D01*
X134835910Y-130441462D01*
X134835906Y-130441457D01*
X134710887Y-130289121D01*
X134710878Y-130289112D01*
X134558542Y-130164093D01*
X134558540Y-130164092D01*
X134558538Y-130164090D01*
X134517618Y-130142218D01*
X134384732Y-130071188D01*
X134384730Y-130071187D01*
X134196129Y-130013975D01*
X134196126Y-130013974D01*
X134000003Y-129994659D01*
X133999997Y-129994659D01*
X133803873Y-130013974D01*
X133803870Y-130013975D01*
X133615269Y-130071187D01*
X133615267Y-130071188D01*
X133441467Y-130164087D01*
X133441457Y-130164093D01*
X133289121Y-130289112D01*
X133289112Y-130289121D01*
X133164093Y-130441457D01*
X133164087Y-130441467D01*
X133071188Y-130615267D01*
X133071187Y-130615269D01*
X133013975Y-130803870D01*
X133013974Y-130803873D01*
X132994659Y-130999996D01*
X132994659Y-131000003D01*
X133013974Y-131196126D01*
X133013975Y-131196129D01*
X133013976Y-131196132D01*
X133064723Y-131363423D01*
X133071187Y-131384730D01*
X133071188Y-131384732D01*
X133106118Y-131450080D01*
X133164090Y-131558538D01*
X133164092Y-131558540D01*
X133164093Y-131558542D01*
X133289112Y-131710878D01*
X133289121Y-131710887D01*
X133413305Y-131812802D01*
X133446292Y-131864333D01*
X133449500Y-131889330D01*
X133449500Y-133350500D01*
X133430593Y-133408691D01*
X133381093Y-133444655D01*
X133350500Y-133449500D01*
X129522197Y-133449500D01*
X129515441Y-133449269D01*
X129508586Y-133448800D01*
X129462079Y-133445619D01*
X129462078Y-133445619D01*
X129409706Y-133456500D01*
X129403051Y-133457648D01*
X129350079Y-133464930D01*
X129341917Y-133468475D01*
X129322631Y-133474596D01*
X129313919Y-133476406D01*
X129313911Y-133476409D01*
X129266423Y-133501015D01*
X129260323Y-133503916D01*
X129211279Y-133525220D01*
X129204378Y-133530834D01*
X129187462Y-133541930D01*
X129180180Y-133545703D01*
X129179553Y-133546029D01*
X129140458Y-133582540D01*
X129135382Y-133586966D01*
X129093892Y-133620722D01*
X129088757Y-133627996D01*
X129075464Y-133643240D01*
X129068956Y-133649319D01*
X129068954Y-133649320D01*
X129041174Y-133695002D01*
X129037470Y-133700650D01*
X129006622Y-133744353D01*
X129006620Y-133744357D01*
X129003640Y-133752743D01*
X128994949Y-133771018D01*
X128990329Y-133778615D01*
X128990326Y-133778621D01*
X128982224Y-133807541D01*
X128975899Y-133830111D01*
X128973859Y-133836540D01*
X128955946Y-133886942D01*
X128955945Y-133886945D01*
X128955338Y-133895824D01*
X128951900Y-133915766D01*
X128949500Y-133924331D01*
X128949500Y-133977803D01*
X128949269Y-133984559D01*
X128945619Y-134037921D01*
X128947429Y-134046631D01*
X128949500Y-134066774D01*
X128949500Y-135080500D01*
X128930593Y-135138691D01*
X128881093Y-135174655D01*
X128850500Y-135179500D01*
X127851709Y-135179500D01*
X127793518Y-135160593D01*
X127781705Y-135150504D01*
X127780603Y-135149402D01*
X127780601Y-135149399D01*
X127707618Y-135100634D01*
X127697742Y-135094035D01*
X127697740Y-135094034D01*
X127697737Y-135094033D01*
X127697736Y-135094033D01*
X127624684Y-135079501D01*
X127624674Y-135079500D01*
X126449000Y-135079500D01*
X126390809Y-135060593D01*
X126354845Y-135011093D01*
X126350000Y-134980500D01*
X126350000Y-129539324D01*
X126950001Y-129539324D01*
X126965443Y-129656629D01*
X126965444Y-129656631D01*
X127025899Y-129802585D01*
X127025901Y-129802589D01*
X127122070Y-129927919D01*
X127122080Y-129927929D01*
X127247410Y-130024098D01*
X127247414Y-130024100D01*
X127393368Y-130084555D01*
X127393369Y-130084556D01*
X127510676Y-130099999D01*
X127949998Y-130099999D01*
X127950000Y-130099998D01*
X128450000Y-130099998D01*
X128450001Y-130099999D01*
X128889320Y-130099999D01*
X128889324Y-130099998D01*
X129006629Y-130084556D01*
X129006631Y-130084555D01*
X129152585Y-130024100D01*
X129152589Y-130024098D01*
X129277919Y-129927929D01*
X129277929Y-129927919D01*
X129374098Y-129802589D01*
X129374100Y-129802585D01*
X129434555Y-129656631D01*
X129434556Y-129656630D01*
X129449999Y-129539323D01*
X129450000Y-129539322D01*
X129450000Y-128750001D01*
X129449999Y-128750000D01*
X128450001Y-128750000D01*
X128450000Y-128750001D01*
X128450000Y-130099998D01*
X127950000Y-130099998D01*
X127950000Y-128750001D01*
X127949999Y-128750000D01*
X126950002Y-128750000D01*
X126950001Y-128750001D01*
X126950001Y-129539324D01*
X126350000Y-129539324D01*
X126350000Y-128249999D01*
X126950000Y-128249999D01*
X126950001Y-128250000D01*
X127949999Y-128250000D01*
X127950000Y-128249999D01*
X128450000Y-128249999D01*
X128450001Y-128250000D01*
X129449998Y-128250000D01*
X129449999Y-128249999D01*
X129449999Y-127460680D01*
X129449998Y-127460675D01*
X129434556Y-127343370D01*
X129434555Y-127343368D01*
X129374100Y-127197414D01*
X129374098Y-127197410D01*
X129277929Y-127072080D01*
X129277919Y-127072070D01*
X129152589Y-126975901D01*
X129152585Y-126975899D01*
X129006631Y-126915444D01*
X129006630Y-126915443D01*
X128889323Y-126900000D01*
X128450001Y-126900000D01*
X128450000Y-126900001D01*
X128450000Y-128249999D01*
X127950000Y-128249999D01*
X127950000Y-126900001D01*
X127949999Y-126900000D01*
X127510680Y-126900000D01*
X127510675Y-126900001D01*
X127393370Y-126915443D01*
X127393368Y-126915444D01*
X127247414Y-126975899D01*
X127247410Y-126975901D01*
X127122080Y-127072070D01*
X127122070Y-127072080D01*
X127025901Y-127197410D01*
X127025899Y-127197414D01*
X126965444Y-127343368D01*
X126965443Y-127343369D01*
X126950000Y-127460676D01*
X126950000Y-128249999D01*
X126350000Y-128249999D01*
X126350000Y-117800003D01*
X136379475Y-117800003D01*
X136399535Y-118029299D01*
X136399536Y-118029306D01*
X136399537Y-118029307D01*
X136406744Y-118056204D01*
X136459113Y-118251650D01*
X136556386Y-118460251D01*
X136556390Y-118460259D01*
X136662671Y-118612046D01*
X136688419Y-118648817D01*
X136851183Y-118811581D01*
X137039738Y-118943608D01*
X137039739Y-118943608D01*
X137039740Y-118943609D01*
X137039748Y-118943613D01*
X137248350Y-119040886D01*
X137248354Y-119040888D01*
X137470693Y-119100463D01*
X137470697Y-119100463D01*
X137470700Y-119100464D01*
X137642557Y-119115500D01*
X137642565Y-119115500D01*
X137757443Y-119115500D01*
X137929299Y-119100464D01*
X137929300Y-119100463D01*
X137929307Y-119100463D01*
X138151646Y-119040888D01*
X138360262Y-118943608D01*
X138548817Y-118811581D01*
X138711581Y-118648817D01*
X138843608Y-118460263D01*
X138940888Y-118251646D01*
X139000463Y-118029307D01*
X139020525Y-117800000D01*
X139000463Y-117570693D01*
X138940888Y-117348354D01*
X138923413Y-117310879D01*
X138843613Y-117139748D01*
X138843609Y-117139740D01*
X138818372Y-117103698D01*
X138711581Y-116951183D01*
X138548817Y-116788419D01*
X138548813Y-116788416D01*
X138548812Y-116788415D01*
X138360259Y-116656390D01*
X138360251Y-116656386D01*
X138151649Y-116559113D01*
X138151650Y-116559113D01*
X138077533Y-116539253D01*
X137929307Y-116499537D01*
X137929306Y-116499536D01*
X137929299Y-116499535D01*
X137757443Y-116484500D01*
X137757435Y-116484500D01*
X137642565Y-116484500D01*
X137642557Y-116484500D01*
X137470700Y-116499535D01*
X137248349Y-116559113D01*
X137039748Y-116656386D01*
X137039740Y-116656390D01*
X136851187Y-116788415D01*
X136688415Y-116951187D01*
X136556391Y-117139738D01*
X136459112Y-117348354D01*
X136399535Y-117570700D01*
X136379475Y-117799996D01*
X136379475Y-117800003D01*
X126350000Y-117800003D01*
X126350000Y-116547866D01*
X127049500Y-116547866D01*
X127049501Y-116547870D01*
X127055908Y-116607480D01*
X127055909Y-116607485D01*
X127106202Y-116742329D01*
X127192450Y-116857541D01*
X127192454Y-116857546D01*
X127192457Y-116857548D01*
X127192458Y-116857549D01*
X127307670Y-116943797D01*
X127442511Y-116994089D01*
X127442512Y-116994089D01*
X127442517Y-116994091D01*
X127502127Y-117000500D01*
X128897872Y-117000499D01*
X128957483Y-116994091D01*
X129072515Y-116951187D01*
X129092329Y-116943797D01*
X129092329Y-116943796D01*
X129092331Y-116943796D01*
X129207546Y-116857546D01*
X129293796Y-116742331D01*
X129344091Y-116607483D01*
X129350500Y-116547873D01*
X129350499Y-114452128D01*
X129344091Y-114392517D01*
X129333687Y-114364623D01*
X129293797Y-114257670D01*
X129207549Y-114142458D01*
X129207548Y-114142457D01*
X129207546Y-114142454D01*
X129146741Y-114096935D01*
X129092329Y-114056202D01*
X128957488Y-114005910D01*
X128957483Y-114005909D01*
X128957481Y-114005908D01*
X128957477Y-114005908D01*
X128926249Y-114002550D01*
X128897873Y-113999500D01*
X128897870Y-113999500D01*
X128849500Y-113999500D01*
X128791309Y-113980593D01*
X128755345Y-113931093D01*
X128750500Y-113900500D01*
X128750500Y-112958117D01*
X128769407Y-112899926D01*
X128770247Y-112898788D01*
X128780445Y-112885165D01*
X128793796Y-112867331D01*
X128844091Y-112732483D01*
X128850500Y-112672873D01*
X128850499Y-111327128D01*
X128844091Y-111267517D01*
X128817434Y-111196045D01*
X128793797Y-111132670D01*
X128707549Y-111017458D01*
X128707548Y-111017457D01*
X128707546Y-111017454D01*
X128702327Y-111013547D01*
X128592329Y-110931202D01*
X128457488Y-110880910D01*
X128457483Y-110880909D01*
X128457481Y-110880908D01*
X128457477Y-110880908D01*
X128426249Y-110877550D01*
X128397873Y-110874500D01*
X128397870Y-110874500D01*
X127677133Y-110874500D01*
X127677129Y-110874500D01*
X127677128Y-110874501D01*
X127669949Y-110875272D01*
X127617519Y-110880908D01*
X127617514Y-110880909D01*
X127482670Y-110931202D01*
X127367458Y-111017450D01*
X127367450Y-111017458D01*
X127281202Y-111132670D01*
X127230910Y-111267511D01*
X127230908Y-111267522D01*
X127224500Y-111327129D01*
X127224500Y-112672866D01*
X127224501Y-112672870D01*
X127230908Y-112732480D01*
X127230909Y-112732485D01*
X127281202Y-112867329D01*
X127305660Y-112900000D01*
X127367454Y-112982546D01*
X127367457Y-112982548D01*
X127367458Y-112982549D01*
X127482670Y-113068797D01*
X127585096Y-113106999D01*
X127633011Y-113145049D01*
X127649500Y-113199757D01*
X127649500Y-113900500D01*
X127630593Y-113958691D01*
X127581093Y-113994655D01*
X127550502Y-113999500D01*
X127502132Y-113999500D01*
X127502128Y-113999501D01*
X127442519Y-114005908D01*
X127442514Y-114005909D01*
X127307670Y-114056202D01*
X127192458Y-114142450D01*
X127192450Y-114142458D01*
X127106202Y-114257670D01*
X127055910Y-114392511D01*
X127055908Y-114392522D01*
X127049500Y-114452129D01*
X127049500Y-116547866D01*
X126350000Y-116547866D01*
X126350000Y-110599500D01*
X126368907Y-110541309D01*
X126418407Y-110505345D01*
X126449000Y-110500500D01*
X135433306Y-110500500D01*
X135491497Y-110519407D01*
G37*
%TD.AperFunction*%
%TA.AperFunction,Conductor*%
G36*
X129458691Y-138789407D02*
G01*
X129494655Y-138838907D01*
X129499500Y-138869500D01*
X129499500Y-143613000D01*
X129480593Y-143671191D01*
X129431093Y-143707155D01*
X129400500Y-143712000D01*
X129146594Y-143712000D01*
X129088403Y-143693093D01*
X129067341Y-143672329D01*
X129007549Y-143592458D01*
X129007548Y-143592457D01*
X129007546Y-143592454D01*
X129007541Y-143592450D01*
X128892329Y-143506202D01*
X128757488Y-143455910D01*
X128757483Y-143455909D01*
X128757481Y-143455908D01*
X128757477Y-143455908D01*
X128726249Y-143452550D01*
X128697873Y-143449500D01*
X128697870Y-143449500D01*
X127702133Y-143449500D01*
X127702129Y-143449500D01*
X127702128Y-143449501D01*
X127694949Y-143450272D01*
X127642519Y-143455908D01*
X127642514Y-143455909D01*
X127507670Y-143506202D01*
X127392458Y-143592450D01*
X127392450Y-143592458D01*
X127306202Y-143707670D01*
X127255910Y-143842511D01*
X127255908Y-143842522D01*
X127249500Y-143902129D01*
X127249500Y-144522866D01*
X127249501Y-144522870D01*
X127255908Y-144582480D01*
X127255909Y-144582485D01*
X127306202Y-144717329D01*
X127377073Y-144812000D01*
X127392454Y-144832546D01*
X127392457Y-144832548D01*
X127392458Y-144832549D01*
X127507670Y-144918797D01*
X127635096Y-144966323D01*
X127683011Y-145004373D01*
X127699500Y-145059081D01*
X127699500Y-145440918D01*
X127680593Y-145499109D01*
X127635097Y-145533676D01*
X127507669Y-145581203D01*
X127392458Y-145667450D01*
X127392450Y-145667458D01*
X127306202Y-145782670D01*
X127255910Y-145917511D01*
X127255908Y-145917522D01*
X127249500Y-145977129D01*
X127249500Y-146597866D01*
X127249501Y-146597870D01*
X127255908Y-146657480D01*
X127255909Y-146657485D01*
X127306202Y-146792329D01*
X127392450Y-146907541D01*
X127392454Y-146907546D01*
X127392457Y-146907548D01*
X127392458Y-146907549D01*
X127507670Y-146993797D01*
X127642511Y-147044089D01*
X127642512Y-147044089D01*
X127642517Y-147044091D01*
X127702127Y-147050500D01*
X128697872Y-147050499D01*
X128757483Y-147044091D01*
X128824907Y-147018943D01*
X128892329Y-146993797D01*
X128892329Y-146993796D01*
X128892331Y-146993796D01*
X129007546Y-146907546D01*
X129093796Y-146792331D01*
X129144091Y-146657483D01*
X129150500Y-146597873D01*
X129150499Y-145977128D01*
X129144091Y-145917517D01*
X129144089Y-145917511D01*
X129093797Y-145782670D01*
X129007549Y-145667458D01*
X129007548Y-145667457D01*
X129007546Y-145667454D01*
X128892801Y-145581556D01*
X128892330Y-145581203D01*
X128764903Y-145533676D01*
X128716989Y-145495626D01*
X128700500Y-145440918D01*
X128700500Y-145059082D01*
X128719407Y-145000891D01*
X128764903Y-144966324D01*
X128836492Y-144939622D01*
X128892331Y-144918796D01*
X129007546Y-144832546D01*
X129045829Y-144781407D01*
X129067341Y-144752671D01*
X129117350Y-144717418D01*
X129146594Y-144713000D01*
X129400500Y-144713000D01*
X129458691Y-144731907D01*
X129494655Y-144781407D01*
X129499500Y-144812000D01*
X129499500Y-153400500D01*
X129480593Y-153458691D01*
X129431093Y-153494655D01*
X129400500Y-153499500D01*
X127663404Y-153499500D01*
X127642696Y-153497310D01*
X127634329Y-153495520D01*
X127634327Y-153495520D01*
X127584953Y-153499223D01*
X127577551Y-153499500D01*
X127564199Y-153499500D01*
X127548927Y-153501695D01*
X127542250Y-153502425D01*
X127516463Y-153504359D01*
X127490808Y-153506284D01*
X127490806Y-153506284D01*
X127484761Y-153508563D01*
X127463944Y-153513914D01*
X127457546Y-153514834D01*
X127457539Y-153514836D01*
X127410616Y-153536264D01*
X127404411Y-153538847D01*
X127356139Y-153557042D01*
X127356131Y-153557046D01*
X127350960Y-153560945D01*
X127332507Y-153571936D01*
X127326630Y-153574620D01*
X127287644Y-153608401D01*
X127282418Y-153612627D01*
X127241217Y-153643693D01*
X127237360Y-153648883D01*
X127222746Y-153664635D01*
X127217858Y-153668871D01*
X127217856Y-153668873D01*
X127189961Y-153712277D01*
X127186139Y-153717802D01*
X127155367Y-153759209D01*
X127155365Y-153759211D01*
X127153127Y-153765276D01*
X127143547Y-153784498D01*
X127140048Y-153789943D01*
X127140045Y-153789949D01*
X127125512Y-153839445D01*
X127123400Y-153845827D01*
X127105539Y-153894226D01*
X127105099Y-153900683D01*
X127101321Y-153921831D01*
X127099500Y-153928034D01*
X127099500Y-153979610D01*
X127099272Y-153986330D01*
X127098224Y-154001731D01*
X127099223Y-154015053D01*
X127099500Y-154022456D01*
X127099500Y-154071961D01*
X127101910Y-154080168D01*
X127105643Y-154100656D01*
X127135075Y-154493096D01*
X127120572Y-154552538D01*
X127073901Y-154592103D01*
X127036352Y-154599500D01*
X126702133Y-154599500D01*
X126702129Y-154599500D01*
X126702128Y-154599501D01*
X126694949Y-154600272D01*
X126642519Y-154605908D01*
X126642514Y-154605909D01*
X126507668Y-154656203D01*
X126501456Y-154659596D01*
X126500745Y-154658295D01*
X126450405Y-154675446D01*
X126391952Y-154657366D01*
X126355289Y-154608382D01*
X126350000Y-154576456D01*
X126350000Y-152020165D01*
X127150001Y-152020165D01*
X127165282Y-152136246D01*
X127165284Y-152136252D01*
X127225110Y-152280685D01*
X127320282Y-152404715D01*
X127320284Y-152404717D01*
X127444314Y-152499889D01*
X127588747Y-152559715D01*
X127588753Y-152559717D01*
X127704836Y-152574999D01*
X127949998Y-152574999D01*
X127950000Y-152574998D01*
X128450000Y-152574998D01*
X128450001Y-152574999D01*
X128695160Y-152574999D01*
X128695165Y-152574998D01*
X128811246Y-152559717D01*
X128811252Y-152559715D01*
X128955685Y-152499889D01*
X129079715Y-152404717D01*
X129079717Y-152404715D01*
X129174889Y-152280685D01*
X129234715Y-152136252D01*
X129234717Y-152136246D01*
X129249999Y-152020164D01*
X129250000Y-152020162D01*
X129250000Y-151987501D01*
X129249999Y-151987500D01*
X128450001Y-151987500D01*
X128450000Y-151987501D01*
X128450000Y-152574998D01*
X127950000Y-152574998D01*
X127950000Y-151987501D01*
X127949999Y-151987500D01*
X127150002Y-151987500D01*
X127150001Y-151987501D01*
X127150001Y-152020165D01*
X126350000Y-152020165D01*
X126350000Y-151487499D01*
X127150000Y-151487499D01*
X127150001Y-151487500D01*
X127949999Y-151487500D01*
X127950000Y-151487499D01*
X128450000Y-151487499D01*
X128450001Y-151487500D01*
X129249998Y-151487500D01*
X129249999Y-151487499D01*
X129249999Y-151454840D01*
X129249998Y-151454834D01*
X129234717Y-151338753D01*
X129234715Y-151338747D01*
X129174889Y-151194314D01*
X129079717Y-151070284D01*
X129079715Y-151070282D01*
X128955685Y-150975110D01*
X128811252Y-150915284D01*
X128811246Y-150915282D01*
X128695164Y-150900000D01*
X128450001Y-150900000D01*
X128450000Y-150900001D01*
X128450000Y-151487499D01*
X127950000Y-151487499D01*
X127950000Y-150900001D01*
X127949999Y-150900000D01*
X127704840Y-150900000D01*
X127704834Y-150900001D01*
X127588753Y-150915282D01*
X127588747Y-150915284D01*
X127444314Y-150975110D01*
X127320284Y-151070282D01*
X127320282Y-151070284D01*
X127225110Y-151194314D01*
X127165284Y-151338747D01*
X127165282Y-151338753D01*
X127150000Y-151454835D01*
X127150000Y-151487499D01*
X126350000Y-151487499D01*
X126350000Y-150153514D01*
X127249500Y-150153514D01*
X127249501Y-150153520D01*
X127255828Y-150212387D01*
X127305498Y-150345556D01*
X127334825Y-150384732D01*
X127390669Y-150459331D01*
X127504446Y-150544503D01*
X127637609Y-150594171D01*
X127696479Y-150600500D01*
X128703520Y-150600499D01*
X128762391Y-150594171D01*
X128895554Y-150544503D01*
X129009331Y-150459331D01*
X129094503Y-150345554D01*
X129144171Y-150212391D01*
X129150500Y-150153521D01*
X129150499Y-149571480D01*
X129144171Y-149512609D01*
X129094503Y-149379446D01*
X129009331Y-149265669D01*
X128913568Y-149193982D01*
X128895556Y-149180498D01*
X128895554Y-149180497D01*
X128762391Y-149130829D01*
X128762390Y-149130828D01*
X128724143Y-149126717D01*
X128713917Y-149125617D01*
X128658082Y-149100599D01*
X128627615Y-149047539D01*
X128625500Y-149027185D01*
X128625500Y-148972206D01*
X128644407Y-148914015D01*
X128693907Y-148878051D01*
X128713913Y-148873774D01*
X128757483Y-148869091D01*
X128824907Y-148843943D01*
X128892329Y-148818797D01*
X128892329Y-148818796D01*
X128892331Y-148818796D01*
X129007546Y-148732546D01*
X129093796Y-148617331D01*
X129120283Y-148546317D01*
X129144089Y-148482488D01*
X129144090Y-148482485D01*
X129144091Y-148482483D01*
X129150500Y-148422873D01*
X129150499Y-147802128D01*
X129144091Y-147742517D01*
X129124231Y-147689269D01*
X129093797Y-147607670D01*
X129007549Y-147492458D01*
X129007548Y-147492457D01*
X129007546Y-147492454D01*
X129007541Y-147492450D01*
X128892329Y-147406202D01*
X128757488Y-147355910D01*
X128757483Y-147355909D01*
X128757481Y-147355908D01*
X128757477Y-147355908D01*
X128726249Y-147352550D01*
X128697873Y-147349500D01*
X128697870Y-147349500D01*
X127702133Y-147349500D01*
X127702129Y-147349500D01*
X127702128Y-147349501D01*
X127694949Y-147350272D01*
X127642519Y-147355908D01*
X127642514Y-147355909D01*
X127507670Y-147406202D01*
X127392458Y-147492450D01*
X127392450Y-147492458D01*
X127306202Y-147607670D01*
X127255910Y-147742511D01*
X127255908Y-147742522D01*
X127249500Y-147802129D01*
X127249500Y-148422866D01*
X127249501Y-148422870D01*
X127255908Y-148482480D01*
X127255909Y-148482485D01*
X127306202Y-148617329D01*
X127389706Y-148728875D01*
X127392454Y-148732546D01*
X127392457Y-148732548D01*
X127392458Y-148732549D01*
X127507670Y-148818797D01*
X127642511Y-148869089D01*
X127642512Y-148869089D01*
X127642517Y-148869091D01*
X127686083Y-148873775D01*
X127741918Y-148898793D01*
X127772385Y-148951853D01*
X127774500Y-148972207D01*
X127774500Y-149027186D01*
X127755593Y-149085377D01*
X127706093Y-149121341D01*
X127686081Y-149125618D01*
X127679218Y-149126356D01*
X127637612Y-149130828D01*
X127504443Y-149180498D01*
X127390671Y-149265667D01*
X127390667Y-149265671D01*
X127305498Y-149379443D01*
X127255828Y-149512610D01*
X127249500Y-149571482D01*
X127249500Y-150153514D01*
X126350000Y-150153514D01*
X126350000Y-142689324D01*
X127150001Y-142689324D01*
X127165443Y-142806629D01*
X127165444Y-142806631D01*
X127225899Y-142952585D01*
X127225901Y-142952589D01*
X127322070Y-143077919D01*
X127322080Y-143077929D01*
X127447410Y-143174098D01*
X127447414Y-143174100D01*
X127593368Y-143234555D01*
X127593369Y-143234556D01*
X127710676Y-143249999D01*
X127949998Y-143249999D01*
X127950000Y-143249998D01*
X128450000Y-143249998D01*
X128450001Y-143249999D01*
X128689320Y-143249999D01*
X128689324Y-143249998D01*
X128806629Y-143234556D01*
X128806631Y-143234555D01*
X128952585Y-143174100D01*
X128952589Y-143174098D01*
X129077919Y-143077929D01*
X129077929Y-143077919D01*
X129174098Y-142952589D01*
X129174100Y-142952585D01*
X129234555Y-142806631D01*
X129234556Y-142806630D01*
X129249999Y-142689323D01*
X129250000Y-142689322D01*
X129250000Y-142637501D01*
X129249999Y-142637500D01*
X128450001Y-142637500D01*
X128450000Y-142637501D01*
X128450000Y-143249998D01*
X127950000Y-143249998D01*
X127950000Y-142637501D01*
X127949999Y-142637500D01*
X127150002Y-142637500D01*
X127150001Y-142637501D01*
X127150001Y-142689324D01*
X126350000Y-142689324D01*
X126350000Y-142137499D01*
X127150000Y-142137499D01*
X127150001Y-142137500D01*
X127949999Y-142137500D01*
X127950000Y-142137499D01*
X128450000Y-142137499D01*
X128450001Y-142137500D01*
X129249998Y-142137500D01*
X129249999Y-142137499D01*
X129249999Y-142085680D01*
X129249998Y-142085675D01*
X129234556Y-141968370D01*
X129234555Y-141968368D01*
X129174100Y-141822414D01*
X129174098Y-141822410D01*
X129077929Y-141697080D01*
X129077919Y-141697070D01*
X128952589Y-141600901D01*
X128952585Y-141600899D01*
X128806631Y-141540444D01*
X128806630Y-141540443D01*
X128689323Y-141525000D01*
X128450001Y-141525000D01*
X128450000Y-141525001D01*
X128450000Y-142137499D01*
X127950000Y-142137499D01*
X127950000Y-141525001D01*
X127949999Y-141525000D01*
X127710680Y-141525000D01*
X127710675Y-141525001D01*
X127593370Y-141540443D01*
X127593368Y-141540444D01*
X127447414Y-141600899D01*
X127447410Y-141600901D01*
X127322080Y-141697070D01*
X127322070Y-141697080D01*
X127225901Y-141822410D01*
X127225899Y-141822414D01*
X127165444Y-141968368D01*
X127165443Y-141968369D01*
X127150000Y-142085676D01*
X127150000Y-142137499D01*
X126350000Y-142137499D01*
X126350000Y-139019500D01*
X126368907Y-138961309D01*
X126418407Y-138925345D01*
X126449000Y-138920500D01*
X127624673Y-138920500D01*
X127624674Y-138920500D01*
X127697740Y-138905966D01*
X127780601Y-138850601D01*
X127804723Y-138814499D01*
X127852772Y-138776620D01*
X127887039Y-138770500D01*
X129400500Y-138770500D01*
X129458691Y-138789407D01*
G37*
%TD.AperFunction*%
%TD*%
M02*
